<?xml version="1.0" encoding="utf-8"?>
<!-- Generator: Adobe Illustrator 22.1.0, SVG Export Plug-In . SVG Version: 6.00 Build 0)  -->
<svg version="1.1" xmlns="http://www.w3.org/2000/svg" xmlns:xlink="http://www.w3.org/1999/xlink" x="0px" y="0px"
	 viewBox="0 0 526 1249" style="enable-background:new 0 0 526 1249;" xml:space="preserve">
<style type="text/css">
	.st0{fill:#C6943B;}
	.st1{display:none;}
	.st2{display:inline;fill:#FBF2C0;}
</style>
<g id="Layer_3">
	<g>
		<polygon class="st0" points="525.8,1200 0,1249 0,-15 456,-15 		"/>
	</g>
</g>
<g id="Layer_2" class="st1">
	
		<ellipse transform="matrix(0.5225 -0.8526 0.8526 0.5225 -657.3344 483.0237)" class="st2" cx="102.6" cy="828.4" rx="13.8" ry="12.9"/>
	
		<ellipse transform="matrix(3.327795e-02 -0.9994 0.9994 3.327795e-02 -797.3382 923.6714)" class="st2" cx="78.8" cy="874" rx="18.2" ry="18.2"/>
	
		<ellipse transform="matrix(3.327795e-02 -0.9994 0.9994 3.327795e-02 -401.8916 974.5041)" class="st2" cx="302.8" cy="695" rx="18.2" ry="18.2"/>
	
		<ellipse transform="matrix(0.3085 -0.9512 0.9512 0.3085 -667.0176 1089.7581)" class="st2" cx="416" cy="1003.6" rx="13.4" ry="12.3"/>
	
		<ellipse transform="matrix(0.3085 -0.9512 0.9512 0.3085 -605.5609 1114.7544)" class="st2" cx="463.9" cy="973.9" rx="17.7" ry="16.3"/>
	
		<ellipse transform="matrix(0.3085 -0.9512 0.9512 0.3085 -650.3325 1174.7383)" class="st2" cx="482.8" cy="1034.6" rx="22.3" ry="20.5"/>
</g>
</svg>
