<?xml version="1.0" encoding="utf-8"?>
<!-- Generator: Adobe Illustrator 22.1.0, SVG Export Plug-In . SVG Version: 6.00 Build 0)  -->
<svg version="1.1" id="Layer_1" xmlns="http://www.w3.org/2000/svg" xmlns:xlink="http://www.w3.org/1999/xlink" x="0px" y="0px"
	 viewBox="0 0 1600 249" style="enable-background:new 0 0 1600 249;" xml:space="preserve">
<style type="text/css">
	.st0{fill:#48392A;}
	.st1{opacity:0.2;}
	.st2{fill:none;stroke:#C6943B;stroke-width:0.8186;stroke-miterlimit:10;}
	.st3{fill:none;stroke:#C6943B;stroke-width:0.7236;stroke-miterlimit:10;}
	.st4{fill:none;stroke:#C6943B;stroke-width:0.7656;stroke-miterlimit:10;}
	.st5{fill:none;stroke:#C6943B;stroke-width:0.6464;stroke-miterlimit:10;}
	.st6{fill:none;stroke:#C6943B;stroke-width:0.6944;stroke-miterlimit:10;}
	.st7{fill:none;stroke:#C6943B;stroke-width:0.7831;stroke-miterlimit:10;}
	.st8{fill:none;stroke:#C6943B;stroke-width:0.7149;stroke-miterlimit:10;}
</style>
<rect x="-20.4" y="-14.1" class="st0" width="1632.8" height="268.5"/>
<g class="st1">
	<g>
		<path class="st2" d="M208.7,317.2L95.4,329.4c-5,0.5-9.4-3.8-9.1-9.2L97.5,58.8c0-4.9,3.7-8.8,8.3-8.8L212.9,36
			c4.6,0,8.3,4,8.3,8.8L217,308.3C217,313.2,213.3,317.2,208.7,317.2z"/>
		<path class="st3" d="M61.1,317.2l-88.6,12.2c-3.9,0.5-7.3-3.8-7.1-9.2l8.8-261.4c0-4.9,2.9-8.8,6.5-8.8L64.3,36
			c3.6,0,6.5,4,6.5,8.8l-3.2,263.4C67.6,313.2,64.7,317.2,61.1,317.2z"/>
		<path class="st4" d="M280.9,328.2l-99.1,12.2c-4.4,0.5-8.2-3.8-8-9.2l9.9-261.4c0-4.9,3.3-8.8,7.3-8.8l93.6-13.9
			c4,0,7.3,4,7.3,8.8l-3.6,263.4C288.1,324.3,284.9,328.2,280.9,328.2z"/>
		<path class="st5" d="M147.6,286.8l82.9,10.4c3.7,0.5,6.8-3.3,6.7-7.9l-8.3-222.8c0-4.2-2.7-7.5-6.1-7.5l-78.3-11.9
			c-3.4,0-6.1,3.4-6.1,7.5l3,224.6C141.6,283.4,144.3,286.8,147.6,286.8z"/>
		<path class="st5" d="M-36.9,335.9L46,346.3c3.7,0.5,6.8-3.3,6.7-7.9l-8.3-222.8c0-4.2-2.7-7.5-6.1-7.5l-78.3-11.9
			c-3.4,0-6.1,3.4-6.1,7.5l3,224.6C-43,332.5-40.2,335.9-36.9,335.9z"/>
		<path class="st6" d="M40.2,334.3l82.9,12c3.7,0.5,6.8-3.8,6.7-9.1l-8.3-257.2c0-4.8-2.7-8.7-6.1-8.7L37.1,57.7
			c-3.4,0-6.1,3.9-6.1,8.7l3,259.2C34.1,330.4,36.8,334.3,40.2,334.3z"/>
		<path class="st7" d="M-5.6,278.6l105.4,12c4.7,0.5,8.7-3.8,8.5-9.1L97.8,24.3c0-4.8-3.5-8.7-7.7-8.7L-9.5,2
			c-4.3,0-7.7,3.9-7.7,8.7l3.9,259.2C-13.3,274.7-9.9,278.6-5.6,278.6z"/>
		<path class="st8" d="M164.2,297.7l-86.5,12.2c-3.8,0.5-7.1-3.8-7-9.2l8.6-261.4c0-4.9,2.8-8.8,6.3-8.8l81.6-13.9
			c3.5,0,6.3,4,6.3,8.8l-3.2,263.4C170.6,293.7,167.7,297.7,164.2,297.7z"/>
	</g>
	<g>
		<path class="st2" d="M511.2,336.8L397.8,349c-5,0.5-9.4-3.8-9.1-9.2L400,78.4c0-4.9,3.7-8.8,8.3-8.8l107.1-13.9
			c4.6,0,8.3,4,8.3,8.8L519.5,328C519.5,332.9,515.8,336.8,511.2,336.8z"/>
		<path class="st3" d="M363.6,336.8L275,349c-3.9,0.5-7.3-3.8-7.1-9.2l8.8-261.4c0-4.9,2.9-8.8,6.5-8.8l83.6-13.9
			c3.6,0,6.5,4,6.5,8.8L370,328C370,332.9,367.1,336.8,363.6,336.8z"/>
		<path class="st4" d="M583.4,347.9l-99.1,12.2c-4.4,0.5-8.2-3.8-8-9.2l9.9-261.4c0-4.9,3.3-8.8,7.3-8.8L587,66.8c4,0,7.3,4,7.3,8.8
			L590.6,339C590.6,343.9,587.4,347.9,583.4,347.9z"/>
		<path class="st5" d="M450.1,306.4l82.9,10.4c3.7,0.5,6.8-3.3,6.7-7.9l-8.3-222.8c0-4.2-2.7-7.5-6.1-7.5l-78.3-11.9
			c-3.4,0-6.1,3.4-6.1,7.5l3,224.6C444,303.1,446.7,306.4,450.1,306.4z"/>
		<path class="st5" d="M265.6,355.5l82.9,10.4c3.7,0.5,6.8-3.3,6.7-7.9l-8.3-222.8c0-4.2-2.7-7.5-6.1-7.5l-78.3-11.9
			c-3.4,0-6.1,3.4-6.1,7.5l3,224.6C259.5,352.2,262.2,355.5,265.6,355.5z"/>
		<path class="st6" d="M342.6,353.9l82.9,12c3.7,0.5,6.8-3.8,6.7-9.1L424,99.7c0-4.8-2.7-8.7-6.1-8.7l-78.3-13.7
			c-3.4,0-6.1,3.9-6.1,8.7l3,259.2C336.6,350,339.3,353.9,342.6,353.9z"/>
		<path class="st7" d="M296.9,298.2l105.4,12c4.7,0.5,8.7-3.8,8.5-9.1L400.3,44c0-4.8-3.5-8.7-7.7-8.7L293,21.6
			c-4.3,0-7.7,3.9-7.7,8.7l3.9,259.2C289.1,294.3,292.6,298.2,296.9,298.2z"/>
		<path class="st8" d="M466.7,317.4l-86.5,12.2c-3.8,0.5-7.1-3.8-7-9.2L381.9,59c0-4.9,2.8-8.8,6.3-8.8l81.6-13.9
			c3.5,0,6.3,4,6.3,8.8l-3.2,263.4C473.1,313.4,470.2,317.4,466.7,317.4z"/>
	</g>
	<g>
		<path class="st2" d="M748.9,325.9l-113.4,12.2c-5,0.5-9.4-3.8-9.1-9.2l11.3-261.4c0-4.9,3.7-8.8,8.3-8.8L753,44.8
			c4.6,0,8.3,4,8.3,8.8l-4.2,263.4C757.2,322,753.5,325.9,748.9,325.9z"/>
		<path class="st3" d="M601.2,325.9l-88.6,12.2c-3.9,0.5-7.3-3.8-7.1-9.2l8.8-261.4c0-4.9,2.9-8.8,6.5-8.8l83.6-13.9
			c3.6,0,6.5,4,6.5,8.8l-3.2,263.4C607.7,322,604.8,325.9,601.2,325.9z"/>
		<path class="st4" d="M821,337l-99.1,12.2c-4.4,0.5-8.2-3.8-8-9.2l9.9-261.4c0-4.9,3.3-8.8,7.3-8.8l93.6-13.9c4,0,7.3,4,7.3,8.8
			l-3.6,263.4C828.3,333.1,825,337,821,337z"/>
		<path class="st5" d="M687.8,295.6l82.9,10.4c3.7,0.5,6.8-3.3,6.7-7.9l-8.3-222.8c0-4.2-2.7-7.5-6.1-7.5l-78.3-11.9
			c-3.4,0-6.1,3.4-6.1,7.5l3,224.6C681.7,292.2,684.4,295.6,687.8,295.6z"/>
		<path class="st5" d="M503.2,344.7l82.9,10.4c3.7,0.5,6.8-3.3,6.7-7.9l-8.3-222.8c0-4.2-2.7-7.5-6.1-7.5L500.2,105
			c-3.4,0-6.1,3.4-6.1,7.5l3,224.6C497.2,341.3,499.9,344.7,503.2,344.7z"/>
		<path class="st6" d="M580.3,343.1l82.9,12c3.7,0.5,6.8-3.8,6.7-9.1l-8.3-257.2c0-4.8-2.7-8.7-6.1-8.7l-78.3-13.7
			c-3.4,0-6.1,3.9-6.1,8.7l3,259.2C574.2,339.2,577,343.1,580.3,343.1z"/>
		<path class="st7" d="M534.5,287.3l105.4,12c4.7,0.5,8.7-3.8,8.5-9.1L638,33.1c0-4.8-3.5-8.7-7.7-8.7l-99.6-13.7
			c-4.3,0-7.7,3.9-7.7,8.7l3.9,259.2C526.8,283.4,530.3,287.3,534.5,287.3z"/>
		<path class="st8" d="M704.4,306.5l-86.5,12.2c-3.8,0.5-7.1-3.8-7-9.2l8.6-261.4c0-4.9,2.8-8.8,6.3-8.8l81.6-13.9
			c3.5,0,6.3,4,6.3,8.8l-3.2,263.4C710.7,302.5,707.9,306.5,704.4,306.5z"/>
	</g>
	<g>
		<path class="st2" d="M1038.7,323.9l-113.4,12.2c-5,0.5-9.4-3.8-9.1-9.2l11.3-261.4c0-4.9,3.7-8.8,8.3-8.8l107.1-13.9
			c4.6,0,8.3,4,8.3,8.8l-4.2,263.4C1047,320,1043.2,323.9,1038.7,323.9z"/>
		<path class="st3" d="M891,323.9l-88.6,12.2c-3.9,0.5-7.3-3.8-7.1-9.2l8.8-261.4c0-4.9,2.9-8.8,6.5-8.8l83.6-13.9
			c3.6,0,6.5,4,6.5,8.8l-3.2,263.4C897.5,320,894.6,323.9,891,323.9z"/>
		<path class="st4" d="M1110.8,335l-99.1,12.2c-4.4,0.5-8.2-3.8-8-9.2l9.9-261.4c0-4.9,3.3-8.8,7.3-8.8l93.6-13.9c4,0,7.3,4,7.3,8.8
			l-3.6,263.4C1118.1,331,1114.8,335,1110.8,335z"/>
		<path class="st5" d="M977.6,293.5l82.9,10.4c3.7,0.5,6.8-3.3,6.7-7.9l-8.3-222.8c0-4.2-2.7-7.5-6.1-7.5l-78.3-11.9
			c-3.4,0-6.1,3.4-6.1,7.5l3,224.6C971.5,290.2,974.2,293.5,977.6,293.5z"/>
		<path class="st5" d="M793,342.7l82.9,10.4c3.7,0.5,6.8-3.3,6.7-7.9l-8.3-222.8c0-4.2-2.7-7.5-6.1-7.5L790,103
			c-3.4,0-6.1,3.4-6.1,7.5l3,224.6C787,339.3,789.7,342.7,793,342.7z"/>
		<path class="st6" d="M870.1,341l82.9,12c3.7,0.5,6.8-3.8,6.7-9.1l-8.3-257.2c0-4.8-2.7-8.7-6.1-8.7l-78.3-13.7
			c-3.4,0-6.1,3.9-6.1,8.7l3,259.2C864,337.1,866.7,341,870.1,341z"/>
		<path class="st7" d="M824.3,285.3l105.4,12c4.7,0.5,8.7-3.8,8.5-9.1L927.8,31.1c0-4.8-3.5-8.7-7.7-8.7L820.5,8.7
			c-4.3,0-7.7,3.9-7.7,8.7l3.9,259.2C816.6,281.4,820.1,285.3,824.3,285.3z"/>
		<path class="st8" d="M994.2,304.5l-86.5,12.2c-3.8,0.5-7.1-3.8-7-9.2l8.6-261.4c0-4.9,2.8-8.8,6.3-8.8l81.6-13.9
			c3.5,0,6.3,4,6.3,8.8l-3.2,263.4C1000.5,300.5,997.7,304.5,994.2,304.5z"/>
	</g>
	<g>
		<path class="st2" d="M1330.2,315.2l-113.4,12.2c-5,0.5-9.4-3.8-9.1-9.2L1219,56.8c0-4.9,3.7-8.8,8.3-8.8l107.1-13.9
			c4.6,0,8.3,4,8.3,8.8l-4.2,263.4C1338.5,311.2,1334.8,315.2,1330.2,315.2z"/>
		<path class="st3" d="M1182.6,315.2l-88.6,12.2c-3.9,0.5-7.3-3.8-7.1-9.2l8.8-261.4c0-4.9,2.9-8.8,6.5-8.8l83.6-13.9
			c3.6,0,6.5,4,6.5,8.8l-3.2,263.4C1189.1,311.2,1186.1,315.2,1182.6,315.2z"/>
		<path class="st4" d="M1402.4,326.3l-99.1,12.2c-4.4,0.5-8.2-3.8-8-9.2l9.9-261.4c0-4.9,3.3-8.8,7.3-8.8l93.6-13.9
			c4,0,7.3,4,7.3,8.8l-3.6,263.4C1409.6,322.3,1406.4,326.3,1402.4,326.3z"/>
		<path class="st5" d="M1269.1,284.8l82.9,10.4c3.7,0.5,6.8-3.3,6.7-7.9l-8.3-222.8c0-4.2-2.7-7.5-6.1-7.5l-78.3-11.9
			c-3.4,0-6.1,3.4-6.1,7.5l3,224.6C1263,281.4,1265.8,284.8,1269.1,284.8z"/>
		<path class="st5" d="M1084.6,333.9l82.9,10.4c3.7,0.5,6.8-3.3,6.7-7.9l-8.3-222.8c0-4.2-2.7-7.5-6.1-7.5l-78.3-11.9
			c-3.4,0-6.1,3.4-6.1,7.5l3,224.6C1078.5,330.5,1081.2,333.9,1084.6,333.9z"/>
		<path class="st6" d="M1161.6,332.3l82.9,12c3.7,0.5,6.8-3.8,6.7-9.1L1243,78.1c0-4.8-2.7-8.7-6.1-8.7l-78.3-13.7
			c-3.4,0-6.1,3.9-6.1,8.7l3,259.2C1155.6,328.4,1158.3,332.3,1161.6,332.3z"/>
		<path class="st7" d="M1115.9,276.6l105.4,12c4.7,0.5,8.7-3.8,8.5-9.1l-10.5-257.2c0-4.8-3.5-8.7-7.7-8.7L1112,0
			c-4.3,0-7.7,3.9-7.7,8.7l3.9,259.2C1108.2,272.7,1111.6,276.6,1115.9,276.6z"/>
		<path class="st8" d="M1285.7,295.7l-86.5,12.2c-3.8,0.5-7.1-3.8-7-9.2l8.6-261.4c0-4.9,2.8-8.8,6.3-8.8l81.6-13.9
			c3.5,0,6.3,4,6.3,8.8l-3.2,263.4C1292.1,291.8,1289.2,295.7,1285.7,295.7z"/>
	</g>
	<g>
		<path class="st2" d="M1572.9,315.1l-113.4,12.2c-5,0.5-9.4-3.8-9.1-9.2l11.3-261.4c0-4.9,3.7-8.8,8.3-8.8l107.1-13.9
			c4.6,0,8.3,4,8.3,8.8l-4.2,263.4C1581.2,311.1,1577.5,315.1,1572.9,315.1z"/>
		<path class="st3" d="M1425.3,315.1l-88.6,12.2c-3.9,0.5-7.3-3.8-7.1-9.2l8.8-261.4c0-4.9,2.9-8.8,6.5-8.8l83.6-13.9
			c3.6,0,6.5,4,6.5,8.8l-3.2,263.4C1431.8,311.1,1428.9,315.1,1425.3,315.1z"/>
		<path class="st4" d="M1645.1,326.1l-99.1,12.2c-4.4,0.5-8.2-3.8-8-9.2l9.9-261.4c0-4.9,3.3-8.8,7.3-8.8l93.6-13.9
			c4,0,7.3,4,7.3,8.8l-3.6,263.4C1652.3,322.2,1649.1,326.1,1645.1,326.1z"/>
		<path class="st5" d="M1511.8,284.7l82.9,10.4c3.7,0.5,6.8-3.3,6.7-7.9l-8.3-222.8c0-4.2-2.7-7.5-6.1-7.5L1508.8,45
			c-3.4,0-6.1,3.4-6.1,7.5l3,224.6C1505.8,281.3,1508.5,284.7,1511.8,284.7z"/>
		<path class="st5" d="M1327.3,333.8l82.9,10.4c3.7,0.5,6.8-3.3,6.7-7.9l-8.3-222.8c0-4.2-2.7-7.5-6.1-7.5l-78.3-11.9
			c-3.4,0-6.1,3.4-6.1,7.5l3,224.6C1321.2,330.4,1324,333.8,1327.3,333.8z"/>
		<path class="st6" d="M1404.4,332.2l82.9,12c3.7,0.5,6.8-3.8,6.7-9.1L1485.7,78c0-4.8-2.7-8.7-6.1-8.7l-78.3-13.7
			c-3.4,0-6.1,3.9-6.1,8.7l3,259.2C1398.3,328.3,1401,332.2,1404.4,332.2z"/>
		<path class="st7" d="M1358.6,276.5l105.4,12c4.7,0.5,8.7-3.8,8.5-9.1L1462,22.2c0-4.8-3.5-8.7-7.7-8.7l-99.6-13.7
			c-4.3,0-7.7,3.9-7.7,8.7l3.9,259.2C1350.9,272.6,1354.3,276.5,1358.6,276.5z"/>
		<path class="st8" d="M1528.4,295.6l-86.5,12.2c-3.8,0.5-7.1-3.8-7-9.2l8.6-261.4c0-4.9,2.8-8.8,6.3-8.8l81.6-13.9
			c3.5,0,6.3,4,6.3,8.8l-3.2,263.4C1534.8,291.6,1531.9,295.6,1528.4,295.6z"/>
	</g>
</g>
</svg>
