<?xml version="1.0" encoding="utf-8"?>
<!-- Generator: Adobe Illustrator 22.1.0, SVG Export Plug-In . SVG Version: 6.00 Build 0)  -->
<svg version="1.1" id="Layer_1" xmlns="http://www.w3.org/2000/svg" xmlns:xlink="http://www.w3.org/1999/xlink" x="0px" y="0px"
	 viewBox="0 0 1200 192" style="enable-background:new 0 0 1200 192;" xml:space="preserve">
<style type="text/css">
	.st0{fill:#00B0B3;}
</style>
<path class="st0" d="M1192.6,38.2c-2.6-5.2-9-7.3-14.1-4.6c-3.9,2-6.1,6.1-5.7,10.2L1069,96.2l30.4-37.7c4,1.2,8.4-0.1,11.2-3.5
	c3.6-4.5,2.9-11.2-1.6-14.8c-4.5-3.6-11.2-2.9-14.8,1.6c-2.8,3.4-3,8-1,11.7l-36.8,45.6l-4.5-75.3c3.7-1.8,6.2-5.7,5.9-10.1
	c-0.3-5.8-5.3-10.2-11.1-9.9s-10.2,5.3-9.9,11.1c0.3,4.4,3.2,8,7.1,9.3l4.2,70.8l-31.7-31.5c1.6-3.8,0.8-8.4-2.3-11.5
	c-4.1-4.1-10.8-4.1-14.9,0c-4.1,4.1-4.1,10.8,0,14.9c3.1,3.1,7.7,3.8,11.5,2.2l32.4,32.2H11v8h1031.6l-29,14.7
	c-3.1-2.7-7.7-3.4-11.6-1.4c-5.2,2.6-7.3,9-4.6,14.1c2.6,5.2,9,7.3,14.1,4.6c3.9-2,6.1-6.1,5.7-10.2l22.4-11.3l-15.2,18.9
	c-4-1.2-8.4,0.1-11.2,3.5c-3.6,4.5-2.9,11.2,1.6,14.8c4.5,3.6,11.2,2.9,14.8-1.6c2.8-3.4,3-8,1-11.7l19.2-23.8l2.6,43.7
	c-3.7,1.8-6.2,5.7-5.9,10.1c0.3,5.8,5.3,10.2,11.1,9.9s10.2-5.3,9.9-11.1c-0.3-4.4-3.2-8-7.1-9.3l-2.9-47.8l42.2,42
	c-1.6,3.8-0.8,8.4,2.3,11.5c4.1,4.1,10.8,4.1,14.9,0c4.1-4.1,4.1-10.8,0-14.9c-3.1-3.1-7.7-3.8-11.5-2.2l-43.4-43.1l114.5-57.9
	c3.1,2.7,7.7,3.4,11.6,1.4C1193.2,49.7,1195.2,43.4,1192.6,38.2z"/>
</svg>
