<?xml version="1.0" encoding="utf-8"?>
<!-- Generator: Adobe Illustrator 22.1.0, SVG Export Plug-In . SVG Version: 6.00 Build 0)  -->
<svg version="1.1" id="Layer_1" xmlns="http://www.w3.org/2000/svg" xmlns:xlink="http://www.w3.org/1999/xlink" x="0px" y="0px"
	 viewBox="0 0 500 500" style="enable-background:new 0 0 500 500;" xml:space="preserve">
<style type="text/css">
	.st0{fill:#DA5C5C;}
	.st1{fill:#C6943B;}
	.st2{fill:#48392A;}
	.st3{fill:none;stroke:#48392A;stroke-width:3;stroke-miterlimit:10;}
	.st4{fill:#404041;}
	.st5{fill:#FBF2C0;}
</style>
<rect x="-12.5" y="-16" class="st0" width="524.5" height="523.6"/>
<path class="st1" d="M392.8,72.4H-12.5v81h382.8V347h-79.1l13.2-36.5c-35.4,30.8-92.5,60-138.5,77c46,17.1,103.1,46.2,138.5,77
	L291.3,428h101.6c32.8,0,58.5-22.9,58.5-52.1V124.5C451.4,95.3,425.7,72.4,392.8,72.4z"/>
<g>
	<g>
		<path class="st2" d="M415.3,194.4c-19.8,0-46.5-3.1-70.5-7.1c-48.7-8.1-91.9-20.4-110-31.3c-7.4-4.4-10.8-8.6-10.6-12.7
			c0-1.3,0.8-29,23.9-46.9c22-17.1,56.4-19.8,102.2-8.2c30.3,7.7,54.2,17.4,70.9,28.9c13.9,9.5,23,20.3,27.2,32
			c5.8,16.5,0.4,32.3-6,40.8l-0.1,0.2l-0.2,0.1C437.3,193.2,427.6,194.4,415.3,194.4z M300.3,83.8c-21.1,0-38,4.9-50.6,14.7
			c-22.5,17.4-22.9,44.6-22.9,44.9l0,0.1c-0.2,3,3,6.5,9.3,10.3c17.9,10.7,60.7,22.9,109.1,30.9c48,8,85.2,9.4,95.1,3.5
			c1.9-2.5,12.5-18.3,5.5-38.2c-6.1-17.4-27.8-41.8-96.3-59.2C331.3,86.1,314.8,83.8,300.3,83.8z"/>
	</g>
	<g>
		<path class="st2" d="M383,263.8l-0.7-0.7c-40.6-40.2-160-86.7-161.2-87.1l0.9-2.4c1.2,0.5,119.7,46.6,161.4,87
			c31.7-18.6,52.4-52.6,52.6-53l2.2,1.4c-0.2,0.4-21.7,35.5-54.4,54.4L383,263.8z"/>
	</g>
	<g>
		<path class="st2" d="M398.8,239.8c-54.5,0-98.4-10-127.5-19.2c-38-12.1-59.6-25.8-59.8-25.9l-0.3-0.2l-0.2-0.3
			c-2.6-5-3.3-9.7-1.9-13.8c2-5.9,7.3-8.5,7.5-8.6l1.1,2.4c0,0-4.6,2.3-6.1,7.1c-1.1,3.3-0.6,7.2,1.6,11.4
			c2.7,1.7,23.7,14.2,59,25.5c34.8,11.1,90.9,23.2,161.2,17.7c10.4-4.5,6.1-27,6-27.2l2.6-0.5c0.2,1,4.8,25.1-7.8,30.2l-0.2,0.1
			l-0.2,0C421.7,239.4,410.1,239.8,398.8,239.8z"/>
	</g>
	<g>
		<path class="st2" d="M364.3,129.1l-6.3-3.7L424.2,55l0.3,13.3L364.3,129.1z M362.1,124.8l1.7,1l58-58.6l-0.1-5.8L362.1,124.8z"/>
	</g>
	<g>
		<path class="st2" d="M386.4,147.3c-43.2-42.7-87.3-36-87.8-36l-0.4-2.6c0.5-0.1,11.6-1.9,28.3,1.8c15.4,3.3,38.6,12.1,61.7,34.9
			L386.4,147.3z"/>
	</g>
	<g>
		<path class="st3" d="M244.6,218.4"/>
	</g>
	<g>
		<path class="st2" d="M390.9,272.7c-77.9,0-173.7-38.9-178.8-44.5c-5.6-6.1,2.6-29.7,3.6-32.3l2.5,0.9c-3.4,9.5-7.5,25.9-4.1,29.7
			c2.3,2.5,30,14.8,67.3,25.6c33,9.6,81.2,20.5,123.7,17.6c23-1.6,24.3-14,24.4-14.6l0-0.1l3.1-18l2.6,0.4l-3.1,18
			c-0.1,1.3-2.1,15.2-26.8,16.9C400.5,272.5,395.7,272.7,390.9,272.7z"/>
	</g>
	<g>
		<path class="st2" d="M399,206.6c-4.8,0-10-0.3-15.5-0.9c-113-14.5-157.1-42.2-157.5-42.5l-0.8-0.5l3.8-12l2.5,0.8l-3.2,10
			c6.6,3.8,51.8,28.2,155.5,41.5c26.4,3.1,44.8-2.8,48.6-4.2l0.6-7.4l2.6,0.2l-0.7,9.1l-0.7,0.3C433.5,201.3,420.3,206.6,399,206.6z
			"/>
	</g>
	<g>
		<path class="st2" d="M392.5,234c-2.8,0-6.4-3.3-7.2-6.6c-0.5-2.1-0.7-2.2-5.4-3.7c-1.8-0.6-4.2-1.3-7.4-2.5
			c-3.4-1.3-4.5-1.2-4.8-1c-0.2,0.1-0.4,0.6-0.6,1.2c-0.6,1.9-1.6,4.6-6.9,6.2c-3,0.9-5,0.9-6.4,0.1c-1.6-1-2.1-2.8-2.5-4.5
			c-0.4-1.9-0.9-3.9-2.8-5.5c-5.2-4.1-20.2-2.1-25.4-0.2c-4.4,1.6-5.7-0.9-7.2-3.9c-1-1.9-2.2-4.2-4.4-6.9
			c-5.6-6.6-7.6-7.5-16.4-2.3c-6.3,3.8-11.8,0-17.2-3.6c-3.2-2.2-6.5-4.4-10.2-5.3c-5.2-1.3-6.4-2.6-6.8-5c-0.2-1.1-0.4-2.1-3.7-3.7
			c-1.6-0.8-2.7-1.1-3.3-1.2c-0.4,0.8-1,1-1.3,1.1c-0.7,0.1-1.4-0.2-1.7-0.9c-0.3-0.6-0.3-1.3,0.1-1.8c-1.2,0-3.4,0.5-4.8,0.9
			c-0.9,0.2-1.9,0.4-2.8,0.6c-6,1.2-7.8-3.1-10-8.6c-1.6-3.8-2.4-3.7-9.7-1.3l-1.7,0.6c-3.1,1-4.5,1.3-5.5,0.4
			c-0.9-0.8-0.6-2.1-0.3-3.5c0.4-1.6,1-4.1,0.3-7.3c-1-4.8-6.2-5.7-10.7-6.5c-2.4-0.4-4.5-0.8-5.8-1.8c-1.5-1.1-1.4-2.6-0.7-3.5
			c1.9-2.6,9.7-3.6,14.9,0.2c5.8,4.3,13.2,4,13.2,3.9l0.1,2.6c-0.3,0-8.3,0.4-14.9-4.5c-2.9-2.2-6.7-2.3-9.1-1.8
			c-1.2,0.3-1.8,0.7-2.1,0.9c0,0,0,0,0,0c0.8,0.6,2.7,0.9,4.7,1.3c4.8,0.9,11.4,2,12.8,8.6c0.8,3.8,0.1,6.7-0.3,8.5
			c-0.1,0.2-0.1,0.5-0.2,0.7c0.5-0.1,1.3-0.3,2.6-0.7l1.7-0.6c6.9-2.3,10.4-3.4,12.9,2.8c2.4,5.8,3.4,7.8,7,7.1
			c0.9-0.2,1.8-0.4,2.7-0.6c3.6-0.9,6.5-1.5,8-0.2c0.2,0.2,0.4,0.4,0.6,0.8c1.2,0.2,2.6,0.7,4.4,1.5c4.2,2,4.8,3.8,5.2,5.5
			c0.2,1,0.3,1.8,4.9,2.9c4.1,1,7.6,3.4,11,5.7c5.1,3.5,9.5,6.5,14.4,3.5c9.3-5.6,13-5.1,19.7,2.8c2.5,2.9,3.8,5.5,4.8,7.4
			c1.6,3.1,1.9,3.5,4,2.7c5.5-2.1,21.7-4.4,28,0.6c2.7,2.1,3.3,4.8,3.8,6.9c0.4,1.5,0.6,2.5,1.2,2.9c0.5,0.3,1.7,0.5,4.4-0.3
			c4-1.2,4.6-2.9,5.1-4.5c0.3-1,0.7-2.1,1.9-2.7c1.3-0.6,3.3-0.4,6.8,0.9c3.1,1.1,5.4,1.9,7.3,2.5c4.8,1.5,6.4,2,7.2,5.7
			c0.5,2.2,3.2,4.6,4.7,4.6c0.2,0,0.6,0,0.7-1.2c0.2-1.7-0.4-3.5-0.9-5c-0.6-1.7-1-3.2,0-4.1c1-0.9,2.5-0.6,4.6,0.3
			c4.1,1.7,4.3,4.5,4.5,6.1c0,0.3,0.1,0.9,0.1,1c0,0,0.1,0,0.4,0c0.3,0,0.7,0,1.2-0.1c3.2-0.6,5.5-1.8,6.5-3.4
			c0.6-1,0.8-2.1,0.5-3.3c-0.8-3,0.1-4.7,0.9-5.7c1.4-1.5,3.8-2.1,7.1-1.6c3.4,0.5,5.3,0.4,6.2-0.3c0.3-0.2,0.7-0.7,0.8-1.9
			c0.1-0.6,0-1.2,0-1.8c0-1.4-0.1-2.9,1.1-3.8c1-0.9,2.7-1.1,5.5-0.6c1,0.2,2,0.3,2.9,0.5c7.6,1.2,11,1.6,12.9-1.5
			c1.3-2,2.9-3.2,3.9-3.9c0,0,0.1-0.1,0.1-0.1c-0.4-0.2-0.9-0.5-1.8-0.8c-6.2-2.6-6.8-3.6-7.5-6.3c-0.1-0.2-0.1-0.4-0.2-0.6
			c-0.5-1.7-3.4-1.8-3.4-1.8l0-2.6c0.2,0,4.8,0.1,5.8,3.7c0.1,0.2,0.1,0.5,0.2,0.7c0.5,1.8,0.7,2.4,6,4.6c2.7,1.1,3.8,1.8,3.9,3
			c0.1,1.2-0.8,1.8-1.7,2.5c-0.9,0.7-2.2,1.6-3.2,3.2c-3,4.7-8,3.9-15.6,2.6c-0.9-0.1-1.9-0.3-2.9-0.5c-2.7-0.4-3.3,0-3.4,0
			c-0.2,0.2-0.2,1.1-0.2,1.8c0,0.6,0,1.3,0,2c-0.1,1.7-0.7,2.9-1.8,3.8c-1.5,1.2-4,1.5-8.2,0.8c-2.3-0.4-4.1-0.1-4.8,0.7
			c-0.7,0.8-0.6,2.2-0.3,3.3c0.5,1.9,0.2,3.8-0.8,5.4c-1.5,2.3-4.3,3.8-8.3,4.5c-1.8,0.3-3,0.2-3.8-0.4c-1-0.7-1-1.9-1.1-2.8
			c-0.1-1.5-0.2-2.8-2.9-3.9c-0.7-0.3-1.1-0.4-1.4-0.5c0.1,0.4,0.2,0.8,0.3,1.1c0.5,1.6,1.3,3.9,1,6.1c-0.3,2.1-1.5,3.3-3.2,3.4
			C392.6,234,392.6,234,392.5,234z M251.5,184.4C251.5,184.4,251.5,184.4,251.5,184.4C251.5,184.4,251.5,184.4,251.5,184.4z"/>
	</g>
</g>
<g>
	<g>
		<path class="st4" d="M98.6,189.3c0,7.1-3.4,13.1-10.2,17.9c-6.8,4.8-14.8,7.2-23.8,7.2c-7,0-13-1.5-17.8-4.5
			c-4.9-3-7.3-5.9-7.3-8.6c1.4-3.4,4-7,7.9-10.8s7.4-5.9,10.7-6.1c2.1,0.9,4.1,3.3,6,7c1.8,3.7,3.3,8.1,4.4,13c4.6-0.2,7-2.8,7-7.9
			c0-3.4-1.3-7.5-3.8-12.3c-2.5-4.9-5.3-9.4-8.3-13.6c-3-4.2-5.8-8.9-8.3-14c-2.5-5.2-3.8-9.7-3.8-13.5c0-6.4,2.9-11.6,8.8-15.6
			c5.8-4,12.3-6.1,19.5-6.1c7.2,0,12.8,1.5,16.8,4.6c4,3.1,6,6.7,6,10.7c0,3.4-0.7,6-2.1,8.1c-1.4,2-2.5,3.6-3.3,4.6
			c-0.8,1.1-1.9,2.2-3.3,3.4c-2.6,2.2-4.6,3.9-5.9,4.9l-1.9,1.4c5.1,6.3,8.9,13.6,11.5,21.9C98.1,184,98.6,186.8,98.6,189.3z
			 M91.9,137.6c0-4-2.6-6.1-7.7-6.1c-3,0-5.4,0.6-7.3,1.9c-1.8,1.3-2.8,2.9-2.8,4.8c0,1.9,0.8,4.3,2.4,7c1.6,2.8,2.9,4.7,3.8,5.8
			c2.1-1,4.5-2.9,7.3-5.7C90.5,142.7,91.9,140.1,91.9,137.6z"/>
		<path class="st4" d="M104.5,189.5c0-10.7,3.2-18.9,9.7-24.9c6.5-5.9,14.5-8.9,24-8.9c6.6,0,11.9,1.4,15.9,4.3c4,2.9,6,6.7,6,11.5
			c0,3.5-1.1,6.7-3.2,9.4c-2.1,2.8-4.8,4.9-7.9,6.3c-6.5,2.9-12.2,4.7-17,5.3l-3.2,0.4c0.9,5.7,3.8,8.5,8.5,8.5
			c2.1,0,4.3-0.5,6.8-1.4c2.5-0.9,4.5-1.8,5.9-2.8l2.2-1.3l4.1,5.5L155,203c-0.5,0.5-1.7,1.5-3.7,3c-1.9,1.5-4,2.8-6.1,3.9
			c-2.1,1.1-4.8,2.1-8.1,3c-3.3,0.9-6.5,1.4-9.8,1.4c-7.3,0-13-2.1-16.9-6.4C106.5,203.8,104.5,197.6,104.5,189.5z M135.8,178.4
			c2.5-3.7,3.7-6.9,3.7-9.4c0-2.5-0.7-3.8-2.2-3.8c-2.1,0-4.1,1.7-5.9,5c-1.8,3.4-2.8,8.1-3.1,14.3
			C130.8,184.1,133.3,182.1,135.8,178.4z"/>
		<path class="st4" d="M160.7,189.5c0-10.7,3.2-18.9,9.7-24.9c6.5-5.9,14.5-8.9,24-8.9c6.6,0,11.9,1.4,15.9,4.3c4,2.9,6,6.7,6,11.5
			c0,3.5-1.1,6.7-3.2,9.4c-2.1,2.8-4.8,4.9-7.9,6.3c-6.5,2.9-12.2,4.7-17,5.3L185,193c0.9,5.7,3.8,8.5,8.5,8.5
			c2.1,0,4.3-0.5,6.8-1.4c2.5-0.9,4.5-1.8,5.9-2.8l2.2-1.3l4.1,5.5l-1.4,1.4c-0.5,0.5-1.7,1.5-3.7,3c-1.9,1.5-4,2.8-6.1,3.9
			c-2.1,1.1-4.8,2.1-8.1,3c-3.3,0.9-6.5,1.4-9.8,1.4c-7.3,0-13-2.1-16.9-6.4C162.7,203.8,160.7,197.6,160.7,189.5z M192,178.4
			c2.5-3.7,3.7-6.9,3.7-9.4c0-2.5-0.7-3.8-2.2-3.8c-2.1,0-4.1,1.7-5.9,5c-1.8,3.4-2.8,8.1-3.1,14.3C187,184.1,189.5,182.1,192,178.4
			z"/>
		<path class="st4" d="M70.9,241.8l30.4,0.8c4.4,0,7.8-0.1,10.2-0.3c0.3,1.5,0.4,3.4,0.4,5.7c0,2.2-0.6,4-1.8,5.2
			c-1.2,1.2-3.3,1.8-6.3,1.8L84,253.4c-1.3,0-2.4,0-3.2,0.1c-0.2,3.3-2,12.8-5.4,28.6c4.9-0.4,9.8-0.6,14.7-0.6
			c4.9,0,8.5,0.4,10.7,1.2c-0.3,4-1.2,7.1-2.4,9.5l-0.6,1.3c-2.4-0.8-6.1-1.2-11-1.2c-4.9,0-9.5,0.2-13.6,0.5
			c-3.2,15.4-4.8,27.2-4.8,35.4v1.8c-4.6,2.2-12.5,3.4-24,3.4h-1.4c0-7.6,1.9-20.3,5.7-38.1c3.8-17.9,6.1-30.4,6.8-37.5
			c0-1.7-0.5-3.5-1.4-5.3c-0.9-1.8-1.9-3.3-2.8-4.3l-1.4-1.4l0.3-3C56.4,242.4,63.3,241.8,70.9,241.8z"/>
		<path class="st4" d="M107.2,304.4c2.3-8.2,3.4-13.3,3.4-15.2c0-1.9-1.5-4.6-4.6-8.2l0.3-1.9c7.8-1.7,17-2.6,27.4-2.6
			c0.7,1.5,1,3.8,1,7c0,3.2-1.2,9.2-3.5,18c-2.4,8.8-3.5,14.1-3.5,15.7c0,2.2,1.1,3.4,3.2,3.4c1.5,0,3.3-0.6,5.5-1.7
			c0.3-1.4,1-5,2.3-10.8c3-13,4.5-22.7,4.5-29.1c4-1.7,10.7-2.6,20.2-2.6h3.5c0,3.9-1.1,11.4-3.4,22.7c-2.3,11.3-3.4,17.7-3.5,19.5
			c0,1.7,0.3,2.6,1.1,2.6l6.3-1.7l2.3,6.4c-2.5,2-6.1,3.9-10.8,5.7c-4.7,1.8-8.9,2.7-12.5,2.7c-5.3,0-8.6-2.1-9.9-6.4
			c-7.1,4.3-14,6.4-20.5,6.4c-8.2,0-12.2-4-12.2-12C103.7,318.6,104.9,312.7,107.2,304.4z"/>
		<path class="st4" d="M196.9,331.6c-4.5,1.7-8.5,2.6-12.2,2.6c-3.7,0-6.6-1.1-9-3.2c-2.3-2.1-3.5-5.1-3.5-9.1c0-4,2.2-15,6.5-33.1
			c4.3-18.1,6.5-31.5,6.5-40.3c0-1.9-0.3-4.3-0.8-7.2c8.1-2.2,15.9-3.4,23.5-3.4c0.8,1.4,1.2,3.6,1.2,6.7c0,5.8-2.2,18.6-6.5,38.2
			c-4.3,19.6-6.5,30.9-6.5,34c0,3,0.5,4.5,1.5,4.5c0.9,0,2.7-0.6,5.5-1.7l1.4-0.6l3.1,6.3C205,327.8,201.4,329.9,196.9,331.6z"/>
		<path class="st4" d="M235.2,331.6c-4.5,1.7-8.5,2.6-12.2,2.6c-3.7,0-6.6-1.1-9-3.2c-2.3-2.1-3.5-5.1-3.5-9.1c0-4,2.2-15,6.5-33.1
			c4.3-18.1,6.5-31.5,6.5-40.3c0-1.9-0.3-4.3-0.8-7.2c8.1-2.2,15.9-3.4,23.5-3.4c0.8,1.4,1.2,3.6,1.2,6.7c0,5.8-2.2,18.6-6.5,38.2
			c-4.3,19.6-6.5,30.9-6.5,34c0,3,0.5,4.5,1.5,4.5c0.9,0,2.7-0.6,5.5-1.7l1.4-0.6l3.1,6.3C243.2,327.8,239.6,329.9,235.2,331.6z"/>
		<path class="st4" d="M44.5,453.2h-1.5c0-5,2.4-18.2,7.2-39.6c4.8-21.4,7.2-33.2,7.2-35.4c0-3.6-1.3-7-4-10.3l-1.3-1.7l0.4-2.6
			c5.1-1.7,14.3-2.6,27.8-2.6c1.4,3.1,2.1,6.7,2.2,11c10.1-7.4,18.6-11.1,25.8-11.1c8.2,0,13,3.5,14.6,10.6
			c9.7-7,18.2-10.6,25.4-10.6c4.9,0,8.9,1.4,12,4.1s4.6,6.6,4.6,11.7c0,5.1-1.9,14.8-5.6,29.1c-3.7,14.3-5.6,24.5-5.6,30.5
			c0,2.2,0.5,3.4,1.4,3.4c1.8,0,4-0.5,6.6-1.5l2.7,7.3c-8,5.7-15.9,8.5-23.7,8.5c-3.7,0-6.7-1.1-8.9-3.3c-2.2-2.2-3.4-5.5-3.4-9.9
			c0-4.3,1.8-13.8,5.3-28.3c3.6-14.6,5.3-23.4,5.3-26.6c0-3.2-0.4-5.3-1.2-6.4c-0.8-1.1-2.3-1.6-4.5-1.6c-2.2,0-5.8,1.6-10.6,4.9
			c-0.6,4-1.9,10.4-4,19.2c-5.4,22.6-8.1,38.6-8.1,48.1c-4.2,2.2-11.5,3.4-21.8,3.4h-3.5c0-7.9,2-20.3,6.1-37.1
			c4-16.8,6.1-26.9,6.1-30.3c0-3.4-0.4-5.5-1.1-6.6c-0.7-1-2.2-1.5-4.5-1.5c-2.3,0-5.9,1.7-10.8,5c-0.8,4.3-2.4,11.4-4.8,21.4
			c-5.6,23.3-8.4,38.5-8.4,45.6C64.3,452.1,56.4,453.2,44.5,453.2z"/>
		<path class="st4" d="M168.7,429.1c0-10.7,3.2-18.9,9.7-24.9c6.5-5.9,14.5-8.9,24-8.9c6.6,0,11.9,1.4,15.9,4.3c4,2.9,6,6.7,6,11.5
			c0,3.5-1.1,6.7-3.2,9.4c-2.1,2.8-4.8,4.9-7.9,6.3c-6.5,2.9-12.2,4.7-17,5.3l-3.2,0.4c0.9,5.7,3.8,8.5,8.5,8.5
			c2.1,0,4.3-0.5,6.8-1.4c2.5-0.9,4.5-1.8,5.9-2.8l2.2-1.3l4.1,5.5l-1.4,1.4c-0.5,0.5-1.7,1.5-3.7,3c-1.9,1.5-4,2.8-6.1,3.9
			c-2.1,1.1-4.8,2.1-8.1,3c-3.3,0.9-6.5,1.4-9.8,1.4c-7.3,0-13-2.1-16.9-6.4S168.7,437.2,168.7,429.1z M200,417.9
			c2.5-3.7,3.7-6.9,3.7-9.4c0-2.5-0.7-3.8-2.2-3.8c-2.1,0-4.1,1.7-5.9,5c-1.8,3.3-2.8,8.1-3.1,14.3C195,423.7,197.5,421.7,200,417.9
			z"/>
		<path class="st4" d="M229,453.2h-2.2c0-5.3,1.2-13.4,3.7-24.2s3.7-17.1,3.7-18.7c0-1.6-0.4-3.2-1.2-4.8c-0.8-1.5-1.5-2.7-2.3-3.5
			l-1.2-1.2l0.3-1.9c5.1-1.6,13.9-2.4,26.5-2.4c0.9,2,1.5,4,1.8,6.2c7.8-4.8,14.4-7.2,19.7-7.2c3.6,0,6.4,1.2,8.5,3.5
			c2.1,2.4,3.1,5.2,3.1,8.5c0,3.3-0.9,8.6-2.8,15.9c-1.9,7.3-2.8,12-2.8,14.2s0.3,3.3,0.9,3.3l6.8-1.8l2.3,6.4
			c-2.8,2.1-6.3,4-10.8,5.7c-4.4,1.8-8.5,2.6-12.2,2.6c-7.3,0-11-3.8-11-11.3c0-3.3,0.9-8.6,2.7-16c1.8-7.4,2.7-12,2.7-13.9
			c0-1.8-0.6-2.8-1.8-2.8c-1.5,0-3.6,0.9-6.2,2.6c-0.3,1.5-1.2,5.3-2.6,11.2c-2.8,12.5-4.1,21.4-4.1,26.9
			C246.4,452.4,239.2,453.2,229,453.2z"/>
		<path class="st4" d="M301.6,424.2c2.3-8.2,3.4-13.3,3.4-15.2c0-1.9-1.5-4.6-4.6-8.2l0.3-1.9c7.8-1.7,17-2.6,27.4-2.6
			c0.7,1.5,1,3.8,1,7c0,3.2-1.2,9.2-3.5,18c-2.4,8.8-3.5,14.1-3.5,15.7c0,2.2,1.1,3.4,3.2,3.4c1.5,0,3.3-0.6,5.5-1.7
			c0.3-1.4,1-5,2.3-10.8c3-13,4.5-22.7,4.5-29.1c4-1.7,10.7-2.6,20.2-2.6h3.5c0,3.9-1.1,11.4-3.4,22.7c-2.3,11.3-3.4,17.7-3.5,19.5
			c0,1.7,0.3,2.6,1.1,2.6l6.3-1.7l2.3,6.4c-2.5,2-6.1,3.9-10.8,5.7c-4.7,1.8-8.9,2.7-12.5,2.7c-5.3,0-8.6-2.1-9.9-6.4
			c-7.1,4.3-14,6.4-20.5,6.4c-8.2,0-12.2-4-12.2-12C298.2,438.4,299.3,432.4,301.6,424.2z"/>
	</g>
	<g>
		<path class="st5" d="M106.5,184.7c0,7.1-3.4,13.1-10.2,17.9c-6.8,4.8-14.8,7.2-23.8,7.2c-7,0-13-1.5-17.8-4.5
			c-4.9-3-7.3-5.9-7.3-8.6c1.4-3.4,4-7,7.9-10.8s7.4-5.9,10.7-6.1c2.1,0.9,4.1,3.3,6,7c1.8,3.7,3.3,8.1,4.4,13c4.6-0.2,7-2.8,7-7.9
			c0-3.4-1.3-7.5-3.8-12.3c-2.5-4.9-5.3-9.4-8.3-13.6c-3-4.2-5.8-8.9-8.3-14c-2.5-5.2-3.8-9.7-3.8-13.5c0-6.4,2.9-11.6,8.8-15.6
			c5.8-4,12.3-6.1,19.5-6.1c7.2,0,12.8,1.5,16.8,4.6c4,3.1,6,6.7,6,10.7c0,3.4-0.7,6-2.1,8.1c-1.4,2-2.5,3.6-3.3,4.6
			c-0.8,1.1-1.9,2.2-3.3,3.4c-2.6,2.2-4.6,3.9-5.9,4.9l-1.9,1.4c5.1,6.3,8.9,13.6,11.5,21.9C106,179.5,106.5,182.2,106.5,184.7z
			 M99.8,133c0-4-2.6-6.1-7.7-6.1c-3,0-5.4,0.6-7.3,1.9c-1.8,1.3-2.8,2.9-2.8,4.8c0,1.9,0.8,4.3,2.4,7c1.6,2.8,2.9,4.7,3.8,5.8
			c2.1-1,4.5-2.9,7.3-5.7C98.3,138.2,99.8,135.5,99.8,133z"/>
		<path class="st5" d="M112.4,185c0-10.7,3.2-18.9,9.7-24.9c6.5-5.9,14.5-8.9,24-8.9c6.6,0,11.9,1.4,15.9,4.3c4,2.9,6,6.7,6,11.5
			c0,3.5-1.1,6.7-3.2,9.4c-2.1,2.8-4.8,4.9-7.9,6.3c-6.5,2.9-12.2,4.7-17,5.3l-3.2,0.4c0.9,5.7,3.8,8.5,8.5,8.5
			c2.1,0,4.3-0.5,6.8-1.4c2.5-0.9,4.5-1.8,5.9-2.8l2.2-1.3l4.1,5.5l-1.4,1.4c-0.5,0.5-1.7,1.5-3.7,3c-1.9,1.5-4,2.8-6.1,3.9
			c-2.1,1.1-4.8,2.1-8.1,3c-3.3,0.9-6.5,1.4-9.8,1.4c-7.3,0-13-2.1-16.9-6.4C114.4,199.2,112.4,193.1,112.4,185z M143.7,173.8
			c2.5-3.7,3.7-6.9,3.7-9.4c0-2.5-0.7-3.8-2.2-3.8c-2.1,0-4.1,1.7-5.9,5c-1.8,3.4-2.8,8.1-3.1,14.3
			C138.7,179.6,141.2,177.6,143.7,173.8z"/>
		<path class="st5" d="M168.6,185c0-10.7,3.2-18.9,9.7-24.9c6.5-5.9,14.5-8.9,24-8.9c6.6,0,11.9,1.4,15.9,4.3c4,2.9,6,6.7,6,11.5
			c0,3.5-1.1,6.7-3.2,9.4c-2.1,2.8-4.8,4.9-7.9,6.3c-6.5,2.9-12.2,4.7-17,5.3l-3.2,0.4c0.9,5.7,3.8,8.5,8.5,8.5
			c2.1,0,4.3-0.5,6.8-1.4c2.5-0.9,4.5-1.8,5.9-2.8l2.2-1.3l4.1,5.5l-1.4,1.4c-0.5,0.5-1.7,1.5-3.7,3c-1.9,1.5-4,2.8-6.1,3.9
			c-2.1,1.1-4.8,2.1-8.1,3c-3.3,0.9-6.5,1.4-9.8,1.4c-7.3,0-13-2.1-16.9-6.4C170.6,199.2,168.6,193.1,168.6,185z M199.9,173.8
			c2.5-3.7,3.7-6.9,3.7-9.4c0-2.5-0.7-3.8-2.2-3.8c-2.1,0-4.1,1.7-5.9,5c-1.8,3.4-2.8,8.1-3.1,14.3
			C194.9,179.6,197.4,177.6,199.9,173.8z"/>
		<path class="st5" d="M78.7,237.2l30.4,0.8c4.4,0,7.8-0.1,10.2-0.3c0.3,1.5,0.4,3.4,0.4,5.7c0,2.2-0.6,4-1.8,5.2
			c-1.2,1.2-3.3,1.8-6.3,1.8l-19.7-1.5c-1.3,0-2.4,0-3.2,0.1c-0.2,3.3-2,12.8-5.4,28.6c4.9-0.4,9.8-0.6,14.7-0.6
			c4.9,0,8.5,0.4,10.7,1.2c-0.3,4-1.2,7.1-2.4,9.5l-0.6,1.3c-2.4-0.8-6.1-1.2-11-1.2c-4.9,0-9.5,0.2-13.6,0.5
			c-3.2,15.4-4.8,27.2-4.8,35.4v1.8c-4.6,2.2-12.5,3.4-24,3.4h-1.4c0-7.6,1.9-20.3,5.7-38.1c3.8-17.9,6.1-30.4,6.8-37.5
			c0-1.7-0.5-3.5-1.4-5.3c-0.9-1.8-1.9-3.3-2.8-4.3l-1.4-1.4l0.3-3C64.2,237.9,71.2,237.2,78.7,237.2z"/>
		<path class="st5" d="M115,299.9c2.3-8.2,3.4-13.3,3.4-15.2c0-1.9-1.5-4.6-4.6-8.2l0.3-1.9c7.8-1.7,17-2.6,27.4-2.6
			c0.7,1.5,1,3.8,1,7c0,3.2-1.2,9.2-3.5,18c-2.4,8.8-3.5,14.1-3.5,15.7c0,2.2,1.1,3.4,3.2,3.4c1.5,0,3.3-0.6,5.5-1.7
			c0.3-1.4,1-5,2.3-10.8c3-13,4.5-22.7,4.5-29.1c4-1.7,10.7-2.6,20.2-2.6h3.5c0,3.9-1.1,11.4-3.4,22.7c-2.3,11.3-3.4,17.7-3.5,19.5
			c0,1.7,0.3,2.6,1.1,2.6l6.3-1.7l2.3,6.4c-2.5,2-6.1,3.9-10.8,5.7c-4.7,1.8-8.9,2.7-12.5,2.7c-5.3,0-8.6-2.1-9.9-6.4
			c-7.1,4.3-14,6.4-20.5,6.4c-8.2,0-12.2-4-12.2-12C111.6,314,112.7,308.1,115,299.9z"/>
		<path class="st5" d="M204.8,327.1c-4.5,1.7-8.5,2.6-12.2,2.6c-3.7,0-6.6-1.1-9-3.2c-2.3-2.1-3.5-5.1-3.5-9.1c0-4,2.2-15,6.5-33.1
			c4.3-18.1,6.5-31.5,6.5-40.3c0-1.9-0.3-4.3-0.8-7.2c8.1-2.2,15.9-3.4,23.5-3.4c0.8,1.4,1.2,3.6,1.2,6.7c0,5.8-2.2,18.6-6.5,38.2
			c-4.3,19.6-6.5,30.9-6.5,34c0,3,0.5,4.5,1.5,4.5c0.9,0,2.7-0.6,5.5-1.7l1.4-0.6l3.1,6.3C212.8,323.3,209.2,325.3,204.8,327.1z"/>
		<path class="st5" d="M243,327.1c-4.5,1.7-8.5,2.6-12.2,2.6c-3.7,0-6.6-1.1-9-3.2c-2.3-2.1-3.5-5.1-3.5-9.1c0-4,2.2-15,6.5-33.1
			c4.3-18.1,6.5-31.5,6.5-40.3c0-1.9-0.3-4.3-0.8-7.2c8.1-2.2,15.9-3.4,23.5-3.4c0.8,1.4,1.2,3.6,1.2,6.7c0,5.8-2.2,18.6-6.5,38.2
			c-4.3,19.6-6.5,30.9-6.5,34c0,3,0.5,4.5,1.5,4.5c0.9,0,2.7-0.6,5.5-1.7l1.4-0.6l3.1,6.3C251.1,323.3,247.5,325.3,243,327.1z"/>
		<path class="st5" d="M52.3,448.6h-1.5c0-5,2.4-18.2,7.2-39.6c4.8-21.4,7.2-33.2,7.2-35.4c0-3.6-1.3-7-4-10.3l-1.3-1.7l0.4-2.6
			c5.1-1.7,14.3-2.6,27.8-2.6c1.4,3.1,2.1,6.7,2.2,11c10.1-7.4,18.6-11.1,25.8-11.1c8.2,0,13,3.5,14.6,10.6
			c9.7-7,18.2-10.6,25.4-10.6c4.9,0,8.9,1.4,12,4.1s4.6,6.6,4.6,11.7c0,5.1-1.9,14.8-5.6,29.1c-3.7,14.3-5.6,24.5-5.6,30.5
			c0,2.2,0.5,3.4,1.4,3.4c1.8,0,4-0.5,6.6-1.5l2.7,7.3c-8,5.7-15.9,8.5-23.7,8.5c-3.7,0-6.7-1.1-8.9-3.3c-2.2-2.2-3.4-5.5-3.4-9.9
			c0-4.3,1.8-13.8,5.3-28.3c3.6-14.6,5.3-23.4,5.3-26.6c0-3.2-0.4-5.3-1.2-6.4c-0.8-1.1-2.3-1.6-4.5-1.6c-2.2,0-5.8,1.6-10.6,4.9
			c-0.6,4-1.9,10.4-4,19.2c-5.4,22.6-8.1,38.6-8.1,48.1c-4.2,2.2-11.5,3.4-21.8,3.4h-3.5c0-7.9,2-20.3,6.1-37.1
			c4-16.8,6.1-26.9,6.1-30.3c0-3.4-0.4-5.5-1.1-6.6c-0.7-1-2.2-1.5-4.5-1.5c-2.3,0-5.9,1.7-10.8,5c-0.8,4.3-2.4,11.4-4.8,21.4
			c-5.6,23.3-8.4,38.5-8.4,45.6C72.1,447.5,64.3,448.6,52.3,448.6z"/>
		<path class="st5" d="M176.5,424.5c0-10.7,3.2-18.9,9.7-24.9c6.5-5.9,14.5-8.9,24-8.9c6.6,0,11.9,1.4,15.9,4.3c4,2.9,6,6.7,6,11.5
			c0,3.5-1.1,6.7-3.2,9.4c-2.1,2.8-4.8,4.9-7.9,6.3c-6.5,2.9-12.2,4.7-17,5.3l-3.2,0.4c0.9,5.7,3.8,8.5,8.5,8.5
			c2.1,0,4.3-0.5,6.8-1.4c2.5-0.9,4.5-1.8,5.9-2.8l2.2-1.3l4.1,5.5l-1.4,1.4c-0.5,0.5-1.7,1.5-3.7,3c-1.9,1.5-4,2.8-6.1,3.9
			c-2.1,1.1-4.8,2.1-8.1,3c-3.3,0.9-6.5,1.4-9.8,1.4c-7.3,0-13-2.1-16.9-6.4S176.5,432.6,176.5,424.5z M207.9,413.4
			c2.5-3.7,3.7-6.9,3.7-9.4c0-2.5-0.7-3.8-2.2-3.8c-2.1,0-4.1,1.7-5.9,5c-1.8,3.3-2.8,8.1-3.1,14.3
			C202.9,419.2,205.4,417.1,207.9,413.4z"/>
		<path class="st5" d="M236.9,448.6h-2.2c0-5.3,1.2-13.4,3.7-24.2s3.7-17.1,3.7-18.7c0-1.6-0.4-3.2-1.2-4.8
			c-0.8-1.5-1.5-2.7-2.3-3.5l-1.2-1.2l0.3-1.9c5.1-1.6,13.9-2.4,26.5-2.4c0.9,2,1.5,4,1.8,6.2c7.8-4.8,14.4-7.2,19.7-7.2
			c3.6,0,6.4,1.2,8.5,3.5c2.1,2.4,3.1,5.2,3.1,8.5c0,3.3-0.9,8.6-2.8,15.9c-1.9,7.3-2.8,12-2.8,14.2s0.3,3.3,0.9,3.3l6.8-1.8
			l2.3,6.4c-2.8,2.1-6.3,4-10.8,5.7c-4.4,1.8-8.5,2.6-12.2,2.6c-7.3,0-11-3.8-11-11.3c0-3.3,0.9-8.6,2.7-16c1.8-7.4,2.7-12,2.7-13.9
			c0-1.8-0.6-2.8-1.8-2.8c-1.5,0-3.6,0.9-6.2,2.6c-0.3,1.5-1.2,5.3-2.6,11.2c-2.8,12.5-4.1,21.4-4.1,26.9
			C254.3,447.8,247.1,448.6,236.9,448.6z"/>
		<path class="st5" d="M309.5,419.6c2.3-8.2,3.4-13.3,3.4-15.2c0-1.9-1.5-4.6-4.6-8.2l0.3-1.9c7.8-1.7,17-2.6,27.4-2.6
			c0.7,1.5,1,3.8,1,7c0,3.2-1.2,9.2-3.5,18c-2.4,8.8-3.5,14.1-3.5,15.7c0,2.2,1.1,3.4,3.2,3.4c1.5,0,3.3-0.6,5.5-1.7
			c0.3-1.4,1-5,2.3-10.8c3-13,4.5-22.7,4.5-29.1c4-1.7,10.7-2.6,20.2-2.6h3.5c0,3.9-1.1,11.4-3.4,22.7c-2.3,11.3-3.4,17.7-3.5,19.5
			c0,1.7,0.3,2.6,1.1,2.6l6.3-1.7l2.3,6.4c-2.5,2-6.1,3.9-10.8,5.7c-4.7,1.8-8.9,2.7-12.5,2.7c-5.3,0-8.6-2.1-9.9-6.4
			c-7.1,4.3-14,6.4-20.5,6.4c-8.2,0-12.2-4-12.2-12C306,433.8,307.2,427.9,309.5,419.6z"/>
	</g>
</g>
</svg>
