<?xml version="1.0" encoding="utf-8"?>
<!-- Generator: Adobe Illustrator 22.1.0, SVG Export Plug-In . SVG Version: 6.00 Build 0)  -->
<svg version="1.1" xmlns="http://www.w3.org/2000/svg" xmlns:xlink="http://www.w3.org/1999/xlink" x="0px" y="0px"
	 viewBox="0 0 1600 1204" style="enable-background:new 0 0 1600 1204;" xml:space="preserve">
<style type="text/css">
	.st0{fill:#00B0B3;}
	.st1{fill:#FBF2C0;}
	.st2{opacity:0.7;}
	.st3{fill:none;stroke:#404041;stroke-miterlimit:10;}
	.st4{fill:#404041;}
	.st5{fill:#DA5C5C;}
</style>
<g id="Layer_1">
	<rect x="-10.1" y="-9.9" class="st0" width="1619.8" height="1223.7"/>
	<path class="st1" d="M31.6-86.8c0,0-27.2,30.3-69.9,77.8v848.8C458.4,1109.9,1139.7,1472,1139.7,1472L2078,685.2L31.6-86.8z"/>
	<g class="st2">
		<path class="st3" d="M828.1,1112.5C660.8,906.4,493.4,700.3,326,494.3c-66.9,111.1-100.3,245-78.3,372.8
			c16.1,93.5,63.7,182.5,135.2,245.3c34.3,30.2,75.3,58,120.2,67.5c48.2,10.3,98.3,11.5,147,4.2
			C713.9,1174.5,775.7,1150.2,828.1,1112.5z"/>
		<path class="st3" d="M783.9,1094.1c-50,21.7-101.7,40.6-155.5,49.3c-50.8,8.2-103.4,6.9-152.6-9.1c-43.3-14-82.5-53.4-111-87.8
			c-48.8-58.8-87.6-129.7-97.3-205.4c-15.5-120.1,29.3-246.5,102-343.4C507.5,696.4,645.7,895.2,783.9,1094.1
			C783.9,1094,783.9,1094,783.9,1094.1z"/>
		<path class="st3" d="M565.4,814.7c50,75.6,99.4,151.6,141.9,231.6c5.3,10.1,10.7,20.9,9.8,32.2c-1,12.5-9.6,23.2-19.7,30.6
			c-32.4,23.8-58.5-6.6-70-35.9C595,990.6,583.9,901.5,565.4,814.7z"/>
		<path class="st3" d="M556.7,811.3c-35.5,57.8-71,115.6-106.6,173.4c-7.3,11.9-15,24.2-26.7,31.8c-24.1,15.7-67.8,8.4-77.4-21.6
			c-3.9-12.2-1.9-25.7,3.4-37.3c5.3-11.6,13.7-21.6,22.7-30.5c19.6-19.5,42.7-35.2,66.1-50C476.5,853.1,516.1,831.1,556.7,811.3z"/>
		<path class="st3" d="M558.4,822.7c-16.8,38.4-32.9,77.1-48.1,116.1c-11.5,29.5-22.5,59.1-31.3,89.5c-5.1,17.4-9.3,36.3-2.9,53.2
			c10.8,28.4,55.2,51.1,80.6,27.1c13.9-13.1,13.9-34.8,13-53.9C566,977.4,562.2,900.1,558.4,822.7z"/>
		<path class="st3" d="M549.6,800.9c-45.4,18.5-89.7,39.6-132.8,63c-16.8,9.1-33.4,18.6-51.3,25.2c-15.6,5.8-38.8,12.5-55.3,6.7
			c-15.5-5.5-22.3-22.8-23.1-37.9c-0.5-11.2,1.3-23.1,8.8-31.4c8.4-9.3,21.8-11.8,34.2-13.4c32.7-4.3,65.8-6.2,98.8-7.8
			C469.2,803.3,509.4,801.9,549.6,800.9z"/>
		<path class="st3" d="M549,792.9c-42.8-1.1-85.5-2.2-128.3-3.3c-23.9-0.6-47.8-1.2-71.6-3.9c-21-2.3-44.7-4.4-54.7-26.1
			c-4.5-9.7-5.2-20.9-3.2-31.4c2.1-11.3,7.6-22.6,17.5-28.6c9.2-5.5,20.7-5.5,31.3-3.8c20.7,3.4,39.9,12.9,58.7,22.3
			C448.9,743,498.9,767.9,549,792.9z"/>
		<path class="st3" d="M542.4,779.4c-21.9-7.7-43.6-25.1-63.7-36.9c-20.9-12.3-41.8-24.6-62.7-36.9c-22.3-13.1-44.6-26.2-64.5-42.7
			c-12.1-10-24-22.9-24-38.6c0-9.1,4.1-17.6,8.7-25.4c4.9-8.3,12-17,21.6-17.2c7.2-0.1,13.5,4.6,18.9,9.4
			c10.4,9.2,19.9,19.3,29.3,29.5c23.9,25.8,47.3,52,70.2,78.6c11.3,13.1,22.5,26.3,33.5,39.5C519.9,750.8,536,765,542.4,779.4z"/>
	</g>
	<g class="st2">
		<path class="st3" d="M94.2,400.6c0,0-40.9-176.1-107.1-220.3C63.5,111.8,94.2-40,94.2-40s17.7,163.9,107.1,220.3
			C105.4,237.5,94.2,400.6,94.2,400.6z"/>
		<path class="st3" d="M170.4,74.6c0,0-16.5-70.9-43.1-88.7c30.8-27.6,43.1-88.7,43.1-88.7s7.1,66,43.1,88.7
			C175,8.9,170.4,74.6,170.4,74.6z"/>
		<path class="st3" d="M190,341.6c0,0-11.2-48.4-29.4-60.5c21-18.8,29.4-60.5,29.4-60.5s4.9,45,29.4,60.5
			C193.1,296.8,190,341.6,190,341.6z"/>
		<path class="st3" d="M258.2,272.4c0,0-3-56.7-74.8-158.5C264,29.1,258.2-35.3,258.2-35.3s-3,69,74.8,153.8
			C250.8,203,258.2,272.4,258.2,272.4z"/>
		<path class="st3" d="M298,442.3c0,0-2.1-40-52.7-111.6C302,270.9,298,225.6,298,225.6s-2.1,48.6,52.7,108.3
			C292.8,393.4,298,442.3,298,442.3z"/>
	</g>
	<g class="st2">
		<path class="st3" d="M1529.5,878.8c0,0,40.9,176.1,107.1,220.3c-76.4,68.5-107.1,220.3-107.1,220.3s-17.7-163.9-107.1-220.3
			C1518.3,1041.9,1529.5,878.8,1529.5,878.8z"/>
		<path class="st3" d="M1453.3,1204.8c0,0,16.5,70.9,43.1,88.7c-30.8,27.6-43.1,88.7-43.1,88.7s-7.1-66-43.1-88.7
			C1448.8,1270.5,1453.3,1204.8,1453.3,1204.8z"/>
		<path class="st3" d="M1433.7,937.7c0,0,11.2,48.4,29.4,60.5c-21,18.8-29.4,60.5-29.4,60.5s-4.9-45-29.4-60.5
			C1430.7,982.5,1433.7,937.7,1433.7,937.7z"/>
		<path class="st3" d="M1365.5,1006.9c0,0,3,56.7,74.8,158.5c-80.5,84.9-74.8,149.2-74.8,149.2s3-69-74.8-153.8
			C1372.9,1076.3,1365.5,1006.9,1365.5,1006.9z"/>
		<path class="st3" d="M1325.7,837c0,0,2.1,40,52.7,111.6c-56.7,59.8-52.7,105.1-52.7,105.1s2.1-48.6-52.7-108.3
			C1330.9,885.9,1325.7,837,1325.7,837z"/>
	</g>
	<g class="st2">
		
			<ellipse transform="matrix(0.7863 -0.6178 0.6178 0.7863 71.4978 453.4456)" class="st3" cx="691.3" cy="123.4" rx="110.7" ry="146.7"/>
		<circle class="st3" cx="754.5" cy="189.5" r="40.6"/>
		<path class="st3" d="M520.3,19.6c12.4,8.2,24.9,16.5,37.3,24.7c24.9,16.5,49.8,32.9,74.7,49.4c49.8,32.9,99.6,65.9,149.3,98.8
			c48.8,32.3,97.6,64.5,146.4,96.8c3.3,2.2,6.8,4.7,7.4,8.6c0.9,5.6-5.2,10.2-10.8,10c-5.6-0.2-10.6-3.6-15.1-6.9
			c-96.9-69.9-193.8-139.7-290.7-209.6c-22.3-16.1-44.6-32.1-66.9-48.2c-11.1-8-22.3-16.1-33.4-24.1
			C508.2,11.6,509.3,12.3,520.3,19.6z"/>
	</g>
	<g class="st2">
		<path class="st3" d="M786.3,952c68.8-22.6,228.7-75.4,444.3-149.3c14.8-5.1,28.4,10,21.9,24.2c-89,192.8-138.1,315.7-138.1,315.7
			l86.3,246l154.4,5.5c3.5,0.6,4.1,5.5,0.7,6.8L1036,1526.2c-3.4,1.3-6.3-2.7-4.1-5.5L1149,1405l-83.3-249L782.9,984.1
			C769.7,976.3,771.9,956.7,786.3,952z"/>
		<path class="st3" d="M840.4,985.2l218.1,119.1c8.9,4.8,20,1.3,24.4-7.8l119-244.9c3.7-7.2-3.4-15.2-11-12.4l-349.2,130
			C834.6,971.8,833.9,981.5,840.4,985.2z"/>
		
			<ellipse transform="matrix(0.7704 -0.6376 0.6376 0.7704 -307.6435 905.6447)" class="st3" cx="1103.5" cy="879.9" rx="51.5" ry="59.3"/>
		<path class="st3" d="M1055.6,956.3L1195.3,742l-131.6,224C1063.6,966,1051,967.9,1055.6,956.3z"/>
	</g>
	<g class="st2">
		<polygon class="st3" points="1374.4,673.2 1599.3,633.7 1565.5,113.6 1256.8,145.1 		"/>
		<polygon class="st3" points="1272.6,157.1 1550.1,150.6 1582.7,590.6 1381.2,615.4 		"/>
		<polygon class="st3" points="824.8,516.2 1071.9,598.9 1285.7,73.3 967,-1.6 		"/>
		<polygon class="st3" points="854.8,485.1 1078.1,545.4 1258.8,93.7 982.2,52 		"/>
		<g>
			<g>
				<g>
					<line class="st3" x1="1354.6" y1="163.3" x2="1184.9" y2="135.4"/>
					<g>
						<path class="st4" d="M1354.7,162c0.7,0.1,1.2,0.8,1.1,1.5c-0.1,0.7-0.8,1.2-1.5,1.1s-1.2-0.8-1.1-1.5
							C1353.3,162.4,1354,161.9,1354.7,162z"/>
					</g>
					<g>
						<path class="st4" d="M1185.2,134.1c-0.7-0.1-1.4,0.4-1.5,1.1c-0.1,0.7,0.4,1.4,1.1,1.5c0.7,0.1,1.4-0.4,1.5-1.1
							S1185.9,134.3,1185.2,134.1z"/>
					</g>
				</g>
			</g>
			<g>
				<g>
					<line class="st3" x1="1223.6" y1="196.8" x2="1336.7" y2="20.8"/>
					<g>
						<path class="st4" d="M1224.7,197.4c-0.4,0.6-1.2,0.8-1.8,0.4c-0.6-0.4-0.8-1.2-0.4-1.8c0.4-0.6,1.2-0.8,1.8-0.4
							C1224.9,196,1225.1,196.8,1224.7,197.4z"/>
					</g>
					<g>
						<path class="st4" d="M1337.7,21.6c0.4-0.6,0.2-1.4-0.4-1.8s-1.4-0.2-1.8,0.4c-0.4,0.6-0.2,1.4,0.4,1.8
							C1336.5,22.4,1337.3,22.2,1337.7,21.6z"/>
					</g>
				</g>
			</g>
			<g>
				<g>
					<line class="st3" x1="1326" y1="100.6" x2="1206.1" y2="178.4"/>
					<g>
						<path class="st4" d="M1325.2,99.6c0.6-0.4,1.4-0.2,1.8,0.4c0.4,0.6,0.2,1.4-0.4,1.8c-0.6,0.4-1.4,0.2-1.8-0.4
							C1324.4,100.8,1324.6,100,1325.2,99.6z"/>
					</g>
					<g>
						<path class="st4" d="M1205.5,177.2c-0.6,0.4-0.8,1.2-0.4,1.8c0.4,0.6,1.2,0.8,1.8,0.4c0.6-0.4,0.8-1.2,0.4-1.8
							S1206.1,176.8,1205.5,177.2z"/>
					</g>
				</g>
			</g>
			<g>
				<g>
					<line class="st3" x1="1303.8" y1="203.3" x2="1204.7" y2="80.6"/>
					<g>
						<path class="st4" d="M1304.8,202.4c0.5,0.6,0.4,1.4-0.2,1.9c-0.6,0.5-1.4,0.4-1.9-0.2c-0.5-0.6-0.4-1.4,0.2-1.9
							C1303.5,201.8,1304.3,201.9,1304.8,202.4z"/>
					</g>
					<g>
						<path class="st4" d="M1205.8,79.9c-0.5-0.6-1.3-0.7-1.9-0.2c-0.6,0.5-0.7,1.3-0.2,1.9c0.5,0.6,1.3,0.7,1.9,0.2
							C1206.2,81.3,1206.2,80.4,1205.8,79.9z"/>
					</g>
				</g>
			</g>
		</g>
		<path class="st3" d="M1560.4,289.6c0,0-114.8,51.3-274-74.1"/>
		<path class="st3" d="M1225.3,177.4c0,0-266.9,157.2-291.1,38.1"/>
		<circle class="st3" cx="1328.7" cy="276" r="8.7"/>
		<circle class="st3" cx="1358.7" cy="294.1" r="5.1"/>
		<circle class="st3" cx="1342.4" cy="278.8" r="4.9"/>
		<circle class="st3" cx="1386.9" cy="415.5" r="6.6"/>
		<circle class="st3" cx="1548.9" cy="323.8" r="6.8"/>
		<path class="st3" d="M1557.8,254.5c0,0-175.5,50.3-272.6-44.1"/>
		<path class="st3" d="M1227.8,171.1c0,0-156.2,105.7-285.8,17.7"/>
		<circle class="st3" cx="1157.3" cy="241.4" r="7"/>
		<circle class="st3" cx="1136.7" cy="283.6" r="14.7"/>
		<circle class="st3" cx="1169.4" cy="266.6" r="1.5"/>
		<circle class="st3" cx="1186.7" cy="223.8" r="10.9"/>
		<circle class="st3" cx="917.8" cy="426.9" r="8.4"/>
		<circle class="st3" cx="949.1" cy="314.7" r="2.5"/>
		<circle class="st3" cx="1040.7" cy="302.3" r="5.4"/>
	</g>
	<g>
		<line class="st3" x1="1072.8" y1="594.2" x2="898.5" y2="1203.8"/>
		<g>
			<g>
				<line class="st3" x1="848.4" y1="1256.9" x2="932.7" y2="1162.7"/>
				<g>
					<path class="st4" d="M849.4,1257.7c-0.5,0.5-1.3,0.6-1.9,0.1c-0.5-0.5-0.6-1.3-0.1-1.9s1.3-0.6,1.9-0.1
						C849.8,1256.3,849.9,1257.2,849.4,1257.7z"/>
				</g>
				<g>
					<path class="st4" d="M933.6,1163.6c0.5-0.5,0.4-1.4-0.1-1.9c-0.5-0.5-1.4-0.4-1.9,0.1s-0.4,1.4,0.1,1.9
						C932.3,1164.2,933.1,1164.1,933.6,1163.6z"/>
				</g>
			</g>
		</g>
		<g>
			<g>
				<line class="st3" x1="977.7" y1="1228.5" x2="831.6" y2="1179.8"/>
				<g>
					<path class="st4" d="M978.1,1227.2c0.7,0.2,1.1,1,0.8,1.7c-0.2,0.7-1,1.1-1.7,0.8s-1.1-1-0.8-1.7
						C976.6,1227.4,977.4,1227,978.1,1227.2z"/>
				</g>
				<g>
					<path class="st4" d="M832.1,1178.6c-0.7-0.2-1.4,0.1-1.7,0.8c-0.2,0.7,0.1,1.4,0.8,1.7s1.4-0.1,1.7-0.8
						C833.2,1179.6,832.8,1178.8,832.1,1178.6z"/>
				</g>
			</g>
		</g>
		<g>
			<g>
				<line class="st3" x1="835.9" y1="1207.7" x2="940.3" y2="1197"/>
				<g>
					<path class="st4" d="M836.1,1209.1c-0.7,0.1-1.4-0.5-1.4-1.2c-0.1-0.7,0.5-1.4,1.2-1.4c0.7-0.1,1.4,0.5,1.4,1.2
						C837.3,1208.3,836.8,1209,836.1,1209.1z"/>
				</g>
				<g>
					<path class="st4" d="M940.4,1198.3c0.7-0.1,1.2-0.7,1.2-1.4c-0.1-0.7-0.7-1.2-1.4-1.2c-0.7,0.1-1.2,0.7-1.2,1.4
						C939,1197.9,939.7,1198.4,940.4,1198.3z"/>
				</g>
			</g>
		</g>
		<g>
			<g>
				<line class="st3" x1="900.9" y1="1265.7" x2="896.2" y2="1140.4"/>
				<g>
					<path class="st4" d="M902.2,1265.6c0,0.7-0.5,1.3-1.3,1.4c-0.7,0-1.3-0.5-1.4-1.3c0-0.7,0.5-1.3,1.3-1.4
						C901.5,1264.3,902.2,1264.9,902.2,1265.6z"/>
				</g>
				<g>
					<path class="st4" d="M897.5,1140.4c0-0.7-0.6-1.3-1.4-1.3c-0.7,0-1.3,0.6-1.3,1.4c0,0.7,0.6,1.3,1.4,1.3
						C896.9,1141.7,897.5,1141.1,897.5,1140.4z"/>
				</g>
			</g>
		</g>
	</g>
</g>
<g id="Layer_2">
	<path class="st5" d="M609.8,17.7L-57.6,394.5v826.1l264.2,119.1L649.7,48C656.1,24.5,630.7,5.2,609.8,17.7z"/>
</g>
</svg>
