<?xml version="1.0" encoding="utf-8"?>
<!-- Generator: Adobe Illustrator 22.1.0, SVG Export Plug-In . SVG Version: 6.00 Build 0)  -->
<svg version="1.1" id="Layer_1" xmlns="http://www.w3.org/2000/svg" xmlns:xlink="http://www.w3.org/1999/xlink" x="0px" y="0px"
	 viewBox="0 0 526 1249" style="enable-background:new 0 0 526 1249;" xml:space="preserve">
<style type="text/css">
	.st0{fill:#C6943B;}
	.st1{display:none;}
	.st2{display:inline;fill:#FBF2C0;}
	.st3{fill:#FBF2C0;}
</style>
<g id="Layer_3">
	<g>
		<polygon class="st0" points="525.8,1200 0,1249 0,-15 456,-15 		"/>
	</g>
</g>
<g id="Layer_2_1_" class="st1">
	
		<ellipse transform="matrix(0.5225 -0.8526 0.8526 0.5225 -657.3311 482.9922)" class="st2" cx="102.6" cy="828.4" rx="13.8" ry="12.9"/>
	
		<ellipse transform="matrix(6.652060e-02 -0.9978 0.9978 6.652060e-02 -798.5471 894.4496)" class="st2" cx="78.8" cy="874" rx="18.2" ry="18.2"/>
	<ellipse class="st2" cx="302.8" cy="695" rx="18.2" ry="18.2"/>
	
		<ellipse transform="matrix(0.3085 -0.9512 0.9512 0.3085 -667.0911 1089.6841)" class="st2" cx="415.9" cy="1003.7" rx="13.4" ry="12.3"/>
	
		<ellipse transform="matrix(0.3085 -0.9512 0.9512 0.3085 -605.6325 1114.7698)" class="st2" cx="463.9" cy="973.9" rx="17.7" ry="16.3"/>
	
		<ellipse transform="matrix(0.3085 -0.9512 0.9512 0.3085 -650.4044 1174.6455)" class="st2" cx="482.7" cy="1034.7" rx="22.3" ry="20.5"/>
</g>
<ellipse class="st3" cx="48.9" cy="1129.3" rx="10.6" ry="10.8"/>
<ellipse class="st3" cx="87" cy="1183.7" rx="16.1" ry="16.5"/>
<ellipse class="st3" cx="32.8" cy="1216.8" rx="7.1" ry="7.3"/>
</svg>
