<svg id="Layer_1" xmlns="http://www.w3.org/2000/svg" viewBox="0 0 1600 249"><style>.st2,.st3,.st4,.st5,.st6,.st7,.st8{fill:none;stroke:#c6943b;stroke-width:.8186;stroke-miterlimit:10}.st3,.st4,.st5,.st6,.st7,.st8{stroke-width:.7236}.st4,.st5,.st6,.st7,.st8{stroke-width:.7656}.st5,.st6,.st7,.st8{stroke-width:.6464}.st6,.st7,.st8{stroke-width:.6944}.st7,.st8{stroke-width:.7831}.st8{stroke-width:.7149}</style><path fill="#48392a" d="M-20.4-14.1h1632.8v268.5H-20.4z"/><g opacity=".2"><path class="st2" d="M208.7 317.2L95.4 329.4c-5 .5-9.4-3.8-9.1-9.2L97.5 58.8c0-4.9 3.7-8.8 8.3-8.8l107.1-14c4.6 0 8.3 4 8.3 8.8L217 308.3c0 4.9-3.7 8.9-8.3 8.9z"/><path class="st3" d="M61.1 317.2l-88.6 12.2c-3.9.5-7.3-3.8-7.1-9.2l8.8-261.4c0-4.9 2.9-8.8 6.5-8.8l83.6-14c3.6 0 6.5 4 6.5 8.8l-3.2 263.4c0 5-2.9 9-6.5 9z"/><path class="st4" d="M280.9 328.2l-99.1 12.2c-4.4.5-8.2-3.8-8-9.2l9.9-261.4c0-4.9 3.3-8.8 7.3-8.8l93.6-13.9c4 0 7.3 4 7.3 8.8l-3.6 263.4c-.2 5-3.4 8.9-7.4 8.9z"/><path class="st5" d="M147.6 286.8l82.9 10.4c3.7.5 6.8-3.3 6.7-7.9l-8.3-222.8c0-4.2-2.7-7.5-6.1-7.5l-78.3-11.9c-3.4 0-6.1 3.4-6.1 7.5l3 224.6c.2 4.2 2.9 7.6 6.2 7.6zM-36.9 335.9L46 346.3c3.7.5 6.8-3.3 6.7-7.9l-8.3-222.8c0-4.2-2.7-7.5-6.1-7.5L-40 96.2c-3.4 0-6.1 3.4-6.1 7.5l3 224.6c.1 4.2 2.9 7.6 6.2 7.6z"/><path class="st6" d="M40.2 334.3l82.9 12c3.7.5 6.8-3.8 6.7-9.1L121.5 80c0-4.8-2.7-8.7-6.1-8.7L37.1 57.7c-3.4 0-6.1 3.9-6.1 8.7l3 259.2c.1 4.8 2.8 8.7 6.2 8.7z"/><path class="st7" d="M-5.6 278.6l105.4 12c4.7.5 8.7-3.8 8.5-9.1L97.8 24.3c0-4.8-3.5-8.7-7.7-8.7L-9.5 2c-4.3 0-7.7 3.9-7.7 8.7l3.9 259.2c0 4.8 3.4 8.7 7.7 8.7z"/><path class="st8" d="M164.2 297.7l-86.5 12.2c-3.8.5-7.1-3.8-7-9.2l8.6-261.4c0-4.9 2.8-8.8 6.3-8.8l81.6-13.9c3.5 0 6.3 4 6.3 8.8l-3.2 263.4c.3 4.9-2.6 8.9-6.1 8.9z"/><g><path class="st2" d="M511.2 336.8L397.8 349c-5 .5-9.4-3.8-9.1-9.2L400 78.4c0-4.9 3.7-8.8 8.3-8.8l107.1-13.9c4.6 0 8.3 4 8.3 8.8L519.5 328c0 4.9-3.7 8.8-8.3 8.8z"/><path class="st3" d="M363.6 336.8L275 349c-3.9.5-7.3-3.8-7.1-9.2l8.8-261.4c0-4.9 2.9-8.8 6.5-8.8l83.6-13.9c3.6 0 6.5 4 6.5 8.8L370 328c0 4.9-2.9 8.8-6.4 8.8z"/><path class="st4" d="M583.4 347.9l-99.1 12.2c-4.4.5-8.2-3.8-8-9.2l9.9-261.4c0-4.9 3.3-8.8 7.3-8.8L587 66.8c4 0 7.3 4 7.3 8.8L590.6 339c0 4.9-3.2 8.9-7.2 8.9z"/><path class="st5" d="M450.1 306.4l82.9 10.4c3.7.5 6.8-3.3 6.7-7.9l-8.3-222.8c0-4.2-2.7-7.5-6.1-7.5L447 66.7c-3.4 0-6.1 3.4-6.1 7.5l3 224.6c.1 4.3 2.8 7.6 6.2 7.6zM265.6 355.5l82.9 10.4c3.7.5 6.8-3.3 6.7-7.9l-8.3-222.8c0-4.2-2.7-7.5-6.1-7.5l-78.3-11.9c-3.4 0-6.1 3.4-6.1 7.5l3 224.6c.1 4.3 2.8 7.6 6.2 7.6z"/><path class="st6" d="M342.6 353.9l82.9 12c3.7.5 6.8-3.8 6.7-9.1L424 99.7c0-4.8-2.7-8.7-6.1-8.7l-78.3-13.7c-3.4 0-6.1 3.9-6.1 8.7l3 259.2c.1 4.8 2.8 8.7 6.1 8.7z"/><path class="st7" d="M296.9 298.2l105.4 12c4.7.5 8.7-3.8 8.5-9.1L400.3 44c0-4.8-3.5-8.7-7.7-8.7L293 21.6c-4.3 0-7.7 3.9-7.7 8.7l3.9 259.2c-.1 4.8 3.4 8.7 7.7 8.7z"/><path class="st8" d="M466.7 317.4l-86.5 12.2c-3.8.5-7.1-3.8-7-9.2L381.9 59c0-4.9 2.8-8.8 6.3-8.8l81.6-13.9c3.5 0 6.3 4 6.3 8.8l-3.2 263.4c.2 4.9-2.7 8.9-6.2 8.9z"/></g><g><path class="st2" d="M748.9 325.9l-113.4 12.2c-5 .5-9.4-3.8-9.1-9.2l11.3-261.4c0-4.9 3.7-8.8 8.3-8.8l107-13.9c4.6 0 8.3 4 8.3 8.8L757.1 317c.1 5-3.6 8.9-8.2 8.9z"/><path class="st3" d="M601.2 325.9l-88.6 12.2c-3.9.5-7.3-3.8-7.1-9.2l8.8-261.4c0-4.9 2.9-8.8 6.5-8.8l83.6-13.9c3.6 0 6.5 4 6.5 8.8L607.7 317c0 5-2.9 8.9-6.5 8.9z"/><path class="st4" d="M821 337l-99.1 12.2c-4.4.5-8.2-3.8-8-9.2l9.9-261.4c0-4.9 3.3-8.8 7.3-8.8l93.6-13.9c4 0 7.3 4 7.3 8.8l-3.6 263.4c-.1 5-3.4 8.9-7.4 8.9z"/><path class="st5" d="M687.8 295.6l82.9 10.4c3.7.5 6.8-3.3 6.7-7.9l-8.3-222.8c0-4.2-2.7-7.5-6.1-7.5l-78.3-11.9c-3.4 0-6.1 3.4-6.1 7.5l3 224.6c.1 4.2 2.8 7.6 6.2 7.6zM503.2 344.7l82.9 10.4c3.7.5 6.8-3.3 6.7-7.9l-8.3-222.8c0-4.2-2.7-7.5-6.1-7.5L500.2 105c-3.4 0-6.1 3.4-6.1 7.5l3 224.6c.1 4.2 2.8 7.6 6.1 7.6z"/><path class="st6" d="M580.3 343.1l82.9 12c3.7.5 6.8-3.8 6.7-9.1l-8.3-257.2c0-4.8-2.7-8.7-6.1-8.7l-78.3-13.7c-3.4 0-6.1 3.9-6.1 8.7l3 259.2c.1 4.9 2.9 8.8 6.2 8.8z"/><path class="st7" d="M534.5 287.3l105.4 12c4.7.5 8.7-3.8 8.5-9.1L638 33.1c0-4.8-3.5-8.7-7.7-8.7l-99.6-13.7c-4.3 0-7.7 3.9-7.7 8.7l3.9 259.2c-.1 4.8 3.4 8.7 7.6 8.7z"/><path class="st8" d="M704.4 306.5l-86.5 12.2c-3.8.5-7.1-3.8-7-9.2l8.6-261.4c0-4.9 2.8-8.8 6.3-8.8l81.6-13.9c3.5 0 6.3 4 6.3 8.8l-3.2 263.4c.2 4.9-2.6 8.9-6.1 8.9z"/></g><g><path class="st2" d="M1038.7 323.9l-113.4 12.2c-5 .5-9.4-3.8-9.1-9.2l11.3-261.4c0-4.9 3.7-8.8 8.3-8.8l107.1-13.9c4.6 0 8.3 4 8.3 8.8L1047 315c0 5-3.8 8.9-8.3 8.9z"/><path class="st3" d="M891 323.9l-88.6 12.2c-3.9.5-7.3-3.8-7.1-9.2l8.8-261.4c0-4.9 2.9-8.8 6.5-8.8l83.6-13.9c3.6 0 6.5 4 6.5 8.8L897.5 315c0 5-2.9 8.9-6.5 8.9z"/><path class="st4" d="M1110.8 335l-99.1 12.2c-4.4.5-8.2-3.8-8-9.2l9.9-261.4c0-4.9 3.3-8.8 7.3-8.8l93.6-13.9c4 0 7.3 4 7.3 8.8l-3.6 263.4c-.1 4.9-3.4 8.9-7.4 8.9z"/><path class="st5" d="M977.6 293.5l82.9 10.4c3.7.5 6.8-3.3 6.7-7.9l-8.3-222.8c0-4.2-2.7-7.5-6.1-7.5l-78.3-11.9c-3.4 0-6.1 3.4-6.1 7.5l3 224.6c.1 4.3 2.8 7.6 6.2 7.6zM793 342.7l82.9 10.4c3.7.5 6.8-3.3 6.7-7.9l-8.3-222.8c0-4.2-2.7-7.5-6.1-7.5L790 103c-3.4 0-6.1 3.4-6.1 7.5l3 224.6c.1 4.2 2.8 7.6 6.1 7.6z"/><path class="st6" d="M870.1 341l82.9 12c3.7.5 6.8-3.8 6.7-9.1l-8.3-257.2c0-4.8-2.7-8.7-6.1-8.7L867 64.3c-3.4 0-6.1 3.9-6.1 8.7l3 259.2c.1 4.9 2.8 8.8 6.2 8.8z"/><path class="st7" d="M824.3 285.3l105.4 12c4.7.5 8.7-3.8 8.5-9.1L927.8 31.1c0-4.8-3.5-8.7-7.7-8.7L820.5 8.7c-4.3 0-7.7 3.9-7.7 8.7l3.9 259.2c-.1 4.8 3.4 8.7 7.6 8.7z"/><path class="st8" d="M994.2 304.5l-86.5 12.2c-3.8.5-7.1-3.8-7-9.2l8.6-261.4c0-4.9 2.8-8.8 6.3-8.8l81.6-13.9c3.5 0 6.3 4 6.3 8.8l-3.2 263.4c.2 4.9-2.6 8.9-6.1 8.9z"/></g><g><path class="st2" d="M1330.2 315.2l-113.4 12.2c-5 .5-9.4-3.8-9.1-9.2L1219 56.8c0-4.9 3.7-8.8 8.3-8.8l107.1-13.9c4.6 0 8.3 4 8.3 8.8l-4.2 263.4c0 4.9-3.7 8.9-8.3 8.9z"/><path class="st3" d="M1182.6 315.2l-88.6 12.2c-3.9.5-7.3-3.8-7.1-9.2l8.8-261.4c0-4.9 2.9-8.8 6.5-8.8l83.6-13.9c3.6 0 6.5 4 6.5 8.8l-3.2 263.4c0 4.9-3 8.9-6.5 8.9z"/><path class="st4" d="M1402.4 326.3l-99.1 12.2c-4.4.5-8.2-3.8-8-9.2l9.9-261.4c0-4.9 3.3-8.8 7.3-8.8l93.6-13.9c4 0 7.3 4 7.3 8.8l-3.6 263.4c-.2 4.9-3.4 8.9-7.4 8.9z"/><path class="st5" d="M1269.1 284.8l82.9 10.4c3.7.5 6.8-3.3 6.7-7.9l-8.3-222.8c0-4.2-2.7-7.5-6.1-7.5L1266 45.1c-3.4 0-6.1 3.4-6.1 7.5l3 224.6c.1 4.2 2.9 7.6 6.2 7.6zM1084.6 333.9l82.9 10.4c3.7.5 6.8-3.3 6.7-7.9l-8.3-222.8c0-4.2-2.7-7.5-6.1-7.5l-78.3-11.9c-3.4 0-6.1 3.4-6.1 7.5l3 224.6c.1 4.2 2.8 7.6 6.2 7.6z"/><path class="st6" d="M1161.6 332.3l82.9 12c3.7.5 6.8-3.8 6.7-9.1L1243 78.1c0-4.8-2.7-8.7-6.1-8.7l-78.3-13.7c-3.4 0-6.1 3.9-6.1 8.7l3 259.2c.1 4.8 2.8 8.7 6.1 8.7z"/><path class="st7" d="M1115.9 276.6l105.4 12c4.7.5 8.7-3.8 8.5-9.1l-10.5-257.2c0-4.8-3.5-8.7-7.7-8.7L1112 0c-4.3 0-7.7 3.9-7.7 8.7l3.9 259.2c0 4.8 3.4 8.7 7.7 8.7z"/><path class="st8" d="M1285.7 295.7l-86.5 12.2c-3.8.5-7.1-3.8-7-9.2l8.6-261.4c0-4.9 2.8-8.8 6.3-8.8l81.6-13.9c3.5 0 6.3 4 6.3 8.8l-3.2 263.4c.3 5-2.6 8.9-6.1 8.9z"/></g><g><path class="st2" d="M1572.9 315.1l-113.4 12.2c-5 .5-9.4-3.8-9.1-9.2l11.3-261.4c0-4.9 3.7-8.8 8.3-8.8L1577.1 34c4.6 0 8.3 4 8.3 8.8l-4.2 263.4c0 4.9-3.7 8.9-8.3 8.9z"/><path class="st3" d="M1425.3 315.1l-88.6 12.2c-3.9.5-7.3-3.8-7.1-9.2l8.8-261.4c0-4.9 2.9-8.8 6.5-8.8l83.6-13.9c3.6 0 6.5 4 6.5 8.8l-3.2 263.4c0 4.9-2.9 8.9-6.5 8.9z"/><path class="st4" d="M1645.1 326.1l-99.1 12.2c-4.4.5-8.2-3.8-8-9.2l9.9-261.4c0-4.9 3.3-8.8 7.3-8.8l93.6-13.9c4 0 7.3 4 7.3 8.8l-3.6 263.4c-.2 5-3.4 8.9-7.4 8.9z"/><path class="st5" d="M1511.8 284.7l82.9 10.4c3.7.5 6.8-3.3 6.7-7.9l-8.3-222.8c0-4.2-2.7-7.5-6.1-7.5L1508.8 45c-3.4 0-6.1 3.4-6.1 7.5l3 224.6c.1 4.2 2.8 7.6 6.1 7.6zM1327.3 333.8l82.9 10.4c3.7.5 6.8-3.3 6.7-7.9l-8.3-222.8c0-4.2-2.7-7.5-6.1-7.5l-78.3-11.9c-3.4 0-6.1 3.4-6.1 7.5l3 224.6c.1 4.2 2.9 7.6 6.2 7.6z"/><path class="st6" d="M1404.4 332.2l82.9 12c3.7.5 6.8-3.8 6.7-9.1L1485.7 78c0-4.8-2.7-8.7-6.1-8.7l-78.3-13.7c-3.4 0-6.1 3.9-6.1 8.7l3 259.2c.1 4.8 2.8 8.7 6.2 8.7z"/><path class="st7" d="M1358.6 276.5l105.4 12c4.7.5 8.7-3.8 8.5-9.1L1462 22.2c0-4.8-3.5-8.7-7.7-8.7L1354.7-.2c-4.3 0-7.7 3.9-7.7 8.7l3.9 259.2c0 4.9 3.4 8.8 7.7 8.8z"/><path class="st8" d="M1528.4 295.6l-86.5 12.2c-3.8.5-7.1-3.8-7-9.2l8.6-261.4c0-4.9 2.8-8.8 6.3-8.8l81.6-13.9c3.5 0 6.3 4 6.3 8.8l-3.2 263.4c.3 4.9-2.6 8.9-6.1 8.9z"/></g></g></svg>