<?xml version="1.0" encoding="utf-8"?>
<!-- Generator: Adobe Illustrator 22.1.0, SVG Export Plug-In . SVG Version: 6.00 Build 0)  -->
<svg version="1.1" xmlns="http://www.w3.org/2000/svg" xmlns:xlink="http://www.w3.org/1999/xlink" x="0px" y="0px"
	 viewBox="0 0 32 32" style="enable-background:new 0 0 32 32;" xml:space="preserve">
<g id="Layer_1">
	<path d="M29.5,5.3h-27C1.1,5.3,0,4.2,0,2.8V2.5C0,1.1,1.1,0,2.5,0l27,0C30.9,0,32,1.1,32,2.5v0.3C32,4.2,30.9,5.3,29.5,5.3z"/>
	<path d="M29.5,31.3h-27c-1.4,0-2.5-1.1-2.5-2.5v-0.3C0,27.1,1.1,26,2.5,26h27c1.4,0,2.5,1.1,2.5,2.5v0.3
		C32,30.2,30.9,31.3,29.5,31.3z"/>
	<path d="M29.5,18.3h-27c-1.4,0-2.5-1.1-2.5-2.5v-0.3C0,14.1,1.1,13,2.5,13h27c1.4,0,2.5,1.1,2.5,2.5v0.3
		C32,17.2,30.9,18.3,29.5,18.3z"/>
</g>
<g id="Layer_2">
	<path d="M20.7,15.7l9.4-9.4c1.2-1.2,1.2-3.2,0-4.4l-0.3-0.3c-1.2-1.2-3.2-1.2-4.4,0L16,11L6.6,1.6c-1.2-1.2-3.2-1.2-4.4,0L1.9,1.9
		C0.7,3.1,0.7,5,1.9,6.2l9.4,9.4l-9.4,9.4c-1.2,1.2-1.2,3.2,0,4.4l0.3,0.3c1.2,1.2,3.2,1.2,4.4,0l9.4-9.4l9.4,9.4
		c1.2,1.2,3.2,1.2,4.4,0l0.3-0.3c1.2-1.2,1.2-3.2,0-4.4L20.7,15.7z"/>
</g>
</svg>
