<?xml version="1.0" encoding="utf-8"?>
<!-- Generator: Adobe Illustrator 22.1.0, SVG Export Plug-In . SVG Version: 6.00 Build 0)  -->
<svg version="1.1" id="Layer_1" xmlns="http://www.w3.org/2000/svg" xmlns:xlink="http://www.w3.org/1999/xlink" x="0px" y="0px"
	 viewBox="0 0 562 298" style="enable-background:new 0 0 562 298;" xml:space="preserve">
<style type="text/css">
	.st0{fill:#EFEFF0;}
	.st1{fill:#00ADA8;}
	.st2{fill:none;stroke:#000000;stroke-width:4;}
	.st3{fill:#FFD520;stroke:#F2F2F2;stroke-width:7;}
	.st4{fill:#EFEFF0;stroke:#EFEFF0;}
	.st5{fill:#FFD420;stroke:#FFD420;stroke-width:0.44;}
	.st6{fill:#FFD420;}
	.st7{fill:#231F20;}
</style>
<g>
	<ellipse class="st0" cx="246.3" cy="159.4" rx="225" ry="108.2"/>
	<ellipse class="st1" cx="245.6" cy="166.3" rx="225" ry="108.2"/>
	<ellipse class="st2" cx="246.3" cy="159.4" rx="225" ry="108.2"/>
	<polygon class="st3" points="342.6,16.2 369.5,288 523.5,275.2 540.2,28.6 	"/>
	<ellipse class="st0" cx="439.6" cy="154" rx="94.7" ry="131"/>
	<path class="st0" d="M377.9,219.2l-2.8-0.6l-6.9,2.6l1,2.6c0,0-1.9-0.3-3.2,0c-1.4,0.3-13.2,6.5-14.9,6.5c-1.7,0-3,0.3-3,0.3
		l-0.3,0.5c0,0,2.4,0,4,1.1c1.6,1.1,2.2,5.7,2.2,5.7s-3.1-2.4-3.8-3.9c-0.6-1.5-1.7-0.7-1.7-0.7s-2.2,0.4-2.6,0
		c-0.4-0.4,1.1,0.9,0.8,2.1c-0.3,1.1-2.2,1.5-3,1.5c-0.8,0,2.2,2,2.2,3.2c0,1.3,2.8,2.8,2.8,2.8l2.7,0.6l1.6-2l3.2-0.8
		c7.2-5.4,19.6-12.2,27.3-15.1c0,0,1.2-2.1-0.1-4.1c-1.3-1.9-2.9-3.3-3.5-1.9c-0.6,1.5,0.2,1.3,0,1.8
		C379.7,222.1,378.4,220,377.9,219.2z"/>
	<g>
		<path d="M427.2,38.9c-0.9,1.6-3.5,1.6-4.1,3.6l0.5,0.5c11.1-1.5,24.7-4.8,34.9,0.8c9.1,1.3,18,2.9,25.6,7.8
			c-1.6,0.3-3.8-2.3-5.4-0.2c2.6,2.9,6.3,4.5,9.3,7.1c16,13.6,29.2,29.9,34.4,48.8c-2.6,10.7,2,20.6,0.7,31.2
			c-1.6,8.3-7.8,14.7-11.7,22c-0.8,1.7-0.1,3.5,0.7,4.9c4.8,11.4,6.7,26.5,2.9,38.9c-5.4,14-16.1,25.9-26.8,37.6l-0.8,1.5
			c-12,12-24.8,21.7-39.9,26.3c-10.1,4.7-24.7,5.6-33.5-2.7c-4.6-3.9-6.4-9.8-4.8-15.5h0.1c1.3,7.4,4.6,15.9,12.6,18.5
			c21.8,3.3,39.1-7.5,54.5-21.2c5.5-5.1,11-11,13.1-18c2.9-3.5,7.6-5,9.3-9.5c9.1-14.5,11.4-36.7,2.9-52.2c-1.6-2.6-2.6-5.4-4.8-7.8
			c2.1-0.4,3.8,2.7,6.1,2.6c12.6-12.4,21.9-29.3,14.9-46.6c-0.4-1-1.5-0.8-2.2-0.5c-1.6,1.4-3.8,2.8-4.7,4.7
			c3.8,6.4,2.2,15.3,0.1,22h-0.3c-0.9-5.5,1.4-12.8-2.1-17.5c-4.4,1.2-5.6,6-8.3,9c0.3,2.3,2.8,3.6,2.4,6.1c0,2.2-1.1,4.2-3.1,5.3
			c-4.4-8.3,0.6-16.8,4.4-23.7c2.4-2.8,5.6-4.2,8.3-6.6c0.9-0.9,3-0.9,2.9-2.8c-2.8-3.4-7.7-3.4-11.7-2.5c-8.4,3.8-9.8,13-12.5,20.3
			c-0.6-0.4-0.9-1.6-1-2.6c-0.6-5.2,2.1-9.6,4.2-13.9c5.2-4.9,11.5-8.1,19-6.4c2,0.8,3.3,3.1,5.3,3.9l0.7-0.6
			c-2.9-21.5-18.9-43.1-39.5-51.7c-4.3-2.8-8.5-5.9-13.7-6.8l3.1-3.1l-1.2-1c-13.5-3.1-30.4-4.1-42.7,2.2c-2.6-1.5-5.1-0.1-7.8,0.2
			c-1.4,0.3-1.6-1.5-2.7-1.9c-2.8,1.4-5.1,3.9-7.9,5.1c-1.2,0-1.6-1.9-2.9-1.7c-5.9,8.5-15.8,8.9-21.5,17.3
			c-2.3,4.8-8.5,7.9-7.8,13.9c0.8,8.3,7.5,14.3,8.8,22.3c0.1,7.6,2.1,14.7,0.9,22.4c-2.7-11.1-3.1-23.1-10-32.4
			c-0.8-1.3-2,0.4-2.4,1.2c-0.4,1.3-0.8,3-2,3.7c-1-3.1,1.4-7.2-1.7-9.3c-6.3,1.9-8.6,8.6-11.4,13.6c-0.9-1.8-0.4-4.1-0.3-6.1
			c1-5.4,2.4-10.6,5.9-15c2.4-2,6.7-1.4,9.5-0.6c1.5-0.5,0.6-2.3,1.4-3.4c3.8-10.1,14.5-15.9,21.7-24.5c1.6-3,3.4-5.9,4.3-9.1
			c4.3-4.8,9-8.3,15.3-8.1c0.6,1.7-2,2.9-0.9,4.6C418.2,42,422.2,38.9,427.2,38.9z"/>
		<path d="M429.7,77.5c1.3,6.1,2.5,12.2,2.8,18.8c-3.2-5.3-4.1-11.5-6.6-17.1c-1.6-1.7-2.4-5.3-5.3-4.9c-7.3,7.7-8.3,18-13.5,26.5
			c-2.2,2.6-5.1,4.1-8.5,3.2c-2.3-1-6.1-2-6.1-5.3l0.1-1.5c2.2,1.4,2.6,6.7,6.6,5.1c4.5-3.4,5.3-8.8,7.4-13.4
			c2.9-6.6,2.8-15.2,9.8-19.3C422.3,68.3,426.6,73.3,429.7,77.5z"/>
		<path d="M396.9,74.5c-3.8,9.6-13.6,19.5-6.9,30.7c1.3,1.9,4.9,2,4.3,4.8c-4.1-0.3-6.1-4.6-7.8-7.8c-2.3-7.1,0.3-14.8,3.8-20.8
			c1.5-2.4,3.8-4.8,6.1-6.8H396.9z"/>
		<path d="M419.9,100.8c-11.6,9.5-21.2,21.5-24.5,35.2c0.4-14,8.4-27.2,21.2-34.4C417.6,101.3,418.7,100.8,419.9,100.8z"/>
		<path d="M472.8,108.5c-5.1-1-12.3-1.8-17.7,0c-4.8,3-9.5,5.8-14.4,8.3c4.9-6.3,12.1-9.3,19.3-11
			C464.8,105.6,469.3,105.9,472.8,108.5z"/>
		<path d="M361.6,117.7c-4,13.1-2.1,28.9,5.8,39.7c-8.1-3.2-8-13.1-9.6-20.7c-1.8-7.3,0.1-15.1,2.9-21.5c0.6-2.1,2.9-3.8,4.6-5.1
			C364.7,112.6,362.8,115.2,361.6,117.7z"/>
		<path d="M428.9,114.7c0.4,0.8,1.2,1.8,0.7,2.5c-3.6-1.6-7.1-4.5-11.4-3.4c-7.3,5.8-11.7,13.7-18.7,19.7c0.1-2.4,1.8-4.7,2.9-6.9
			c3.8-5.7,9.8-11.3,15.6-14.6C421.8,110.8,426.2,111.4,428.9,114.7z"/>
		<path d="M470,120.4c-6.5-2.1-12.5-7.4-20.2-4.6c1.8-2.6,5.4-2.6,8.5-2.3C462.7,114.8,467,116.5,470,120.4z"/>
		<path d="M445.8,128.4c0.6,2.2,1,4.5,1.7,6.6H447c-3.8-4.8-6.8-14.1-14.5-12.5c-6.2,2.1-9.9,9.9-16.6,10.5
			c-2.6-2.7-6.6-0.8-9.3,0.3c-2.6,1.9-5.2,4.6-6.8,7.3h-0.3c-0.4-3.9,2.9-7.4,6.3-9.3c7.6-3.6,17.7-1.8,23-10
			C435.4,120.3,442.5,121.9,445.8,128.4z"/>
		<path d="M435.7,132.9c-1.4-0.6-3.2-2.5-5.4-1.5c-2.9,2.3-4.6,5.6-6.6,8.5c0.7-3.6,2.9-7.9,6.6-9.8
			C432.5,130.1,434.5,131.1,435.7,132.9z"/>
		<path d="M493.3,187.8c3.3,8.8,8,21.8,0.5,30.2c-1.8,1.1-2.4,3.1-4.1,4.2c5.4-11.9,8-29.7-1.7-40.4c-3-5.3-8.4-10.3-13.7-12.9
			l-3.9-2.7C481.3,167.6,488.5,179.1,493.3,187.8z"/>
		<path d="M336.4,189.8c3.2,3.8,11.8,3.2,10.1,10.2c-1.5,2.9,1.8,6.6-1.5,8.8c-4.4,3.4-10.1,4.4-13.7,9.3c-0.3,1-0.3,2.3,0.7,2.9
			c2.1-0.1,3.3,2.2,4.1,3.7c-0.7,1-1.3-0.3-1.9-0.5c-1.6-1.5-4.1-2.1-4.8-4.4c1.3-6.2,8.2-8.3,12-12.9c2-2.3,2.9-5.2,2.2-8.3
			c-1.4-4.3-6.5-5.9-9-9.5c-0.1-1.4-0.2-2.9,1.2-3.6C338.1,186.5,335.4,188.3,336.4,189.8z"/>
		<path d="M385.1,220.9c2,4.3-3.1,9,1.1,12.7c5.9,5.3,11.8,10.3,19,12.5c11.6,0.8,20-11.1,32-5.8c1,0.8,1.7,1.9,2.3,3.1
			c-5.2-1.9-11-0.7-16.8-1c-6,4.7-14.7,6.4-22.2,3.9c-6.2-2.3-12.5-6.4-16.3-12.4c-0.6-1.4-0.7-3.6-0.2-5.1c-1.2-1.1-2.5,0.6-3.7,1
			c-7.3,2.8-14,7.2-20.7,11.5l-2.1,2.6c-1.1-0.5-2.4-1.1-3.6-0.9c-1.1,0.8-1.3,2.6-2.9,2.3c-1.1-0.9-2.1-2.1-3.5-2.1
			c0.4-0.7,1.7-0.8,2.5-0.5c0.6,0.4,1.2,0.8,1.9,0.8c1-0.8,1.5-2,2.5-2.5l1.9,0.3c8.4-6.1,17.7-10.3,26.8-14.7
			c1.6-0.9,1.2-2.4,1.7-3.8c-0.1-1.4-1.6-2.5-2.7-3.2c-0.4-0.3-1.1-0.2-1.6-0.2c-0.6,0.5-0.2,1.4,0,1.9c0.3,0.2,0.1,0.6,0.2,0.8
			c-1.4-0.3-2.8-1.1-3.4-2.5c-2.6-0.9-4.9,0.8-7.1,1.5c-2.4,2.6,3,4.2,1.4,6.9c-1.3,0.1-0.5-1.4-1.2-2c-0.6-1.3-1.9-2.2-3.1-2.8
			l-3.4,0.4l-12.2,6.1c-0.7,0.1-1.5,0.1-1.7-0.7c5.3-3.1,11.2-5.2,16.3-9.1c4.3-0.7,7.4-4.2,11.5-5.3
			C381,215.5,384.1,217.6,385.1,220.9z"/>
		<path d="M381,124c2.3,9.6,5.4,22.5-0.2,31.7c-2.3,2.2-5.2,2.8-7.6,4.4c-6.1,3.4-11.3,9.3-12.2,16.1c0.3,5.2,5.6,9.3,10,10.8
			c4.7,1.1,9-1,13-2.3c4.8-4.9,14.5-9.3,11.2-17.7c-0.4-1.1-1.6-1.9-2.7-2c-5.5-0.1-9,5.3-12.6,9c-0.3,0.6-0.9,1.4-1.7,0.9
			c-0.3-8.4,13.3-7.2,10.9-16.3c7.8-10.4,22.9-4.6,33.7-3.8c22.2,6,45.9,14.7,58.7,36.9c2,8.6,9.1,18.5,2.5,27.3
			c-2.1,1.9-3.4,4.4-5.8,6.1c-0.3-1.5,1.8-2.8,2.3-4.4c7.3-10.9,1.4-24.8-5.4-34.1c-16.7-20.9-40.1-27.9-65.6-28.8
			c-6.3-0.3-11.9,1.4-16.9,4.4c0.6,1.8,2.8,1.9,4.1,3.4l0.8,1.4c-1.1,7.6,0.6,17.9-8.6,20.5l-1.5-1.1c-4.3,2.3-8.5,4.7-13.7,4.4
			c-1.5,1.4-0.8,3.9-0.7,5.8c0.8,3.4,1.6,7.3,5.3,9.1c8.5,2.8,14.3-4.8,21-8.5c15.5-12.3,32.2-26.4,53.2-20
			c7.3,3.6,14.6,11.3,15.6,19.3c-2,5-0.6,11.3-4.4,15.6c-1.1,8-8.2,14.5-15.3,18c-16,5.9-37.6,6.4-54.2,1.3l16.3-0.5l0.5-0.5
			c-1-3.8-2.3-8.1-6.1-10.1c-4.7-1.8-5.9,5.2-10.5,3.2c-2.6-1.1-5-3.1-7.6-4.3c-0.7-0.6-0.1-1.7,0.2-2.3c0.6-0.4,0.8-1.1,0.7-1.8
			c-5.9-5.6-15.9-9.1-17.2-18.1c-0.4-2.1,0-4.3,0.4-6.3c-6-2.6-12.6-8.3-13.3-15.3c0.9-6.4,4.9-12.9,11.2-15.6
			c3.4,0.1,5.6-2.6,8.1-4.4c-1.1-1.1-2.5-2.4-2.9-4.1c-0.8-5.2-0.4-10.8,2.6-14.9c7.2-5.4,0.9-14-0.9-20l-6.1-7.4
			c0.6-1.3,1.8,0.2,2.7,0.3C377.3,113,379,118.7,381,124z M378.9,140.9c0.1,0.4,0.4,0.6,0.9,0.5c0.3-0.3,0-0.8,0.3-1
			C380.3,138.1,378.9,140.1,378.9,140.9z M448.4,180.4c-3.1-1.9-7.6-2.8-11.2-1.2c-4.8,7.3-1.3,17.3-3,25.9l0.3,0.3
			c6.2,0.3,10.8-3.6,14.9-7.9c2.8-4.2,1.3-10.4,0.7-15.1L448.4,180.4z M428.4,182.4c-5.9,2.9-11.4,7.1-16.8,10.7
			c0.4,5.7,1.1,11.6,2,17.3l0.7,1c5.6,1.1,9.6-2.5,14.2-4.1c2.1-6.9,2.6-15.6,0.9-22.8L428.4,182.4z M453.8,182.6
			c-0.4,2.8,0.6,5.4,1,8.1c0.6,1.4,1.1,3.4,3.1,3.6c1.5-1.4,3.1-2.9,2.2-5.1C459.1,186.5,456.5,183.6,453.8,182.6z M404.2,196.7
			c-3.3,2-6.4,4.7-9.7,6.8c-5.8,1.6,1.1,5.3-0.1,7.9c-3.4,0.5-3-3.8-5.6-5.1c-1.6,0-3.2,1.3-4.2,2.7c-0.4,2.6,3,4.1,4.4,6.3
			c6.9,0,15.8,2.2,20.8-3.2C408.4,206.9,410.3,199.1,404.2,196.7z M454.8,200.9c3,2.3,6.4,5,8.1,8.3c1.1,0.3,1.6-0.7,2.4-1.4
			c1.4-3.1-0.3-6.1-1.2-9C461.6,194.7,456.9,198.4,454.8,200.9z M456,205.8c-3.8-2.4-9.4-1.3-13.1,0.5c-1.4,1.1-3.6,1.5-4.4,3.4
			c4.1,4,7.8,8.6,11.7,12.2l1.2,0.2c4.2-2.1,9-6.1,9.6-11C460.2,208.8,457.8,207.4,456,205.8z M430.1,209.7c-2.3,0.7-5,2.2-5.3,4.9
			c0.5,3.8,2.1,7.2,3.4,10.6c0.6,1.3,0.1,3.2,1.2,4.1c4.3,0.8,8-1.4,11.8-2.5c0.5-0.4-0.1-0.7-0.1-1.1c0.3-5.8-2.7-10.3-5.6-14.7
			C434,209.8,432.1,209.1,430.1,209.7z M410.8,219.3c-1.1,4.3,2.4,7.1,3.4,10.7c3.9,0.2,8.1,0.4,11.5-0.9c-0.6-4.1-2.6-8-4.7-11.6
			C417.5,214.5,413.7,217.8,410.8,219.3z"/>
		<path d="M375,225.3c-0.9,0.6-2-0.3-3.1-0.5c0.4-0.9-0.1-2.3,1.1-2.7C374.7,222.4,373.6,224.5,375,225.3z"/>
		<path d="M379.8,225.8c-0.7,0.1-1.9,0.5-2.4-0.3c-0.1-0.9,0.3-1.7,0.7-2.4C378.7,223.8,379.4,224.8,379.8,225.8z"/>
		<path d="M348.6,232c0.1,0.4-0.4,0.8-0.7,0.9c-1.1,0.8-2.2-1.3-3.3,0.2c0.3,1,2,1.7,1.4,2.9c-0.8,0.7-2,0.1-2.9,0.5
			c-0.3,1.6,2.5,2.3,2.4,4.1c-1.4,0.1-1.9-1.9-3.2-2.4c-1.2-0.8-2.6-1.1-3.6-2.4c0.7-1.3,2.6-0.4,3.6-1.4c-0.1-1.1-1.5-1.5-1.2-2.7
			C343.3,230.6,346.5,230.9,348.6,232z"/>
		<path d="M354,234.3l0.5,3.4c-2.3-0.1-1.7-3.9-4.2-4.4c0-0.4-0.1-1.1,0.5-1.2C352.2,231.9,353.6,233,354,234.3z"/>
	</g>
	<g>
		<path class="st4" d="M89.4,141.1H74.1l0.1-0.9l0.3-2.8c0.7-7.5-1.3-10.3-4.8-8.6c-2.2,1.1-3.4,3.8-4.8,13L62.9,156l-0.2,2
			l-1.1,10.7c-0.8,7.1-0.7,9.6-0.3,11.4c0.8,3.1,3.9,4.1,6.6,1.7c2-1.8,2.7-3.9,3.8-12.6c0.1-0.9,0.1-1.8,0.2-2.8h-5.1l1.6-13.5
			h19.9L83,195.5H72.4l0.4-6.3c-0.4,0.6-0.8,1.1-1.2,1.5c-3.6,4.5-6.9,6.2-12.3,6.3c-11.9,0.1-15.5-7.5-13.2-31.7
			c3.6-38.1,8.7-47.6,22.6-50.2c16.1-2.9,22.2,5,21.3,21.8C89.8,138.3,89.7,139.7,89.4,141.1z"/>
		<path class="st4" d="M87.7,195.5l7.9-64.6h19.9c5.1,0,7.4,1.3,9.4,4.9c1.8,3.1,2.3,6.5,1.6,12.4c-1,8.6-3.6,12.7-8.4,14.9
			c-0.3,0.1-0.7,0.3-1.1,0.4c2.2,0.4,3.9,2.1,5,4.6c0.9,2.2,1.2,4.4,0.8,8l-1.5,12.7c-0.1,0.7-0.2,1.6-0.2,3l0,1.3l0,0.7
			c0,0.5,0.1,1.2,0.2,1.8h-12.6c-0.3-1.6-0.4-2.4,0.1-7.1c0.1-0.5,0.1-1.1,0.2-1.6l1.4-11.8c0.5-4-0.7-6-3.4-6h-3.2l-3.2,26.5
			C100.7,195.5,87.7,195.5,87.7,195.5z M107.8,158.1c0.3,0,0.7-0.1,1-0.2c2.3-0.6,3.6-2.3,4.4-5.3c1.5-6.5,0.2-9.4-3.7-9.4H107
			l-1.8,14.9H107.8z"/>
		<path class="st4" d="M126.6,175.8l5.5-44.9H145l-5.8,47.7c-0.6,5.2,0.3,7,2.8,6.9c2.5,0,3.8-1.7,4.5-6.9l5.8-47.7h12.9l-5.4,44.8
			c-2,16.1-8.8,22.9-23.5,20.6C128.2,195,125.1,188.6,126.6,175.8z"/>
		<path class="st4" d="M161.5,195.5l7.9-64.6h17.7l0.8,37.9l10-37.9h17.8l-7.9,64.6h-11.6l5.6-45.8l-12.2,45.8h-9.7l-1-45.8
			l-5.6,45.8H161.5z"/>
		<path class="st4" d="M212,195.5l7.9-64.6h18.8c8.5,0,12.2,4.8,12.2,15.7c0,15.2-7.1,24.1-18.3,24.1h-4.6l-3,24.8
			C224.9,195.5,212,195.5,212,195.5z M232.2,158.5c0.8,0,1.8-0.4,2.7-1.3c1-0.9,1.8-2.2,2.3-4.1c1.5-6.1-0.1-10-3-10h-3l-1.9,15.3
			H232.2z"/>
		<path class="st4" d="M251.1,130.9h14.2l2,23.7l7.8-23.7h14.2l-17.5,39.3l-3.1,25.3H256l3.1-25.3L251.1,130.9z"/>
		<path class="st4" d="M287.1,151.3l7.9-26.1h9.4l-9.9,26.1H287.1z"/>
		<path class="st4" d="M297.4,175.8h12c-0.1,0.5-0.2,1.1-0.2,1.7c-0.6,6.1,0.8,8.5,4,7.7c2.2-0.5,3.7-2.7,4.2-6.5
			c0.4-3.3-0.3-5.4-2.4-6.6l-7.9-5c-5.2-3.4-7.4-9-6.3-17.4c1.4-11.2,6.6-18,14.8-19.6c12.9-2.6,18.6,4.7,17,18.1
			c-0.1,0.4-0.1,0.9-0.2,1.4h-11.9c0.2-0.7,0.3-1.7,0.4-3.2c0.2-4.1-1.7-6.2-4.6-4.6c-1.3,0.7-2.1,2.2-2.5,4.8c-0.6,3.5,0.1,5,3,7.2
			l7.3,5.1c5.6,4,7.2,7.4,6.7,15.4c-0.1,2.4-0.5,4.7-1.1,6.8c-2.6,9.6-7.1,14.1-15.4,15.2c-13.8,1.9-19.3-5.4-17.2-18.8
			C297.2,177,297.3,176.4,297.4,175.8z"/>
	</g>
	<path d="M162.7,115.9H156c0.8-0.9,1.4-2,1.8-3.3c0.4-1.3,0.6-2.8,0.6-4.6c0-1.1-0.1-1.9-0.3-2.3c-0.2-0.4-0.5-0.7-0.9-0.7
		c-0.7,0-1.2,0.7-1.6,2c-0.2,0.7-0.5,1.2-0.6,1.5c-0.6,1.2-1.3,2.1-2.3,2.8c-1,0.7-2.1,1-3.3,1c-1.8,0-3.3-0.6-4.5-1.9
		c-1.2-1.3-1.8-2.9-1.8-4.8c0-1.5,0.3-2.9,1-4.4c0.7-1.5,2-3.5,3.9-5.9c0.5-0.6,1.2-1.5,2.2-2.7c4-4.9,7-9,9.2-12.5
		c1.9,3.1,4.9,7.1,8.8,12c1.1,1.4,2,2.4,2.5,3.1c1.9,2.5,3.2,4.4,3.9,5.9c0.7,1.5,1,3,1,4.5c0,1.9-0.6,3.5-1.8,4.8
		c-1.2,1.3-2.7,1.9-4.5,1.9c-1.2,0-2.3-0.3-3.3-1c-1-0.7-1.8-1.6-2.3-2.8c-0.2-0.3-0.4-0.9-0.6-1.5c-0.5-1.4-1-2-1.7-2
		c-0.4,0-0.7,0.2-0.9,0.7c-0.2,0.5-0.3,1.2-0.3,2.3c0,1.7,0.2,3.3,0.6,4.6C161.3,113.9,161.9,115,162.7,115.9L162.7,115.9z"/>
	<polygon class="st5" points="182.5,98.5 196.6,80.1 211.1,98.5 196.6,116.9 182.5,98.5 	"/>
	<path d="M246.2,116.1h-7.9c0.9-1.1,1.5-2.3,1.9-3.5c0.4-1.3,0.6-2.7,0.6-4.4c0-1.1-0.1-1.9-0.3-2.5c-0.2-0.6-0.5-0.9-1-0.9
		c-0.5,0-1,0.5-1.7,1.4c-0.4,0.5-0.7,0.9-0.9,1.2c-1.1,1.3-2.2,2.3-3.2,2.8c-1,0.5-2.1,0.8-3.3,0.8c-2,0-3.7-0.8-4.9-2.3
		c-1.3-1.5-1.9-3.5-1.9-6c0-2.5,0.6-4.5,1.9-6c1.3-1.6,3-2.3,4.9-2.3c1.5,0,3,0.5,4.7,1.6c1.7,1.1,2.7,1.6,3,1.6
		c0.3,0,0.5-0.1,0.7-0.2c0.2-0.2,0.3-0.4,0.3-0.7c0-0.4-0.7-1.2-2-2.4c-0.4-0.3-0.7-0.6-0.9-0.8c-0.7-0.6-1.3-1.4-1.7-2.4
		c-0.4-0.9-0.6-1.9-0.6-3c0-2.3,0.8-4,2.3-5.4c1.5-1.3,3.6-2,6.2-2c2.7,0,4.7,0.7,6.2,2c1.5,1.3,2.2,3.2,2.2,5.6
		c0,1-0.2,1.9-0.6,2.8c-0.4,0.9-1,1.8-1.8,2.4c-0.2,0.2-0.5,0.4-0.8,0.7c-1.4,1.2-2,2-2,2.4c0,0.3,0.1,0.5,0.3,0.7
		c0.2,0.2,0.4,0.2,0.7,0.2c0.3,0,1.3-0.5,3-1.6c1.7-1.1,3.2-1.6,4.7-1.6c2,0,3.6,0.8,4.9,2.3c1.3,1.6,2,3.6,2,6c0,2.4-0.6,4.4-1.9,6
		c-1.3,1.5-2.9,2.3-5,2.3c-1.3,0-2.4-0.3-3.4-0.8c-1-0.5-2-1.5-3.1-2.8c-0.2-0.3-0.5-0.7-0.9-1.1c-0.7-1-1.3-1.5-1.7-1.5
		c-0.4,0-0.7,0.3-0.9,0.8c-0.2,0.5-0.3,1.3-0.3,2.2c0,2,0.2,3.6,0.6,4.9C244.7,114,245.4,115.1,246.2,116.1L246.2,116.1z"/>
	<path class="st6" d="M284.9,115.6c-2.5-3.9-5.5-7.9-9-12.2c-0.6-0.8-1-1.3-1.2-1.6c-2.2-2.7-3.7-5-4.5-6.8
		c-0.8-1.8-1.2-3.6-1.2-5.4c0-2.5,0.7-4.5,2.1-6.1c1.4-1.6,3.1-2.4,5.3-2.4c1.5,0,2.9,0.4,4.1,1.3c1.2,0.9,2.1,2.1,2.8,3.8
		c0.1,0.2,0.2,0.5,0.4,0.9c0.4,1.2,0.9,1.9,1.4,1.9c0.5,0,0.9-0.6,1.3-1.8c0.1-0.3,0.2-0.5,0.2-0.6c0.6-1.8,1.6-3.1,2.8-4.1
		c1.2-1,2.6-1.4,4.2-1.4c2.1,0,3.9,0.8,5.3,2.4c1.4,1.6,2.1,3.6,2.1,6.1c0,1.8-0.4,3.6-1.2,5.4c-0.8,1.8-2.3,4.1-4.5,6.8
		c-0.3,0.4-0.8,1-1.6,1.9C290,108.1,287.2,112.1,284.9,115.6L284.9,115.6z"/>
	<path class="st7" d="M157,236.4c0,1,0.6,1.6,1.6,1.6c1.4,0,3.3-1.1,4.6-3c-0.4-0.7-0.5-1.7-0.5-2.7c0-2.8,1.4-4.6,2.3-4.6
		c0.7,0,1.2,1.2,1.2,2.7c0,1.2-0.3,2.6-0.8,4c0.3,0.4,0.7,0.5,1,0.5c1.4,0,2.8-1.1,4.5-3.2c0.2-0.3,0.4-0.3,0.5,0.1
		c0.2,0.6,0.2,1.3-0.2,1.9c-1,1.3-2.7,3.4-5,3.4c-0.7,0-1.3-0.2-1.9-0.6c-1.6,2.7-4.1,4.9-7,4.9c-2.5,0-4-1.9-4-4.5
		c0-4.3,2.9-8.4,6.8-13.9c3.6-4.9,11.4-14.4,15.1-18.6c0.3-0.3,0.4-0.3,0.7-0.1c0.7,0.5,1.3,1.2,1.3,2.2c0,1.7-1.5,4.1-4.4,7.7
		C168.1,220.4,157,231.2,157,236.4z"/>
	<path class="st7" d="M179,240.3c-1.9,0-3-1.3-2.5-3.2c-2,2-4.6,3.8-6.7,3.8c-1.3,0-2.5-0.7-2.5-2.5c0-5,8.4-13.2,14.8-13.2
		c1.8,0,2.7,0.8,2.7,1.7c-0.1,1.3-1.1,3-2.6,3.1c-1.2,0.1-1.7-0.4-1.7-1.1c0-0.5,0.4-1.1,0.4-1.5c0-0.2-0.1-0.3-0.3-0.3
		c-2,0-7.8,5.8-7.8,8.9c0,0.7,0.4,1,0.8,1c1,0,2.7-1.1,4.2-2.6c1.1-1,2.1-2.3,2.9-3.1c0.4-0.4,0.7-0.4,1.2,0.1
		c0.4,0.5,0.8,1.3,0.4,2.1c-0.7,1.2-1.6,2.4-1.6,3.2c0,0.3,0.2,0.5,0.5,0.5c2,0,5-3.2,6.7-5.4c0.2-0.3,0.3-0.3,0.5,0.1
		c0.3,0.6,0.2,1.3-0.2,1.9C186.3,235.9,182.8,240.3,179,240.3z"/>
	<path class="st7" d="M192.6,240.3c-1.6,0-2.8-1.1-2.8-2.7c0-2.7,2.9-6.2,5.7-8.6c-1.4,0.3-3.2,1.4-5.2,1.5c-0.6,1.1-1.3,2.1-2,3.1
		c-0.2,0.3-0.4,0.3-0.5-0.1c-0.2-0.6-0.2-1.3,0.2-1.9c0.3-0.4,0.7-1,1-1.6c-0.5-0.4-0.7-1-0.7-1.7c0-2,2.4-4.3,3.5-4.3
		c0.4,0,0.7,0.3,0.7,0.9c0,0.5-0.2,1.2-0.5,2c1.2-0.4,3.6-1.3,5.1-1.4c0.9-0.1,1,0.2,1.3,0.9c0.2,0.5,0.4,1.3,0.4,1.9
		c0,0.7-0.2,1-0.7,1.6c-1.6,1.5-4.1,4.8-4.1,6.5c0,0.4,0.3,0.6,0.7,0.6c2,0,4.7-2.8,6.7-5.4c0.2-0.3,0.4-0.3,0.5,0.1
		c0.2,0.6,0.2,1.3-0.2,1.9C199.7,235.9,196.3,240.3,192.6,240.3z"/>
	<path class="st7" d="M229.8,232.8c1.3-1.6,2.1-3.3,2.8-5.1c0.2-0.5,0.4-0.4,0.6-0.1c0.7,1,0.9,2.6,0.5,3.9
		c-0.6,1.6-1.4,3.2-2.6,4.6c0.8,1.9,1.9,3.5,3,4.9c0.3,0.4,0.3,0.6-0.1,0.7c-0.6,0.2-1.5,0.2-2.4,0.1c-1.4-0.2-2.4-0.9-3.5-2.7
		c-2.9,2.4-6.7,4-10.6,4c-4.2,0-7.3-2.5-7.3-6.7c0-6.4,7-10.8,14.2-13.7c0.4-8.3,5.2-16.1,12.5-16.1c3.5,0,5.2,2,5.2,5
		c0,5.8-7,9.8-14,12.9C228.5,227.4,229,230.3,229.8,232.8z M224.6,226.1c-6,2.8-9.7,6.1-9.7,9.6c0,2.2,1.5,3.5,3.8,3.5
		c2.7,0,5.6-1.3,8.1-3.3C225.6,233,224.8,229.4,224.6,226.1z M238.1,211.2c-0.1-1.1-0.7-1.8-1.9-1.8c-3.9,0-7.4,5.2-7.9,11.9
		C234.1,218.5,238.3,214.6,238.1,211.2z"/>
	<path class="st7" d="M257,242.3c-4.5,4.3-9,10.2-12,16.4c-0.3,0.5-0.5,0.6-1,0.3c-0.4-0.3-0.8-0.6-1.2-1.1
		c-0.7-0.9-0.6-2.1,0.5-4.3c2.6-4.9,9.8-12.3,13.4-17.7c-2.3,2.6-5.3,4.7-7.7,4.7c-1.6,0-3.1-0.8-3.1-2.9c0-5.2,8.3-12.1,14.2-12.1
		c1.9,0,2.8,1.1,2.8,2.3c0,1.7-1.7,3.2-3.2,3.2c-0.8,0-1.4-0.3-1.4-1c0-0.8,0.6-1.4,0.7-2c0-0.3-0.2-0.4-0.4-0.4
		c-1.9,0-7.2,4.9-7.2,7.8c0,0.7,0.3,1.1,1,1.1c1.8,0,4.2-2.3,5.6-3.5c0.4-0.3,0.6-0.3,1,0.1c0.4,0.3,0.7,0.6,0.9,1.1
		c0.3,0.6,0.1,1.2-0.4,2.1c-0.5,1-1.2,2-2,3.1c2.7-2.2,5.2-4.6,7.5-7.6c0.2-0.3,0.4-0.3,0.5,0.1c0.2,0.6,0.2,1.3-0.2,1.9
		C262.8,236.7,259.5,239.8,257,242.3z"/>
	<path class="st7" d="M269.7,240.3c-1.6,0-2.8-1.1-2.8-2.7c0-2.7,2.9-6.2,5.7-8.6c-1.4,0.3-3.2,1.4-5.2,1.5c-0.6,1.1-1.3,2.1-2,3.1
		c-0.2,0.3-0.4,0.3-0.5-0.1c-0.2-0.6-0.2-1.3,0.2-1.9c0.3-0.4,0.7-1,1-1.6c-0.5-0.4-0.7-1-0.7-1.7c0-2,2.4-4.3,3.5-4.3
		c0.4,0,0.7,0.3,0.7,0.9c0,0.5-0.2,1.2-0.5,2c1.2-0.4,3.6-1.3,5.1-1.4c0.9-0.1,1,0.2,1.3,0.9c0.2,0.5,0.4,1.3,0.4,1.9
		c0,0.7-0.2,1-0.7,1.6c-1.6,1.5-4.1,4.8-4.1,6.5c0,0.4,0.3,0.6,0.7,0.6c2,0,4.7-2.8,6.7-5.4c0.2-0.3,0.4-0.3,0.5,0.1
		c0.2,0.6,0.2,1.3-0.2,1.9C276.8,235.9,273.4,240.3,269.7,240.3z"/>
	<path class="st7" d="M281.6,227.3c0.3-0.3,0.5-0.3,0.7-0.1c0.4,0.3,0.7,0.9,0.9,1.3c0.3,0.7,0.1,1.3-0.3,2.1
		c-0.9,1.7-3.1,4.1-3.1,5.7c0,0.6,0.3,1,0.9,1c2.5,0,5.2-3.5,6.8-5.6c0.2-0.3,0.4-0.2,0.5,0.1c0.4,0.7,0.3,1.2-0.2,1.9
		c-1.6,2.1-5.4,6.9-9.2,6.9c-2,0-3.2-1-3.2-3.2C275.5,234.5,278.9,230,281.6,227.3z M289.3,221.4c0,2.2-2.1,4.7-4.2,4.7
		c-1,0-1.6-0.7-1.6-1.8c0-1.8,2.1-4.6,4.3-4.6C288.7,219.6,289.3,220.3,289.3,221.4z"/>
	<path class="st7" d="M290.6,237.3c2.7,0,5.6-3.3,7.4-5.6c0.2-0.3,0.4-0.2,0.5,0.1c0.3,0.7,0.2,1.3-0.2,1.9c-1.8,2.3-5.5,7-9.4,7
		c-2.1,0-3.5-1.4-3.5-3.6c0-4,3.6-8.5,10.4-17.8c3.7-5,10.3-13.1,11.7-14.9c0.2-0.3,0.4-0.3,0.6-0.1c0.4,0.3,0.8,0.9,1,1.3
		c0.3,0.6,0.3,1.2,0.1,1.9c-0.4,1.4-1.9,3.6-4.4,6.8c-5,6.5-15.5,18-15.5,22C289.4,236.9,289.9,237.3,290.6,237.3z"/>
	<path class="st7" d="M301,237.3c2.7,0,5.6-3.3,7.4-5.6c0.2-0.3,0.4-0.2,0.5,0.1c0.3,0.7,0.2,1.3-0.2,1.9c-1.8,2.3-5.4,7-9.4,7
		c-2.1,0-3.5-1.4-3.5-3.6c0-4,3.6-8.5,10.4-17.8c3.7-5,10.3-13.1,11.7-14.9c0.2-0.3,0.4-0.3,0.6-0.1c0.4,0.3,0.8,0.9,1,1.3
		c0.3,0.6,0.3,1.2,0.1,1.9c-0.4,1.4-1.9,3.6-4.4,6.8c-5,6.5-15.5,18-15.5,22C299.8,236.9,300.4,237.3,301,237.3z"/>
</g>
</svg>
