<svg xmlns="http://www.w3.org/2000/svg" viewBox="0 0 32 32">
  <path id="Twitter" d="M.8 25.2c2.7 1.8 6 2.8 9.5 2.8 11.5 0 18-9.7 17.6-18.4 1.2-.9 2.3-2 3.1-3.2-1.1.5-2.3.8-3.6 1 1.3-.8 2.3-2 2.7-3.4-1.2.7-2.5 1.2-3.9 1.5-1.1-1.2-2.7-2-4.5-2-4 0-6.9 3.7-6 7.6-5.2-.3-9.7-2.7-12.8-6.5C1.3 7.4 2 11 4.8 12.8c-1 0-2-.3-2.8-.8-.1 2.9 2 5.6 5 6.2-.9.2-1.8.3-2.8.1.8 2.5 3.1 4.3 5.8 4.3-2.7 2.1-5.9 3-9.2 2.6z" />
  <path id="Facebook" d="M0 0v32h19.2V21.4h-3.9v-4.5h3.9v-3.3c0-3.9 2.4-6 5.8-6 1.7 0 3.1.1 3.5.2v4h-2.4c-1.9 0-2.2.9-2.2 2.2v2.9h4.5l-.6 4.5h-3.9V32H32V0H0z"/>
  <path id="Email" d="M.2 5.8v22.1h31.6V5.8H.2zm27.6 1.6L16 18.8 4.1 7.4h23.7zm2.4 18.9H1.8V7.4h.1L16 20.9 30.1 7.4h.1v18.9z" />
  <path id="Instagram" d="M16.2 0c-4.3 0-4.8 0-6.5.1C8 .2 6.8.4 5.8.8c-1 .4-1.9 1-2.8 1.8S1.6 4.4 1.2 5.4C.8 6.4.5 7.6.5 9.2c-.1 1.7-.1 2.2-.1 6.5s0 4.8.1 6.5c.1 1.7.3 2.8.7 3.8.4 1 .9 1.9 1.8 2.8.9.9 1.8 1.4 2.8 1.8 1 .4 2.2.7 3.8.7 1.7.1 2.2.1 6.5.1s4.8 0 6.5-.1c1.7-.1 2.8-.3 3.8-.7 1-.4 1.9-.9 2.8-1.8.9-.9 1.4-1.8 1.8-2.8.4-1 .7-2.2.7-3.8.1-1.7.1-2.2.1-6.5s0-4.8-.1-6.5c-.1-1.7-.3-2.8-.7-3.8-.4-1-.9-1.9-1.8-2.8-.9-.9-1.8-1.4-2.8-1.8-1-.4-2.2-.7-3.8-.7C21 0 20.5 0 16.2 0zm0 2.8c4.2 0 4.7 0 6.4.1 1.5.1 2.4.3 2.9.5.7.3 1.3.6 1.8 1.2.6.6.9 1.1 1.2 1.8.2.6.5 1.5.6 3 .1 1.7.1 2.2.1 6.4s0 4.7-.1 6.4c-.1 1.5-.3 2.4-.6 2.9-.3.7-.6 1.3-1.2 1.8-.6.6-1.1.9-1.8 1.2-.6.2-1.4.5-2.9.5-1.7.1-2.2.1-6.4.1s-4.7 0-6.4-.1c-1.5-.1-2.4-.3-3-.6-.8-.2-1.3-.5-1.9-1-.6-.6-.9-1.1-1.2-1.8-.2-.6-.5-1.4-.6-2.9-.1-1.7-.1-2.2-.1-6.4s0-4.7.1-6.4c.2-1.7.4-2.5.7-3.1.2-.7.6-1.2 1.1-1.8.6-.5 1.1-.9 1.9-1.2.6-.2 1.4-.5 2.9-.6h6.5c-.1 0 0 0 0 0zm0 4.9c-4.5 0-8.1 3.6-8.1 8.1s3.6 8.1 8.1 8.1 8.1-3.6 8.1-8.1-3.6-8.1-8.1-8.1zm0 13.4c-2.9 0-5.3-2.4-5.3-5.3s2.4-5.3 5.3-5.3 5.3 2.4 5.3 5.3-2.4 5.3-5.3 5.3zM26.5 7.4c0 1-.9 1.9-1.9 1.9-1 0-1.9-.9-1.9-1.9s.9-1.9 1.9-1.9c1.1 0 1.9.8 1.9 1.9z" />
  <path id="Untappd" d="M14.7 18.2L6.9 29c-.4.6-1.1.8-1.7.8-.8-.1-1.8-.4-2.9-1.2s-1.7-1.7-2-2.4c-.3-.6-.2-1.3.2-1.9l7.8-10.8c.2-.5.7-1 1.2-1.3l1.5-.8c.3-.2.6-.4.8-.6.7-.8 2.7-3 6.3-6.6l.1-.3c0-.1.1-.1.1-.1h.2c.1 0 .1-.1.1-.2v-.2c0-.1.1-.2.2-.2.2 0 .7.1 1.3.5s.9.9.9 1.1c0 .1 0 .2-.1.2h-.2c-.1 0-.1.1-.1.2v.2c0 .1 0 .1-.1.2l-.2.1c-2.2 4.5-3.7 7.1-4.2 8.1-.2.3-.3.6-.3 1l-.3 1.7c-.2.6-.5 1.2-.8 1.7zm17 6.1l-7.8-10.8c-.4-.5-.9-.9-1.4-1.2l-1.5-.8c-.3-.2-.6-.4-.8-.6-.3-.3-.5-.6-.8-.9h-.2c-.7 1.4-1.5 2.9-2.3 4.3-.1.2-.2.4-.2.6-.1.5-.1 1 0 1.5v.1c.1.6.3 1.2.7 1.7L25.1 29c.4.6 1.1.8 1.7.8 1.1-.1 2.1-.5 2.9-1.2.9-.6 1.6-1.4 2-2.4.4-.6.3-1.3 0-1.9zM11.1 5h.2c.1 0 .1.1.1.2v.2c0 .1 0 .1.1.2l.2.1c.4.8.8 1.6 1.2 2.3 0 .1.1.1.2 0 .6-.6 1.3-1.4 2.1-2.2.1-.1.1-.2 0-.3-.4-.4-.9-.9-1.3-1.4l-.1-.3c0-.1-.1-.1-.1-.1h-.2c-.1 0-.1-.1-.1-.2v-.2c0-.1-.1-.2-.2-.2-.2 0-.7.1-1.3.5-.6.5-.9.9-.9 1.1-.1.1 0 .2.1.3z" />
  <path id="Yelp" d="M30.2 24.3c-.2 1.3-2.8 4.6-4 5.1-.4.2-.8.1-1.1-.1-.2-.2-.4-.5-3.2-5l-.9-1.4c-.3-.5-.3-1.1.1-1.6s1-.6 1.5-.5l2.1.7c4.7 1.6 4.9 1.6 5.1 1.8.3.2.4.6.4 1zm-9.5-6.9c-.3-.5-.3-1.1 0-1.5l1.3-1.8c2.9-3.9 3-4.1 3.2-4.3.3-.2.7-.2 1.1 0 1.1.6 3.4 4 3.6 5.3 0 .4-.1.8-.5 1-.2.1-.4.2-5.8 1.5-.8.2-1.3.3-1.6.4-.3.2-.9-.1-1.3-.6.1 0 0 0 0 0zm-3.3-2.1c-.3.1-1 .3-2-1.2 0 0-6.5-10.2-6.6-10.5-.1-.4 0-.8.3-1.1 1-1 6.2-2.5 7.6-2.1.4.1.8.4.9.8.1.4.7 9.9.8 12 .1 1.8-.7 2.1-1 2.1zm.9 10.4c0 5 0 5.1-.1 5.4-.1.4-.5.6-.9.7-1.3.2-5.2-1.2-6-2.2-.2-.2-.3-.4-.3-.6 0-.2 0-.3.1-.5.1-.3.2-.5 3.8-4.6l1-1.2c.4-.5 1-.6 1.6-.4.6.2.9.7.9 1.2l-.1 2.2zM7.5 22.5c-.4 0-.7-.2-.9-.6-.1-.3-.2-.7-.3-1.3-.2-1.7 0-4.3.6-5.1.2-.4.6-.6 1-.6.3 0 .5.1 5.6 2.2l1.5.6c.5.2.9.7.8 1.4 0 .6-.4 1.1-.9 1.2l-2.2.7c-4.7 1.5-4.9 1.5-5.2 1.5zm19.7 9.4z" />
</svg>