<?xml version="1.0" encoding="utf-8"?>
<!-- Generator: Adobe Illustrator 22.1.0, SVG Export Plug-In . SVG Version: 6.00 Build 0)  -->
<svg version="1.1" xmlns="http://www.w3.org/2000/svg" xmlns:xlink="http://www.w3.org/1999/xlink" x="0px" y="0px"
	 viewBox="0 0 32 32" style="enable-background:new 0 0 32 32;" xml:space="preserve">
<style type="text/css">
	.st0{fill:#C6943B;}
</style>
<g id="Twitter">
	<path class="st0" d="M0.8,25.2c2.7,1.8,6,2.8,9.5,2.8c11.5,0,18-9.7,17.6-18.4c1.2-0.9,2.3-2,3.1-3.2c-1.1,0.5-2.3,0.8-3.6,1
		c1.3-0.8,2.3-2,2.7-3.4c-1.2,0.7-2.5,1.2-3.9,1.5c-1.1-1.2-2.7-2-4.5-2c-4,0-6.9,3.7-6,7.6C10.5,10.8,6,8.4,2.9,4.6
		C1.3,7.4,2,11,4.8,12.8c-1,0-2-0.3-2.8-0.8c-0.1,2.9,2,5.6,5,6.2c-0.9,0.2-1.8,0.3-2.8,0.1c0.8,2.5,3.1,4.3,5.8,4.3
		C7.3,24.7,4.1,25.6,0.8,25.2z"/>
</g>
<g id="Facebook">
	<path class="st0" d="M0,0v32h19.2V21.4h-3.9v-4.5h3.9v-3.3c0-3.9,2.4-6,5.8-6c1.7,0,3.1,0.1,3.5,0.2v4h-2.4c-1.9,0-2.2,0.9-2.2,2.2
		v2.9h4.5l-0.6,4.5h-3.9V32H32V0H0z"/>
</g>
<g id="Email">
	<path class="st0" d="M0.2,5.8v22.1h31.6V5.8H0.2z M27.8,7.4L16,18.8L4.1,7.4H27.8z M30.2,26.3H1.8V7.4h0.1L16,20.9L30.1,7.4h0.1
		C30.2,7.4,30.2,26.3,30.2,26.3z"/>
</g>
<g id="Instagram">
	<path d="M16.2,0c-4.3,0-4.8,0-6.5,0.1C8,0.2,6.8,0.4,5.8,0.8C4.8,1.2,3.9,1.8,3,2.6S1.6,4.4,1.2,5.4c-0.4,1-0.7,2.2-0.7,3.8
		c-0.1,1.7-0.1,2.2-0.1,6.5s0,4.8,0.1,6.5c0.1,1.7,0.3,2.8,0.7,3.8c0.4,1,0.9,1.9,1.8,2.8c0.9,0.9,1.8,1.4,2.8,1.8
		c1,0.4,2.2,0.7,3.8,0.7c1.7,0.1,2.2,0.1,6.5,0.1s4.8,0,6.5-0.1c1.7-0.1,2.8-0.3,3.8-0.7c1-0.4,1.9-0.9,2.8-1.8
		c0.9-0.9,1.4-1.8,1.8-2.8c0.4-1,0.7-2.2,0.7-3.8c0.1-1.7,0.1-2.2,0.1-6.5s0-4.8-0.1-6.5c-0.1-1.7-0.3-2.8-0.7-3.8
		c-0.4-1-0.9-1.9-1.8-2.8c-0.9-0.9-1.8-1.4-2.8-1.8c-1-0.4-2.2-0.7-3.8-0.7C21,0,20.5,0,16.2,0z M16.2,2.8c4.2,0,4.7,0,6.4,0.1
		c1.5,0.1,2.4,0.3,2.9,0.5c0.7,0.3,1.3,0.6,1.8,1.2c0.6,0.6,0.9,1.1,1.2,1.8C28.7,7,29,7.9,29.1,9.4c0.1,1.7,0.1,2.2,0.1,6.4
		s0,4.7-0.1,6.4c-0.1,1.5-0.3,2.4-0.6,2.9c-0.3,0.7-0.6,1.3-1.2,1.8c-0.6,0.6-1.1,0.9-1.8,1.2c-0.6,0.2-1.4,0.5-2.9,0.5
		c-1.7,0.1-2.2,0.1-6.4,0.1c-4.2,0-4.7,0-6.4-0.1c-1.5-0.1-2.4-0.3-3-0.6C6,27.8,5.5,27.5,4.9,27c-0.6-0.6-0.9-1.1-1.2-1.8
		c-0.2-0.6-0.5-1.4-0.6-2.9c-0.1-1.7-0.1-2.2-0.1-6.4c0-4.2,0-4.7,0.1-6.4C3.3,7.8,3.5,7,3.8,6.4C4,5.7,4.4,5.2,4.9,4.6
		C5.5,4.1,6,3.7,6.8,3.4c0.6-0.2,1.4-0.5,2.9-0.6C11.4,2.8,11.9,2.8,16.2,2.8C16.1,2.8,16.2,2.8,16.2,2.8z M16.2,7.7
		c-4.5,0-8.1,3.6-8.1,8.1c0,4.5,3.6,8.1,8.1,8.1c4.5,0,8.1-3.6,8.1-8.1C24.3,11.3,20.7,7.7,16.2,7.7z M16.2,21.1
		c-2.9,0-5.3-2.4-5.3-5.3s2.4-5.3,5.3-5.3s5.3,2.4,5.3,5.3S19.1,21.1,16.2,21.1z M26.5,7.4c0,1-0.9,1.9-1.9,1.9
		c-1,0-1.9-0.9-1.9-1.9s0.9-1.9,1.9-1.9C25.7,5.5,26.5,6.3,26.5,7.4z"/>
</g>
<g id="Untappd">
	<path d="M14.7,18.2L6.9,29c-0.4,0.6-1.1,0.8-1.7,0.8c-0.8-0.1-1.8-0.4-2.9-1.2s-1.7-1.7-2-2.4c-0.3-0.6-0.2-1.3,0.2-1.9l7.8-10.8
		C8.5,13,9,12.5,9.5,12.2l1.5-0.8c0.3-0.2,0.6-0.4,0.8-0.6c0.7-0.8,2.7-3,6.3-6.6l0.1-0.3c0-0.1,0.1-0.1,0.1-0.1l0.2,0
		c0.1,0,0.1-0.1,0.1-0.2l0-0.2c0-0.1,0.1-0.2,0.2-0.2c0,0,0,0,0,0c0.2,0,0.7,0.1,1.3,0.5s0.9,0.9,0.9,1.1c0,0.1,0,0.2-0.1,0.2
		c0,0,0,0,0,0L20.7,5c-0.1,0-0.1,0.1-0.1,0.2l0,0.2c0,0.1,0,0.1-0.1,0.2l-0.2,0.1c-2.2,4.5-3.7,7.1-4.2,8.1c-0.2,0.3-0.3,0.6-0.3,1
		l-0.3,1.7C15.3,17.1,15,17.7,14.7,18.2L14.7,18.2z M31.7,24.3l-7.8-10.8c-0.4-0.5-0.9-0.9-1.4-1.2l-1.5-0.8
		c-0.3-0.2-0.6-0.4-0.8-0.6c-0.3-0.3-0.5-0.6-0.8-0.9c0,0-0.1,0-0.2,0c0,0,0,0,0,0c-0.7,1.4-1.5,2.9-2.3,4.3
		c-0.1,0.2-0.2,0.4-0.2,0.6c-0.1,0.5-0.1,1,0,1.5l0,0.1c0.1,0.6,0.3,1.2,0.7,1.7L25.1,29c0.4,0.6,1.1,0.8,1.7,0.8
		c1.1-0.1,2.1-0.5,2.9-1.2c0.9-0.6,1.6-1.4,2-2.4C32.1,25.6,32,24.9,31.7,24.3L31.7,24.3z M11.1,5L11.3,5c0.1,0,0.1,0.1,0.1,0.2
		l0,0.2c0,0.1,0,0.1,0.1,0.2l0.2,0.1c0.4,0.8,0.8,1.6,1.2,2.3c0,0.1,0.1,0.1,0.2,0c0.6-0.6,1.3-1.4,2.1-2.2c0.1-0.1,0.1-0.2,0-0.3
		c-0.4-0.4-0.9-0.9-1.3-1.4l-0.1-0.3c0-0.1-0.1-0.1-0.1-0.1l-0.2,0c-0.1,0-0.1-0.1-0.1-0.2l0-0.2c0-0.1-0.1-0.2-0.2-0.2c0,0,0,0,0,0
		c-0.2,0-0.7,0.1-1.3,0.5c-0.6,0.5-0.9,0.9-0.9,1.1C10.9,4.8,11,4.9,11.1,5C11.1,5,11.1,5,11.1,5L11.1,5z"/>
</g>
<g id="Yelp">
	<path d="M30.2,24.3c-0.2,1.3-2.8,4.6-4,5.1c-0.4,0.2-0.8,0.1-1.1-0.1c-0.2-0.2-0.4-0.5-3.2-5L21,22.9c-0.3-0.5-0.3-1.1,0.1-1.6
		c0.4-0.5,1-0.6,1.5-0.5c0,0,2.1,0.7,2.1,0.7c4.7,1.6,4.9,1.6,5.1,1.8C30.1,23.5,30.2,23.9,30.2,24.3L30.2,24.3L30.2,24.3z
		 M20.7,17.4c-0.3-0.5-0.3-1.1,0-1.5l1.3-1.8c2.9-3.9,3-4.1,3.2-4.3c0.3-0.2,0.7-0.2,1.1,0c1.1,0.6,3.4,4,3.6,5.3v0
		c0,0.4-0.1,0.8-0.5,1c-0.2,0.1-0.4,0.2-5.8,1.5c-0.8,0.2-1.3,0.3-1.6,0.4l0,0C21.7,18.2,21.1,17.9,20.7,17.4
		C20.8,17.4,20.7,17.4,20.7,17.4z M17.4,15.3c-0.3,0.1-1,0.3-2-1.2c0,0-6.5-10.2-6.6-10.5c-0.1-0.4,0-0.8,0.3-1.1
		c1-1,6.2-2.5,7.6-2.1c0.4,0.1,0.8,0.4,0.9,0.8c0.1,0.4,0.7,9.9,0.8,12C18.5,15,17.7,15.3,17.4,15.3z M18.3,25.7c0,5,0,5.1-0.1,5.4
		c-0.1,0.4-0.5,0.6-0.9,0.7c-1.3,0.2-5.2-1.2-6-2.2c-0.2-0.2-0.3-0.4-0.3-0.6c0-0.2,0-0.3,0.1-0.5c0.1-0.3,0.2-0.5,3.8-4.6l1-1.2
		c0.4-0.5,1-0.6,1.6-0.4c0.6,0.2,0.9,0.7,0.9,1.2L18.3,25.7L18.3,25.7z M7.5,22.5c-0.4,0-0.7-0.2-0.9-0.6c-0.1-0.3-0.2-0.7-0.3-1.3
		c-0.2-1.7,0-4.3,0.6-5.1c0.2-0.4,0.6-0.6,1-0.6c0.3,0,0.5,0.1,5.6,2.2l1.5,0.6c0.5,0.2,0.9,0.7,0.8,1.4c0,0.6-0.4,1.1-0.9,1.2
		L12.7,21C8,22.5,7.8,22.5,7.5,22.5C7.5,22.5,7.5,22.5,7.5,22.5z M27.2,31.9L27.2,31.9L27.2,31.9C27.2,31.9,27.2,31.9,27.2,31.9z"/>
</g>
</svg>
