<?xml version="1.0" encoding="utf-8"?>
<!-- Generator: Adobe Illustrator 22.1.0, SVG Export Plug-In . SVG Version: 6.00 Build 0)  -->
<svg version="1.1" id="Layer_1" xmlns="http://www.w3.org/2000/svg" xmlns:xlink="http://www.w3.org/1999/xlink" x="0px" y="0px"
	 viewBox="0 0 562 298" style="enable-background:new 0 0 562 298;" xml:space="preserve">
<style type="text/css">
	.st0{fill:#3F3B3C;}
	.st1{fill:#00AFB1;}
	.st2{fill:none;}
	.st3{fill:#FFFFFF;}
	.st4{fill:#231F20;}
</style>
<g>
	<g>
		<g>
			<g>
				<g>
					<g>
						<path class="st0" d="M50.3,39.3c-0.7-0.2-1.8-0.4-2.7-0.7C50.2,39.2,51.4,39.5,50.3,39.3z"/>
						<path class="st0" d="M14.5,31.2c9.2,2,23.8,5.2,33.1,7.5C39.5,37,18,32.5,14.5,31.2z"/>
						<path class="st0" d="M52.9,41.1l-11.5-2.8C47.8,39.5,46.9,39.6,52.9,41.1z"/>
						<polygon class="st0" points="48.2,39.3 48.6,39.2 54.9,40.8 						"/>
						<path class="st0" d="M519.1,114.8c0.3-1.1,0.6-1.9,0.8-1.3L519.1,114.8z"/>
						<path class="st0" d="M513,141.3c-0.4,2.4-0.7,4.1-1,5.5C512.3,145.2,512.6,143.8,513,141.3z"/>
						<path class="st0" d="M522.9,90.5l-0.7,4.7C522.4,93.8,522.6,92.1,522.9,90.5z"/>
						<path class="st0" d="M315.1,47.1c-4.5,0.5-8.7,1-11.9,1.4C311.8,46.7,312.6,47.2,315.1,47.1z"/>
						<path class="st0" d="M487.4,252.9l-1.2,0.1C485,252.6,484.4,252.3,487.4,252.9z"/>
						<path class="st0" d="M507.2,146.9c0.2-0.1,0.3,0.2,0.3,0.7c-0.1,0.4-0.2,0.9-0.3,1.4V146.9z"/>
						<path class="st0" d="M525.4,71.6c0,0,0-0.2,0-0.3l0.8-3.8C525.9,69.6,525.7,70.9,525.4,71.6z"/>
						<path class="st0" d="M450.1,245.4c-1.6-0.5-3.2-1-4.5-1.5C449.1,244.7,450.7,245.3,450.1,245.4z"/>
						<path class="st0" d="M511.9,147.5L511.9,147.5c0-0.1,0.1-0.5,0.1-0.7C512,147.1,512,147.3,511.9,147.5z"/>
						<path class="st0" d="M513.8,108.4c-0.4,2.1-0.7,4-1.2,6.1C513,111.9,513.5,109.7,513.8,108.4z"/>
						<path class="st0" d="M315.1,47.1c1.3-0.1,2.5-0.3,3.8-0.4C317.1,47,316,47.1,315.1,47.1z"/>
						<path class="st0" d="M80.8,45.5c3.7,0.8,4.7,1.2,5.4,1.5C84.2,46.5,82.3,46,80.8,45.5z"/>
						<path class="st0" d="M15,39.2l-0.3-1.5C14.9,38.4,15,38.9,15,39.2z"/>
						<path class="st0" d="M39.3,183c0.1,0.7,0.1,1.4,0.1,1.9C39.1,183.7,39.1,183,39.3,183z"/>
						<path class="st0" d="M119.7,221.2c-9,3.1-18.6,5-26.5,7.2L96,228l-8.1,2l0.2,0.5c-13.3,3.6-29.5,8.9-34.5,9.5l1.8,0.4
							l-3.5,0.8l5.3,3.3l-1.4-10.7l0.9,8.2c-3-15.9-6.7-39.9-7.4-43.2v1.4c-0.6-2.6-0.8-4.6-1.2-7.3L48,195
							c-2.1-11.9-3.8-19.5-5.4-27.5c-1.7-8-3.3-16.3-5.6-29.6c-1.5-7.3,0.6,4,0.4,4c-1.1-4.1-2.5-13.3-2.7-15.3
							c-0.3,1.8,2,13.2-0.1,4.4c-0.8-6,0.1,3.9-1.7-6.8l0.1-3.9c-1.3-6-0.9-1.5-2.6-10.9c-1.7-10.6,3.4,13.6,0.3-3.6
							c-0.8-4.3-2.2-9.2-3.6-15s-3-12.7-4.3-21c-3.1-14.9,0.2,6.8-3.2-13.3L21.3,69c-0.8-3.5-0.8-1.7-2.2-10.4
							c-0.2-2.6-0.8-7.7-1.7-12.4c1.4,9.3,0.5,4.9-0.5,0.4s-2-9.3-0.8-0.7L15,39.2c0.1,0.8,0.1,0.9,0,0.4l-1.6-8.9
							c0.8,5.3,2.9,18.2,1.4,11.7l-2.3-13c0.2,3.1-0.7-1.8-0.9-1.3L17,65.4c0-1.3-0.7-6.7-0.1-4.4c1.9,10.3,0.9,8,2.8,17.8l-0.4-4
							c0,0.7,0.2,2-0.2-0.1c-0.8-3.5-0.8-4.8-0.5-4.7c1,3.6,2.3,13.1,2.5,15.7c2.1,12.4,1.2,3,1.8,5.8c0.3,5.9,3.5,20.6,4.4,28.1
							l-0.3-4.7c2.2,9.6,3.2,17.8,3.9,23.3l0.1-2c2.2,13.1,4.8,19.8,4.9,29.4l0.1-1.3c1.1,5.4,2.8,13.5,3.3,18.6
							c0.2,0.1,0.6,1.1,1.1,3.2c-0.1,2.9,1.3,8.4,2.8,16.3c-0.8-5.2,0.4-3.5-0.4-9c3,12.1,1,11,2.9,21.2c1.5,6.1-0.5-5.5-0.5-7
							c1,6.8,2.6,13.6,4,20.1c1.5,6.4,2.8,12.4,3.4,17.4l0.1,0.5l0.5-0.1c1.6-0.4,3.1-0.6,4.5-0.8l-4.3,1.6l-1.2,0.5l-0.4-1.5
							l-0.6-2.2c0.1,0.8,0.2,1.5,0.3,2.2l0.2,1.7l1.8-0.4c4.7-1.1,7.1-1.8,6.4-1.8c-1.9,0.6-2.6,0.7-3.4,0.7
							c18-6.1,28.9-7.1,47.2-12.8c-1.4,0.1-4.1,0.8-4.3,0.6c8.4-2.8,8.7-0.9,22.2-5.5l-2.8,0.4c4.5-1.5,8-2,7.4-1.7
							c0-1.5,29-8.4,38-12.9c6.9-1.2,26.3-6.2,32-8.3c8.2-3.3-7.7,1.3-4.8-0.4c2.9-0.9,5.3-1.4,7.8-2H199c3.2,0.8,6.7,1.6,12.4,2.5
							c0,0.8-20.2-2.2-1.3,1.8l2.7,0.1c-2-0.3-4.7-0.7-7.4-1.3c-5.4-1.5,3.4,0.1,4.7,0.1l20.3,4.1c1.3,1.1-10.8-1.4-12.1-1.4
							c16.1,2.9,35.7,5.3,50.5,8.7l-1.4-0.6c18.9,4.3,11.4,0.6,26.3,4.8c8,1.3-2.7-1.4,9.4,0.8c3.4,0.6,1.4,0.6,0.7,0.6
							c14.8,3.1,6.7,0.5,20.3,3.8l-2.8-1.4c16.2,3.7,33.1,8.4,47.3,10.7c-0.7-0.8-9.5-2.4-12.8-3.6c18.9,4.8,45.8,8.8,63.4,12.8
							c-5.4-0.4,8.1,2.9-3.3,1.2c-2.8-1.4-8.2-1.9-14.2-3.1c9.4,3.7,41.1,6.8,43.8,9l2.7-0.2c2.7,0.6,9.5,2.4,4.7,1.7l19.6,3.3
							c-6.7-1.8-21-5.7-25.6-5.8c-5.4-1.8,8.1,1,3.3-0.7c12.8,3.6,8.1,1,21.6,3.8c-6.3-0.2,13.2,3.9,12.5,4.2
							c1.9,0.3,4.8,0.9,7.8,1.5l2.5,0.5l0.5-2.6c0.8-4,1.7-8.1,2.2-10.2c1.4-7.8,3.5-26,5.9-38.5c-1.1,4.7-2.7,12.2-3.2,11.5
							c1.4-6.1,2.5-12.9,1.9-14.2c-4.9,21.7,0.5,7.3-3.6,27c-1.6,4.8-2.7,10.2-4.6,20.4c0.3-4.7-0.2-2.7-0.5-4.7
							c3.8-12.2,5.5-32.5,9-48.8c1.6-6.8,1.9-1.4,4.6-17l-1.7,13.5c1.9-14.8,1.1-3.4,3.3-15.5l-1.3,4.7c1.1-7.4,1.7-10.2,2.7-14.2
							l-1.9,6.2c0.6-4,1.7-11.5,2.2-11.5c0-1.1-0.2-1.5-0.3-1.5c0.3-0.8,0.7-2.7,1.4-7.4c-0.6,2.7-0.8,4.7-1.1,4.7
							c3.1-17.9-0.3-4.3,1.7-15.5c-0.5,1.7-0.2-1.5,0.3-5.5c1.3,0.5,5.1-21.5,6.8-27.3v0.1l3-14.9c-0.6,3-0.4-0.3,0.1-4.7l-0.1,0.7
							c0.6-4.8-2.4,5.4,0.3-8.8l1.6-7.5c-0.3,1.3-0.3,0-0.3-0.7l1.6-7.7c0.7-12,4.4-22.2,6-36.3c-0.6,4-1.6,10.1-1.6,7.5
							c0.3-2.7,1.1-6.8,1.7-8.9l-0.3,0.7l4.5-22.7l0.7-3.5l-3.7,0.5l-3.8,0.5c0.6,0,2.1-0.1,3.8-0.3l3.5-0.4l-0.7,3.2
							c-1,4.7-2.2,11.5-1.8,6.5c0-1.7,0.4-4.1,0.8-6.7l0.4-1.9l-2,0.3c-3.3,0.5-7,0.9-9.7,1.3c0.5-0.5,9.3-2.3,0.4-1
							c-1.1,0.4-9.4,2.2-5.4,1.8c-9.1,1.2-22.4,3.2-30.6,4c-2.6,0.6,1.5,0.1,2.9-0.1l0.6-0.2c5.5-0.7,1,0.8,11.7-1.4
							c1.1,1-15.4,3-24.8,4.8l15.2-1.8c-25.1,6-59.5,10-84.6,14.3c7.3-1.6,13.5-2.3,12.5-3.1c-15.7,2.2-13.6,2.1-29.2,4.5l1.3-0.2
							c-7.9,1.8-19.1,2.8-24.2,4.5c3.6-0.1,11.4-2.4,11.7-1.4l-19.6,3.3c6.3-0.4,19.6-3.3,27.1-4.4c5.4-1-10.8,1.7-8.4,0.6
							c18.3-3.1,22.6-3.1,31.7-3.7c5.6-0.2-7.8,2.1-11.2,2.7c-11.9,0.9-28.9,3.3-47,6.9l-9.9,2.5c-9.1,0.8-5.5-1.2-21.7,1.7l5-0.3
							c-3.5,0.8-5.8,1.3-7.6,1.6c7.1-0.7,14.7-1.5,21-2.2c-9,2.8-26.6,4-40.2,6c0.7,0,5.5-0.7,6.9-0.7c-20.2,3.7-41.7,6-57.4,8.5
							c-6.5,1.6,13.1-1.9,10-0.6c-8.3,1.1-17.4,3.4-19.8,3c3.8,0.4-18.9,3.3-3,1.6c-15.1,2.8-31.1,5.4-47.1,7.9l0,0l0,0
							c-15.1-3.6-30.2-7.3-44.7-10.8c1.5,0.6,1.5,0.9,0.2,0.8c10,2.2,24.8,5.8,30.2,7.7c-6.6-0.9-15.4-4.1-17.3-4.2
							c3.3,1,10,2.5,10,3c-8.6-1.3-13.3-3.2-19.3-4.6l3.3,0.5c-18.8-4.9-10.5-4.1-30.5-8.2c-7.2-1,0.1,0.5,0.4,1.3
							c-4.8-1.3-19.7-3.9-24.8-5.8l12.1,2.6c-8.5-2.1-16.5-3.9-22.5-5.4c0.7,0.3,1.2,0.6,3,1c-6.8-1.7-15.4-3.6-19.1-4.8l-1.5,0.3
							c3.8,0.6,15.9,3.1,18.1,4c-0.9,0.4-13.2-2.7-18.4-3.8c23.5,5.4,24.2,6.8,43.7,10.7l-3.4-1c12.2,2.1,25,6,35.7,8.4
							c-3-0.5-3.7-0.3-2.2,0.1c15.4,3,30.7,6.5,46.9,10.1l0.4,0.1l0.4-0.1c8.9-1.5,18.1-3.1,27.7-4.9l8.5-0.6l0.4-0.7
							c13.4-2.6,3.1,0.4,11.8-1.2c-3.3,0.6-2.7,0.4-3.5,0.3c15.8-2,8.6-2.1,17.4-3.4c-4.3,0.1-17,2.7-13.2,1.1
							c15.8-2,40-6.5,42.5-5.4c28.9-5.6,65.1-10.8,89.5-14.8c3.3-0.8-2.1,0.1-0.9-0.3c9.8-0.8,32.3-6.1,32.6-5.4
							c4.6-1,6.5-1.9,7.7-2.3c6.3-0.7,13.7-1.8,21.6-3l-5.8,0.8l0.6-0.2l8.2-1.1l-0.3,0.1c19.7-3.1,42.2-7.2,60.2-9.4
							c-10.3,1.3,2.4-1.4-2.5-0.8c8.1-0.3,25.5-3.1,41.4-5.9l-4.2-4.2c-0.4,2.4-0.7,4.7-1.1,7c0.3,0,0.3,1.4,0.8-0.7L527,27.1
							l0.5-1.3c-2.8,18.3-7.4,37.9-8.8,50.1c1.4-7.4,1.6-7.4,2.2-8.1c-2.2,13.1-4.2,25.4-7.1,40.6c0.2-0.8,0.4-1.3,0.5-1.3
							c-0.5,4-1.6,8.8-2.5,12.9l0.5,0.7c-1.6,7.7-2.9,17.9-4.9,27.1c0.1,3.7-4.3,22.4-5.8,33.2c-0.8,4.1,2.2-8.8,0.3,2.7
							c-1.6,1.4-2.5,14.9-4.1,15.6l-1.1,10.1l-1.1,2.1c-0.1,8.8-2.7,12.9-4.4,25.7c0.3-0.6,0.5-2,0.5-1.3c-0.8,4.1-2.5,13.5-1.6,6.1
							c-0.5,3.2-1.7,10.1-2.6,15.3l6-4.2c-5.8-1.1-9.6-1.7-4.2-0.3c-0.3-0.3,1.6,0.1,4.2,0.6l-5.7,4c0.5-2.8,1.2-6.5,1.7-8.6
							c0.3,0.4-0.4,5-0.8,8.8l4.6-3.2c-2-0.3-3.7-0.5-4.6-0.4c-0.3-0.1-1.6-0.5-2.6-0.8l-1.5,0.1c-12.5-3.1-25.5-5-34.6-7.6
							c-0.6,0.1-2.8-0.2-7.2-1v-0.8l-13.5-2.5l6.1,2.3c-14.8-2.6-25-5.8-37.1-8.3c-3.4,0.7-23.6-5-34.4-5.8l9.4,2.1
							c-20.2-4.1-23.6-3.9-42.5-7.9c16.1,2.6,16.2,2.9,39.8,6.2c-23.6-3.9-40.4-8.4-62.1-11.7c1.4,0.6,6.7,1.8,1.4,1.1
							c-4.1-1.5-20.3-3.8-16.9-4c-6.7-1-8-0.5-12.1-1.2l-22.2-5.2l0.7,0.3c-20.9-2.9-40-7-59.2-11.1l-1-0.2l-1.2,0
							c-16,4.2-32.1,8.5-49,13.8l0.8,0.2l-9.5,2.1c7.4-1.7-3,1.4-3.5,1.9l-24.2,6.1C112.2,222.6,113.8,223,119.7,221.2z
							 M442.2,244.3l5.8,1.2c1.2,0.2,2.4,0.4,3.7,0.7l-3.7-0.7C445,245,442.7,244.9,442.2,244.3z M292,54.8l9.5-1.5
							c-2,0.4-8.8,1.3-6,1.2C294.1,54.7,290.7,55.2,292,54.8z M434.2,248.1l4.1,1.2l3.3,0.1L434.2,248.1z M358.7,233.8l8,1.8h0.7
							l-8.1-1.8H358.7z M268.7,212.4c0.5,0.1,1,0.3,1.6,0.4C269.8,212.7,269.2,212.6,268.7,212.4c-6.3-1.6-8.9-1.1-13.9-3
							C261.3,209.9,265.2,211.4,268.7,212.4z M428.7,242.9c0-0.5-9.4-2.4-12.2-3.3c-4-0.7,1.4,0.8,2.7,1.4c-2-0.3-3.4-0.6-6.1-1.2
							C414.6,241.1,420.6,240.8,428.7,242.9z M508.5,143.5l-0.3,2.1l1.6-7.5L508.5,143.5z M514.8,108.3c1.3-4.1,3-14.9,4.4-22.3
							c-0.3-2-2.2,5.5-3.5,14.3C513.5,110.4,515.9,104.2,514.8,108.3z M334.4,225.9c5.4,1.2,12.8,3.8,23.6,5.2l-8.1-1.8l2,0.3
							l-2-0.8C351.9,230.5,339.1,226.9,334.4,225.9z M527.5,33.1c1.6-7.5,4.4-21,4.6-19.6c-0.8-0.6-3,10.2-3.5,13.6
							C528.3,29,528,30.5,527.5,33.1z M528.8,31.1c-0.6,4.1,0.3,2.7-1.4,10.2c-0.3-1.3-1.9,1.4-3.3,12.3c2.2-8.2,2.7-8.9,4.9-19.8
							L528.8,31.1z M524.7,44.7l-0.6,4.5c-0.5,5.3,0.3,6.6-1.9,13.8l1.9-13.8C524.2,48,524.4,46.5,524.7,44.7z M475.8,23.8l4.5-0.5
							C475.9,24.1,475.4,24.1,475.8,23.8l-3.8,0.4C481.7,22.2,476.7,23.4,475.8,23.8z M526.4,35.9l2.2-12.9
							C528,27.1,526.9,35.2,526.4,35.9z M478.5,22.6c5.4-1,19.6-3.5,17.6-3.1C494.9,20.1,482,22.2,478.5,22.6z M198.3,69.9l3.8-1.3
							L194,70L198.3,69.9z M282.5,54.6l4.7-0.8l2-0.7L282.5,54.6z M377,38.2c-0.4,0.2-0.1,0.3,0.6,0.4c1.4-0.2,2.6-0.3,3.1-0.3
							c-1.2,0.2-2.4,0.3-3.1,0.3c-3.5,0.5-8.7,1.4-11.1,2c1.5,0.1,6.9-0.9,9-1.1c-7.9,2.1-26.4,3-20.8,4.2
							c-3.4,0.3-15.2,1.8-11.2,0.7C352.7,43,370.1,39.8,377,38.2c0.3-0.2,1.1-0.4,2.7-0.7C379.3,37.6,378.3,37.9,377,38.2z
							 M495.3,17.5c3.3-0.5,4.8-0.7,5.5-0.7c2.9-0.3,5.1-0.5,4.3,0c-7,0.9-2.6-0.1-4.3,0C499,16.9,497.1,17.2,495.3,17.5z
							 M494.3,16.7l16.5-1.9l-5.6,0.5l11-1.5C514.7,13.4,503.6,14.7,494.3,16.7z M520,12.7l2.3,0.1l-3.5,0.1L520,12.7h-0.5l13.5-2.1
							l0.9-0.1l-0.2,0.9l-0.9,4.8l0.8-4.8l0.2-0.9l-0.9,0.1L520,12.7z M504.3,185.4c0.6,7.2,3.9-16,5.3-19.4c-0.5-0.9-0.2-8-3.1,9.9
							c2-15.6,2.7-9.5,2.8-19c-1.1,7.4-3,16.3-3.3,17.6l1.4-8.8C505.4,170.6,505.7,179.3,504.3,185.4z M470.6,254l-10.8-2.2
							l11.4,2.2H470.6z M189.2,206c0.9,0.2-13.3,5.1-16.9,5.3C179.5,209.2,187.4,206.9,189.2,206z M70.6,240.5l12.7-3.3
							c-2.2,1.6-11.2,3.2-17.1,5.1C64,242.4,68.7,241.3,70.6,240.5z M40.9,179.2l-0.6-4.1l-0.2,4.2L40.9,179.2z M41.6,193.1
							c-0.4-2.1-1.8-11-0.9-8.3L41.6,193.1z M27.5,109.3l0.1,4.5l-1-5.4L27.5,109.3z M28.9,114.8c0.2,1.6,0.2,2.2,0,2.6
							c0.3,2.8,1.1,7.5,2.1,12.2c0.3-0.6-0.6-4-1-6.7c0.4,2.1,1.2,5.5,1.8,9.5c-1.5-4.9-0.9-1.5-1.6-2.2
							c-2.5-12.7-1.7-11.8-1.4-12.8C28.8,115.8,28.7,114.8,28.9,114.8z M37.5,162.6c0.4,1.6,0.7,3.1,0.9,3.7v0.7
							C37.8,165.3,37.6,163.9,37.5,162.6c-0.4-1.8-0.8-3.9-1.3-6.1c-0.8-1.5,0.4,6.9,0.5,9.2c-0.6-4-0.7-7.4-1.9-12.9
							c0,0.7-0.2,0,0.4,3.4l-1.4-7.5c-0.8-8.3,0.9-0.1,2.5,7.9c0.2,0.3,0.4,0.9,0.8,2.4C37.3,160.2,37.4,161.4,37.5,162.6z
							 M28.4,108.9c0-0.7,0.4,0.7,0.2-1.2l-0.6-4C26.8,98.1,27.6,104.1,28.4,108.9z M151.2,216c-2.6,0.9,3.7-0.3,9.5-2.1l-2.9,1.7
							c-0.3-0.5-12.1,3-13.4,3.4C142.1,218.8,146.8,217.8,151.2,216z M452.4,250.5c-3.4-0.9-18.9-3.2-20.9-4.6
							C426.1,246,444.3,249.2,452.4,250.5z M454.4,249.7c1.6,0.3,2.8,0.6,3.9,0.8c4.7,1.1,4,1.8,12.3,2.9c-2-0.6-5.4-1-7.4-1.5
							c0.5-0.4-0.7-0.5-4.9-1.3C457.2,250.3,456.1,250,454.4,249.7z M293.9,219.4l-5.5-1.8l-8.8-1.6L293.9,219.4z M200.2,200.4
							c0.1,0.1-0.1,0.1-0.4,0.1l-0.8-0.1l-0.2,0.1c-1.6,0.7-9,2.9-10.7,3.2c0.7,0.3,6-1.2,10.9-2.6l0.4-0.1l0.4,0.1
							c0.6,0.1,1.2,0.2,1.7,0.3c0.7,0.2,1.8,0.4,3.5,0.7c-1-0.2-2.2-0.5-3.5-0.7c-2-0.5-0.5-0.5-0.5-0.7l2.7,0.3l-3.8-0.8l-0.5-0.1
							l-0.6,0.2l-3.6,1l3.6-0.9l0.6-0.2l0.5,0.1L200.2,200.4z M53.2,229.6c-1.5-5.9-1.5-6.6-2-10.6
							C51.7,220.3,52.7,225.6,53.2,229.6z M250.1,209.3c-10.2-1.6,4.7,1.7-2,0.7l5.3,0.9c-8.7-1.1-6-1.8-12.1-2.7l4.1,0.7
							c3.3,0.1-6.1-1.5-6.8-2.1C243.3,207.5,254.1,210,250.1,209.3z M51.9,220.2c-2.3-9.9-0.9-8.2-1.9-14.1
							C51.9,213.9,50.7,212.8,51.9,220.2z M176.9,204.2l0.6-0.3l8-2l-0.6,0.3L176.9,204.2z"/>
						<path class="st0" d="M44.2,208c-0.5-2.5-0.8-4.1-1-5.5C43.5,204.3,43.9,206.1,44.2,208z"/>
						<path class="st0" d="M482.1,258.8c0.3-0.1,1.1,0,2.3,0.2C484.2,259,483.7,259,482.1,258.8z"/>
						<path class="st0" d="M497.3,249c0-0.2,0.1-0.5,0.1-0.7s0.1-0.4,0.1-0.6L497.3,249z"/>
						<path class="st0" d="M86.5,46.2c-4.4-1.5,4,0.8,7.4,1.5C90.5,47,89.3,47.1,86.5,46.2z"/>
						<path class="st0" d="M113.3,53c-2-0.6-4.9-1.4-8.4-2.2C107.1,51.3,109.4,51.9,113.3,53z"/>
						<path class="st0" d="M91.6,48c5.1,1,9.6,1.9,13.2,2.8C101.5,50.1,98.7,49.7,91.6,48z"/>
						<path class="st0" d="M184.3,68.5c-4.1-1.3-12.1-2.9-12.1-2.9c17.5,3.5-3.4-1.5-4.9-2.2C178.2,66,178.3,66.5,184.3,68.5z"/>
						<path class="st0" d="M207.4,66.8c-1.7,0.3-3.5,0.6-4.8,0.9C204.2,67.3,205.8,67,207.4,66.8z"/>
						<path class="st0" d="M213.9,65.3c6.1-0.9,8.3-0.8,11.1-1c-7.3,1.6-12.1,1.7-17.6,2.5C211.7,66,215.9,65.4,213.9,65.3z"/>
						<path class="st0" d="M400.4,31.1c-1.4,0.2-4.7,0.8-4.9,0.5l10.2-1.7C409.7,29.3,402.4,30.7,400.4,31.1z"/>
						<path class="st0" d="M438,25.9c8.1-1.3,3.8-1.3,7.9-1.8l-0.3,1L438,25.9z"/>
						<path class="st0" d="M434.3,31.1l-2.4,0.3c0.9-0.1,1.8-0.3,2.7-0.4L434.3,31.1z"/>
						<path class="st0" d="M476.9,18.4h-5.8C478,17.4,478.2,18.2,476.9,18.4z"/>
						<polygon class="st0" points="507.8,12.4 503,12.9 517.9,10.7 						"/>
						<polygon class="st0" points="533.6,24.2 533.6,25.5 531.7,35.7 						"/>
						<path class="st0" d="M321,227.4c-1.4-1.1,14.8,2.3,19.5,3C337.1,230.8,327.6,227.6,321,227.4z"/>
						<path class="st0" d="M47.1,222.3l2.6,15.7C47.2,225.9,49.1,234.6,47.1,222.3z"/>
					</g>
				</g>
			</g>
		</g>
	</g>
	<polygon class="st1" points="29.6,49.9 67.8,253 213.6,212.6 506.1,265.3 546.4,30.7 203.7,86.6 	"/>
	<g>
		<line class="st2" x1="486.1" y1="249.2" x2="526.5" y2="25.8"/>
		<g>
			<g>
				<g>
					<g>
						<path class="st3" d="M525.5,31.4c0.1-0.1,0.1-0.3,0.2-0.4C525.6,31.4,525.6,31.6,525.5,31.4z"/>
						<path class="st3" d="M526.9,25.9c-0.3,1.5-0.7,3.8-1.3,5.1C525.8,29.7,525.9,26.2,526.9,25.9z"/>
						<path class="st3" d="M523.8,31.4l0.6-1.8C524.5,30.8,524.1,30.5,523.8,31.4z"/>
						<polygon class="st3" points="524.9,30.9 525.2,31.1 524.7,32 						"/>
						<path class="st3" d="M511.7,124c0.2-0.2,0.4-0.2,0.6-0.1L511.7,124z"/>
						<path class="st3" d="M509.3,127.9c-0.1,0.4-0.2,0.6-0.3,0.8C509.1,128.5,509.2,128.3,509.3,127.9z"/>
						<path class="st3" d="M512.3,120.2l-0.1,0.7C512.2,120.7,512.2,120.4,512.3,120.2z"/>
						<path class="st3" d="M519.3,73.4c0.4-0.6,0.7-1.3,1-1.7C520.3,73.1,519.7,73.1,519.3,73.4z"/>
						<path class="st3" d="M500.6,146.2l0.3,0.2C500.7,146.6,500.6,146.7,500.6,146.2z"/>
						<path class="st3" d="M504.3,128c0.2,0,0.3,0.1,0.4,0.2c0,0.1-0.1,0.1-0.1,0.2L504.3,128z"/>
						<path class="st3" d="M512.2,117.1L512.2,117.1l0.3-0.6C512.5,116.8,512.4,117,512.2,117.1z"/>
						<path class="st3" d="M499.2,152c-0.2,0.2-0.5,0.4-0.8,0.6C498.6,152.1,499,151.9,499.2,152z"/>
						<path class="st3" d="M509.1,128.9L509.1,128.9v-0.1C509.1,128.8,509.1,128.8,509.1,128.9z"/>
						<path class="st3" d="M505.8,122c-0.1,0.3-0.2,0.6-0.3,0.9C505.4,122.6,505.6,122.2,505.8,122z"/>
						<path class="st3" d="M519.3,73.4c-0.1,0.2-0.2,0.4-0.3,0.5C519,73.7,519.2,73.6,519.3,73.4z"/>
						<path class="st3" d="M525.2,36.4c-0.1,0.6-0.3,0.7-0.6,0.8C524.8,36.9,525,36.6,525.2,36.4z"/>
						<path class="st3" d="M488.3,248.1l-0.1,0.2C488.2,248.3,488.2,248.2,488.3,248.1z"/>
						<path class="st3" d="M493.1,225.9c0.1-0.1,0.2-0.2,0.3-0.3C493.4,225.8,493.2,225.9,493.1,225.9z"/>
						<path class="st3" d="M489.8,204c0.2,1.5-1,2.9-1.3,4.2l0.4-0.4l-0.5,1.2l0.5,0.1c-0.6,2.1-0.6,4.8-1.5,5.4l0.9-0.1l-1.1,2.1
							l0.8-1.2c-0.3,2.6-1.6,6.3-1.7,6.8l0.3-0.2c0.1,0.4-0.2,0.7-0.4,1.1l0.5-0.3c-0.8,3.8,0,5-1.2,9.2c-0.1,1.2,0.3-0.6,0.5-0.6
							c0.2,0.7-0.4,2.1-0.6,2.4c0.8-0.2,0.9-2,1.2-0.6c-0.5,0.9,0.8-0.5,0.3,1.1l-1,0.5c0,1,0.7,0.3,0.3,1.8
							c-0.7,1.6-0.7-2.3-1.3,0.4c-0.2,1.4,1.6,3.3,0.6,5.9c0.1,2.4,1.6-1,0.8,2.2l1-1.9c0.2,0.6,0.7,0.3,0.2,1.7
							c-0.4,0.4-1,1.1-1.2,1.9c1.2-2.9,0.6,2.8,2,0.2l-0.2,1c0.1-0.1,0.2-0.1,0.2-0.1l-0.2,1.4c0.4-0.8,0.8-2.8,1.3-1.8l-0.2,2
							c0.6-0.4,0.7,0.3,1.1,0.3l2-5.7c-0.3,0.2-0.7,1-1,0.6c0-1.6,0.8-1.2,0.6-2.7l-0.5,0.6c0.2-0.1,0.3-0.3,0.3,0
							c0.2,0.6-0.2,0.7-0.4,0.7c-0.4-0.6,0.2-2,0.6-2.4c0.3-1.9-0.9-0.6-0.9-1c1-0.8,0.6-3.2,1.2-4.3l-0.7,0.7
							c-0.4-1.6,0.4-2.8,0.7-3.6l-0.5,0.2c0.5-2-0.9-3.3,1-4.5l-0.3,0.2c0-0.9-0.1-2.2,0.5-2.9c-0.2-0.1-0.4-0.2-0.4-0.6
							c0.7-0.3,0.4-1.3,0.5-2.5c-0.3,0.8-1.1,0.4-1.4,1.2c-0.5-2,1.2-1.6,1.5-3.1c-0.2-1-0.6,0.8-1,0.9c0.9-2.4-1-5.4,0.9-6.6
							l0.3,1.1c0.5-0.9,0.6-1.4,0.4-1.3c0,0.3-0.2,0.4-0.3,0.5c-0.3-3.1,2-4.4,2.2-7.4c-0.3,0.2-0.5,0.6-0.8,0.5
							c-0.1-1.4,1.8-1,1.6-3.4l-0.4,0.4c-0.1-0.8,0.5-1.2,0.6-1.1c-1.4-0.3,0.9-4.7-0.6-6.5c1-0.9,2.1-3.9,1.9-4.9
							c-0.6-1.5-1.1,1-1.8,0.4c0.2-1.1,1.1-1.5,1.1-3.1c0.8,0.1,1,3.4,2,0.5l-0.3-0.5c0,0.3,0.1,0.8-0.1,1.2
							c-0.6,0.8-0.4-0.6-0.6-0.8l0.8-3.2c0.9-0.1,0.3,1.8,0.5,2c0.3-2.6-0.4-5.8,0.6-8.1l-0.3,0.2c1.2-2.9-1.2-2,0.6-4.2
							c0-1.3-1,0.3-0.7-1.6c0.1-0.5,0.3-0.2,0.4-0.1c0.7-2.3-0.6-1.2,0.6-3.2l-1,0.3c1.1-2.5,3.1-4.9,3.1-7.2
							c-0.7,0-0.9,1.4-1.5,1.9c1.8-2.8,1.5-7.2,2.6-9.9c0.4,0.9,1.6-1.1,1.7,0.8c-1,0.3-0.5,1.2-0.8,2.2c2.2-1.2,0.2-6.6,2-6.8
							l-0.6-0.5c0.2-0.4,0.9-1.4,1-0.6l0.1-3.1c-0.7,1-2.3,3-1.7,3.9c-0.9,0.7-0.2-1.3-1.2-0.7c1.5-1.8-0.2-1.3,0.4-3.4
							c0.8,1.1,1.7-1.9,2.1-1.7c-0.1-0.7,0.7-2.2,1.1-2.7c0.3-1.2,0-4.2,0.7-6.1c-0.4,0.7-1.1,1.8-1.7,1.6c0.5-0.9,0.7-2,0-2.3
							c-1.9,3.2,1.4,1.4,0,4.4c-1,0.6-1.3,1.4-1.8,3c-0.3-0.8-0.6-0.5-1.1-0.9c2.1-1.6,1.1-5.1,2.4-7.5c0.7-1,1.6,0,2.3-2.4l0.1,2.2
							c-0.1-2.4,0.6-0.5,1.1-2.3l-0.7,0.7c0.1-1.2,0.3-1.6,0.8-2.2l-1,0.8c0-0.6,0.1-1.8,0.6-1.8c-0.2-0.2-0.3-0.3-0.5-0.3
							c0.2-0.1,0.3-0.4,0.4-1.1c-0.2,0.4-0.2,0.7-0.4,0.7c0.7-2.8-0.8-0.8-0.4-2.6c-0.3,0.2-0.4-0.3-0.4-0.9
							c1.4,0.3,2.2-3.1,3.1-3.9l0,0l1-2.3c-0.2,0.5-0.5-0.1-0.5-0.8v0.1c-0.1-0.8-1.6,0.6-0.8-1.5l0.6-1.1c-0.1,0.2-0.3,0-0.3-0.2
							l0.6-1.2c-0.9-2.1,1.3-3.4,1.1-5.7c0,0.6-0.3,1.6-0.6,1.1c-0.1-0.5,0.2-1.1,0.4-1.4l-0.2,0.1l1.6-4c-0.5,0.3-1,2.6-1.3,1.4
							c-0.5-0.7,0.4-1.8,0.5-2.5c0.3,0.2,0.4,1.6,0.9,0.2c-0.1-0.2-0.3-1.6-0.6-1c0.6-1.4,1.2-3.4,2.1-4.5c-0.1-0.4-0.3,0.2-0.4,0.4
							l0.1,0.1c-0.4,0.8-0.9,0-0.9,1.7c-1.2-0.1,0.1-2.5,0.2-4l-1.2,2.2c-0.9-4.3,1.8-9.3,2.6-13.2c0.2,1.2-0.4,2.1,0.6,2.2
							c0.9-2.4,0.6-2.1,1.3-4.5l-0.1,0.2c-0.2-1.3,1-2.9,0.3-3.9c-0.6,0.5,0.2,1.9-0.9,1.7l0.6-3.1c-0.8,0.9-0.6,3.1-1,4.2
							c-0.1,0.9,0.4-1.7,1-1.1c-0.6,2.9-1.3,3.4-2.5,4.6c-0.9,0.7-0.5-1.4-0.4-1.9c1.4-1.6,2.4-4.2,2.4-7.2l-0.5-1.7
							c1-1.3,2.2-0.4,2.5-3L519,75c-0.1-0.6-0.1-1-0.1-1.2c-0.6,1-1.3,2.1-1.9,3c-0.9-1.7,1.3-4.1,2-6.1c-0.2,0.1-0.4,0.8-0.7,1
							c0.3-3.2,2.3-6.3,2.9-8.7c-0.3-1.1-0.7,2-1.4,1.3c0.5-1.2,0.1-2.8,0.9-3c-1.1,0.4,0.5-3-0.9-0.7c0.4-4.7,2.3-9.7,3.7-14.3
							c-0.3,0.2-0.6,0.1-0.8-0.1c-0.3,1.6-1,3.9-1.9,4.6c-0.3-1.1,1.1-2.3,0.9-2.7c-0.3,0.5-0.5,1.5-1,1.5c-0.3-1.5,0.6-2.1,0.9-3
							l0.2,0.6c1.2-2.9,2.1-1.3,2.4-4.5c-0.4-1.3-0.5-0.1-1.3-0.2c0.4-0.7,0-3.3,1-3.9l-0.3,1.9c0.5-1.3,0.7-2.6,1.1-3.5
							c-0.2,0.1-0.4,0.1-0.5,0.4c0.4-1,0.6-2.4,1.2-2.9l-0.8-0.4c0.2,0.7,0,2.6-0.5,2.9c-0.7-0.3,0.1-2.2,0.2-3
							c-0.9,3.7-2.2,3.5-2.2,6.7l0.4-0.5c0.3,2.1-1.1,3.9-1.4,5.6c-0.1-0.5-0.4-0.7-0.5-0.5c0,3.9-1.2,7.6-1.6,12l-1,1.2l0.6,0.2
							c-0.1,2.2-1,0.3-1.1,1.7c0.1-0.5,0.2-0.4,0.4-0.5c-1.1,2.3,0.3,1.5-0.1,2.8c0.8-0.5,0.7-2.6,1.5-1.8c-1.1,2.3-1.4,6.2-3,6.3
							c-0.2,4.7-2.2,10.1-3,13.9c0.2,0.6,0.3-0.3,0.4-0.1c-1.1,1.4-0.3,5.2-1.1,5.1c0.1,0.8,0.6,1.2,0.8,1.4c-0.5,0.9-0.9,2-1.3,3.2
							l0.4-0.9l0.1,0.1l-0.5,1.2V91c-0.8,3-1.2,6.6-2.6,9.3c0.8-1.5,0.9,0.6,1.3-0.1c-1.5,1.2-2.1,4.6-2.5,7.4c0.3,0,0.4,0.3,0.7,0
							l-0.8,1.5l0.3-0.2c-0.3,2.9-2.2,5.8-2,7.8c0.4-1.1,0.6-1.1,1-1.1c-0.4,2-0.8,4-1.6,6.3c0.1-0.1,0.2-0.2,0.3-0.2
							c0,0.6-0.4,1.3-0.7,2l0.6,0.2c-0.5,1.2-0.5,2.8-1.2,4.2c0.6,0.7-1.3,3.4-1.3,5.1c-0.3,0.6,1-1.3,0.6,0.5
							c-1.4,0-0.5,2.3-1.9,2.2l0.2,1.7l-0.8,0.2c1.1,1.6-1,1.9-0.9,4c0.2-0.1,0.3-0.3,0.3-0.2c-0.3,0.6-0.6,2.1-0.8,0.9
							c-0.2,1.1-1.2,4.6-0.1,3.1c-0.4,0,0.2-1.4,0.5-2c0.6,0.2,0.1,1.7,0.7,2.3c-0.1,0-0.2,0.2-0.4,0.4l0.3,0.3
							c-1,1.9-0.9,4-2.1,5.3c0.2,0.1,0.3,0.5,0.1,1.2l-0.8-0.1l-0.4,2.1l1.3-0.8c-0.2,2.4-1.8,3.8-2.3,5.7c1.2,0.7-1.2,3.6-0.3,5.5
							l0.6-1.4c-0.8,3.1-0.1,3.8-1.1,6.7c0-2.6,0.3-2.6-0.1-6.4c-0.1,3.8-1.9,6.2-1.7,9.8c0.3-0.2,0.7-1,0.9-0.1
							c-0.8,0.5-0.6,3.2-1.2,2.5c0.1,1.1,0.8,1.4,0.8,2.1l-1.6,3.4l0.2-0.1c0.7,6.3-3.2,11-3.5,17.1h0.4l-0.9,1.4
							c0.6-1.1,0.4,0.6,0.8,0.8l-1.6,3.7C488.9,205,489.8,204.9,489.8,204z M499.3,153.3l0.2-0.9c0-0.2,0-0.4,0.1-0.6l-0.1,0.6
							C499.6,152.9,499.8,153.3,499.3,153.3z M516.4,69.1l-0.4,1.5c0-0.3,0.4-1.3,0-1C516.1,69.4,516.2,68.8,516.4,69.1z
							 M504.2,155.4l0.5-0.6l-0.4-0.6L504.2,155.4z M502.1,167.2l0.5-1.2l-0.1-0.1l-0.5,1.2L502.1,167.2z M495.3,180.7
							c0-0.1,0.1-0.1,0.1-0.2C495.4,180.6,495.3,180.7,495.3,180.7c-0.6,0.9,0.3,1.5-0.7,2.1C493.9,181.7,494.8,181.2,495.3,180.7z
							 M500,155.6c-0.5-0.1-0.9,1.4-1.3,1.8c0,0.7,0.6-0.1,1-0.3c0,0.3-0.1,0.5-0.3,0.9C500.5,158,499.2,156.8,500,155.6z
							 M505.2,127.6v0.3l0.6-1.1L505.2,127.6z M506.7,122.2c0.8-0.5,1-2.2,1.3-3.4c-0.5-0.4-1.4,0.7-1.6,2.1
							C505.7,122.4,507.3,121.6,506.7,122.2z M498.2,170.6c0.4-0.8,1.7-1.8,1.4-3.6l-0.5,1.2v-0.3l-0.5,0.2
							C499.9,168,498.4,169.8,498.2,170.6z M509.2,110.5c0.6-1.1,1.5-3.1,1.9-2.9c-0.9-0.2-1.6,1.4-1.7,1.9
							C509.5,109.8,509.4,110.1,509.2,110.5z M510.2,110.3c0,0.7,0.6,0.5,0,1.6c-0.4-0.3-1.6,0-1.6,1.7c1-1.2,1.5-1.2,2.2-2.8
							L510.2,110.3z M508.1,112.2v0.7c0.2,0.9,1.2,1.2,0,2.2v-2.2C508,112.7,508,112.4,508.1,112.2z M510.7,97.8l-0.4,0.6
							C510.4,97.8,510.6,97.7,510.7,97.8l0.4-0.5C511.1,98.8,510.9,98,510.7,97.8z M508.5,110.8l0.5-2
							C508.9,109.5,508.9,110.8,508.5,110.8z M511.4,98.4c-0.1,0.9-0.4,3.1-0.4,2.8C510.6,100.9,511,98.9,511.4,98.4z M519.9,54.6
							l0.5,0.7l0.3-1.3L519.9,54.6z M518.4,67.9l-0.2,0.7l0.3,0.4L518.4,67.9z M516,82.8c-0.1-0.1-0.3-0.1-0.5,0
							c-0.1,0.2-0.2,0.4-0.3,0.4c0-0.2,0.2-0.3,0.3-0.4c0.2-0.5,0.3-1.4,0.2-1.8c-0.3,0.2-0.4,1-0.7,1.3c-0.5-1.4,2.2-3.8,0-3.4
							c0.3-0.5,1.2-2.2,1.5-1.5C516.1,78.9,515.8,81.7,516,82.8c0.1,0.1,0.2,0.2,0.1,0.5C516.1,83.2,516,83,516,82.8z M513.1,101.5
							c-0.1,0.5-0.2,0.7-0.3,0.8c-0.2,0.4-0.5,0.7-0.8,0.5c0.4-1,0.6-0.3,0.8-0.5C512.9,102,513,101.7,513.1,101.5z M514,101.5
							l-1.3,2.4l0.6-0.8l-0.7,1.6C513.2,104.6,514.2,103,514,101.5z M512.9,105.4l-0.6,0.3L512.9,105.4L512.9,105.4L512.9,105.4
							l-0.7,2.7L512.9,105.4z M506.6,134.6c1.5,1.4,1.7-2.3,2.6-2.7c-0.6-0.2-1.3-1.5-1.7,1.3c-0.1-2.5,1.4-1.3,0.2-3
							c-0.1,1.2-0.8,2.5-0.9,2.7l0.2-1.4C505.8,132.1,507.1,133.7,506.6,134.6z M504.3,149.5l-0.5,1.7l0.4-1.8L504.3,149.5z
							 M496.6,193.9c0.4-0.1,0.7,2.4-0.1,2.8C496.6,195.5,496.9,194.2,496.6,193.9z M493.1,212.9l0.7-2c0.9,0.6-0.4,1.8-0.4,2.8
							C492.9,214,493.3,213.3,493.1,212.9z M490.7,226.1l-0.3,0.6l1-0.5L490.7,226.1z M492.9,224.2c0,0.3-0.5,1.7-0.8,1.2
							L492.9,224.2z M489.9,237.2l1-0.6l-0.1,0.9L489.9,237.2z M489.5,236.2c0.1-0.2,0.3-0.3,0.6-0.3c0.3-0.4,0.5-1.1,0.4-1.9
							c-0.4,0-0.3,0.6-0.4,1c0-0.3-0.2-0.9,0.1-1.5c0.6,0.9,0.7,0.3,1.3,0.5c0,2-0.7,1.8-1.4,1.9
							C489.8,236.1,489.6,236.3,489.5,236.2z M490.6,228.7c0-0.3-0.1-0.5-0.2-0.6l0.2-0.1C490.9,228.3,490.8,228.6,490.6,228.7
							c0,0.3,0,0.6,0,1c0.5,0.3,1.1-1,1.4-1.3c-0.3,0.6-0.9,1.1-0.7,2c0.2-0.1,0.3,0,0.3-0.5l-0.1,1.2c-1,1.2-1-0.1-1-1.4
							c-0.1-0.1-0.2-0.2-0.3-0.4C490.4,229.1,490.5,228.9,490.6,228.7z M488.7,237.1c-0.2,0.1-0.3-0.2-0.6,0.1l-0.3,0.6
							C488,238.7,488.5,237.8,488.7,237.1z M494.5,199.7c0.1,0.4,0.9-0.4,0.9-1.4l0.7,0.6c-0.5-0.1-0.8,1.8-0.9,2
							C494.4,201.3,494.8,200.6,494.5,199.7z M503.7,152.3c-0.4,0.5-0.2,3-1.2,3.2C503.4,156.5,503.7,153.6,503.7,152.3z
							 M502.7,151.9c0.1-0.2,0.1-0.4,0.2-0.6c0.3-0.7,1.1-0.5,0.9-1.9c-0.3,0.3-0.1,0.9-0.4,1.1c-0.5-0.2-0.4,0-0.6,0.7
							C502.8,151.4,502.7,151.6,502.7,151.9z M498.1,177.1l-0.9,0.8l-0.2,1.4L498.1,177.1z M494.2,191.6c0.4,0,0.2,1.5-0.1,1.8
							c0.6,0,0.7-1.1,0.9-1.9c0.1-0.1,0.1-0.3,0.2-0.5c-0.1,0.2-0.1,0.3-0.2,0.5c-0.2,0.3-0.4,0-0.6,0l-0.1-0.4l-0.4,1.1
							L494.2,191.6z M488.9,217.5c0.2,1,0.1,1.1-0.2,1.7C488.5,219,488.6,218.1,488.9,217.5z M495.1,183.7c0,1.6,1-0.6,1,0.5
							l0.1-0.8c0.3,1.5-0.8,0.9-0.8,1.8v-0.7c-0.4-0.6-0.5,0.9-1,1C494.4,184.7,495.1,183.1,495.1,183.7z M488.3,219
							c0.2,1.7-0.8,1.2-1.1,2.1C487,219.8,487.9,220.1,488.3,219z M491.2,194.7l-0.1-0.1l0.5-1.2l0.1,0.1L491.2,194.7z"/>
						<path class="st3" d="M493.3,221.9c0,0.4-0.1,0.7-0.1,0.9C493.2,222.5,493.2,222.2,493.3,221.9z"/>
						<path class="st3" d="M507.2,148.1c-0.1-0.1-0.2-0.2-0.2-0.4C507.1,147.7,507.2,147.8,507.2,148.1z"/>
						<path class="st3" d="M508.1,145v-0.1c0,0,0-0.1,0.1-0.1L508.1,145z"/>
						<path class="st3" d="M525.8,37.5c0.8-0.5,0,0.7-0.1,1.2C525.7,38.1,525.3,37.8,525.8,37.5z"/>
						<path class="st3" d="M523.9,41.4c0.3-0.3,0.5-0.7,0.6-1.2C524.5,40.6,524.3,40.9,523.9,41.4z"/>
						<path class="st3" d="M524.8,38.1c0,0.8-0.1,1.5-0.3,2.1C524.6,39.7,524.4,39.2,524.8,38.1z"/>
						<path class="st3" d="M522.1,52.7c0.5-0.6,0.5-1.9,0.5-1.9c-0.1,2.8,0.9-0.4,1.2-0.6C523.4,51.9,522.8,51.8,522.1,52.7z"/>
						<path class="st3" d="M521.2,56.3c0-0.3,0.1-0.6,0.1-0.8C521.3,55.8,521.3,56.1,521.2,56.3z"/>
						<path class="st3" d="M521.4,57.4c-0.3,0.9-0.8,1.2-1.2,1.6c-0.1-1.2,0.7-1.8,1-2.7C521.1,57,520.9,57.6,521.4,57.4z"/>
						<path class="st3" d="M518.3,87.1c0.1-0.2,0.2-0.7,0.4-0.7l-0.3,1.6C518.2,88.6,518.3,87.4,518.3,87.1z"/>
						<path class="st3" d="M516,92.8c-0.3,1.3,0.5,0.7,0.2,1.3l-0.9-0.2L516,92.8z"/>
						<path class="st3" d="M511.7,91.2l0.2-0.4C511.8,91,511.8,91.2,511.7,91.2L511.7,91.2z"/>
						<path class="st3" d="M515.8,99l1.1-0.7C516.5,99.4,515.7,99.2,515.8,99z"/>
						<polygon class="st3" points="515.5,104 516,103.3 515.3,105.6 						"/>
						<polygon class="st3" points="514,109.8 514.2,110 513.7,111.6 						"/>
						<path class="st3" d="M501.7,173.3c-0.9,0.1-0.1-2.4-0.1-3.2C502.5,170.8,500.8,172.1,501.7,173.3z"/>
						<path class="st3" d="M493.3,219.6l0.6-2.4C494,219.1,493.9,217.7,493.3,219.6z"/>
					</g>
				</g>
			</g>
		</g>
	</g>
	<path class="st4" d="M95,208.2c-15.8,0-27-9.5-32.4-29.4c-5-18.1-5.2-50.7-1.5-72C65,85.5,73.2,68.2,93.7,68.2
		c19.7,0,26.6,12.2,29.8,24.2c2.8,11,2.2,25,3.2,35.7c0,0-12.7-1.2-25,0.2c0.9-20.3-1.3-38.4-8.2-38.4c-7.8,0-10.8,26.6-10.8,49.9
		c0,28,2.6,45.9,11.9,45.9c6.5,0,8.9-9.9,8.9-18.3c0-8.1-4.1-9.7-13.8-7.7c0,0,0.6-10.6-0.4-21.3c12.1,0.8,26.6,0.4,38.2-1
		c-0.6,14.4,0.4,30.2-2.2,44.2C122.7,194.9,114.9,208.2,95,208.2z"/>
	<path class="st3" d="M189.3,207.2c0,0-10.8-0.1-22.5,0.7c-1.4-8.2-5.7-25.8-7.9-31.7c-1.1-2.4-3.1-2.1-3.5,0.4
		c-0.9,6.2,0.2,23.7,1.3,28.9c0,0-10.2-0.7-19.6,0c2-25,1.4-80.4-0.5-97.6c35-4.4,49.6,7.9,49.6,32.3c0,10.6-3.8,19-10.7,25.5
		c-1.6,1.6-1.7,2.8-1.3,4.8C176.2,177.3,184.5,197.9,189.3,207.2z M158.8,123.1c-2.2,0-2.8,1.1-3.1,4.8c-0.3,6.1-0.5,20-0.2,26.2
		c0.3,3.5,1.1,5.2,3.3,5.2c4.9,0,9.9-8,9.9-19.2C168.7,130.5,164.3,123.1,158.8,123.1z"/>
	<path class="st4" d="M243.4,103.2c-1.4,23.8,1.6,60.8,0.3,75.6c-1.1,13.8-9.3,23-24.3,23c-14.9,0-22.5-7.5-24.2-21.2
		c-2.2-16.8,0.8-49.7-1.3-75.8c9.6,0.8,19.3,0.1,19.3,0.1c-1.6,15.2-2.2,60.1-0.8,72c0.6,6.2,2.7,9,6.8,9c4.4,0,6-3.4,6.4-9
		c1.6-14,0.5-53.8-1.6-73.5C234.3,103.8,243.4,103.2,243.4,103.2z"/>
	<path class="st3" d="M271.8,153.3c-0.8-2.7-1.6-2.4-1.9,0.1c-0.8,10.2,1.1,41.9,2.8,55c-9.6-0.8-19.9-0.1-19.9-0.1
		c2.4-20.3,1.3-76.8-0.2-96.4c10.7,0.4,21.2-0.4,21.2-0.4c2.2,13.1,9.9,40.6,14,50.8c0.6,1.8,1.6,1.8,2.4,0
		c3.8-9.2,12.1-39.2,14.8-53.3c10.4,1,20.6,0.6,20.6,0.6c-1.3,19.6-2.5,80.8-0.2,101.2c0,0-10.5-0.7-19.9,0
		c1.3-11.7,3.6-47.7,3-56.2c-0.3-3.5-1.4-2.7-2.2-0.4c-3.3,8.3-9.3,32.2-10.7,42.5c0,0-6.4-0.3-13,0
		C280.8,186.2,274.5,161.6,271.8,153.3z"/>
	<path class="st4" d="M352.6,182.6c-0.3,4.4,0.3,12.8,1.4,18.1c0,0-9.9-0.7-19.3,0.1c1.6-24.1,0.9-79.9-0.6-97.1
		c35-4.2,48.7,7.8,48.7,34.6c0,19.9-7.1,32.5-24.8,37.4C354,176.9,352.7,178,352.6,182.6z M355.9,119c-2.2,0-3,1.4-3.1,5.5
		c-0.3,7.1-0.5,22.6-0.2,29.8c0.2,4,1.3,5.9,3.6,5.9c4.9,0,9.3-9.9,9.3-21.4C365.4,127.5,361.5,119,355.9,119z"/>
	<path class="st3" d="M413.5,155.5c1.7-6.2,6.9-28.8,8.2-39.5c10,0.6,20.4,0.1,20.4,0.1c-5.8,13.5-19.8,52.9-20.7,63.2
		c-0.6,7.3,0,24.1,0.6,33.3c0,0-9.9-0.4-19.3,0.3c0.6-10.6,1.3-26.2,0.6-33.6c-0.9-9.5-14.8-48.8-19.9-61.7
		c10.5,0.4,21.4-0.3,21.4-0.3c0.9,11.4,5.2,32.3,7.1,38.1C412.4,157,413,157,413.5,155.5z"/>
	<path class="st3" d="M470.3,95.1c-3.9,10.9-10.1,33.4-12.4,44c-7.1-3.5-13.8-5.8-13.8-5.8c2.8-11.8,6.6-31.9,8.6-45.2
		C452.7,88.1,461.5,92.1,470.3,95.1z"/>
	<path class="st4" d="M488.7,163.8c-1.7,11.3-0.9,21.2,6.1,21.2c3.6,0,5.8-3.8,5.8-9c0-7.3-4.7-12.7-14-19.5
		c-9.6-6.9-17.3-14.8-17.3-30.1c0-17.9,9.1-26.2,23.9-26.2c15.9,0,21.7,9.6,22.3,20c0.6,8.3-0.3,14.8,0.2,21.9c0,0-6.9-0.8-17.4-0.3
		c1.6-15.5,1.1-26-5-26c-3.5,0-6.3,4.1-6.3,11.6c0,7.5,2,13.3,12.7,20.2c11.8,7.8,18.7,13.5,18.7,28.8c0,15.2-9.6,24.6-23.9,24.6
		c-10.1,0-18.1-4.2-21.5-12.4c-3.1-7.1-1.3-17.6-2.4-25.3C480.9,164.2,488.7,163.8,488.7,163.8z"/>
	<path class="st4" d="M262.7,251.4c0,1.2,0.8,2.1,2.1,2.1c1.8,0,4.3-1.4,6-3.9c-0.5-1-0.7-2.1-0.7-3.5c0-3.6,1.8-6,2.9-6
		c1,0,1.6,1.5,1.6,3.5c0,1.6-0.3,3.4-1,5.2c0.3,0.5,0.9,0.7,1.4,0.7c1.8,0,3.7-1.4,5.8-4.1c0.3-0.3,0.5-0.3,0.7,0.1
		c0.3,0.8,0.3,1.7-0.3,2.4c-1.3,1.7-3.5,4.4-6.4,4.4c-0.9,0-1.7-0.3-2.4-0.8c-2,3.5-5.3,6.4-9,6.4c-3.2,0-5.2-2.4-5.2-5.8
		c0-5.6,3.7-10.9,8.8-18c4.6-6.3,14.7-18.6,19.6-24.1c0.4-0.4,0.5-0.3,0.9-0.1c0.9,0.7,1.6,1.6,1.6,2.9c0,2.1-2,5.3-5.7,10
		C277,230.7,262.7,244.7,262.7,251.4z"/>
	<path class="st4" d="M291.1,256.4c-2.4,0-3.9-1.7-3.3-4.1c-2.6,2.6-6,4.9-8.7,4.9c-1.7,0-3.2-1-3.2-3.2c0-6.4,10.9-17.1,19.1-17.1
		c2.4,0,3.5,1,3.5,2.1c-0.1,1.7-1.4,3.9-3.4,4.1c-1.6,0.1-2.2-0.6-2.2-1.4c0-0.7,0.5-1.4,0.5-2c0-0.2-0.1-0.3-0.4-0.3
		c-2.6,0-10.1,7.5-10.1,11.5c0,1,0.5,1.2,1.1,1.2c1.4,0,3.5-1.5,5.4-3.4c1.4-1.3,2.8-3,3.8-4c0.5-0.5,1-0.6,1.5,0.1
		c0.5,0.7,1.1,1.7,0.5,2.8c-0.9,1.5-2.1,3.1-2.1,4.1c0,0.4,0.3,0.7,0.7,0.7c2.6,0,6.5-4.1,8.7-7c0.3-0.3,0.4-0.3,0.6,0.1
		c0.4,0.8,0.3,1.7-0.2,2.4C300.6,250.8,296,256.4,291.1,256.4z"/>
	<path class="st4" d="M308.7,256.5c-2,0-3.7-1.4-3.7-3.5c0-3.5,3.7-8.1,7.3-11.1c-1.8,0.4-4.1,1.9-6.8,1.9c-0.7,1.4-1.7,2.8-2.6,4
		c-0.3,0.3-0.5,0.3-0.7-0.1c-0.3-0.8-0.3-1.7,0.3-2.4c0.4-0.6,1-1.3,1.4-2.1c-0.6-0.5-1-1.3-1-2.2c0-2.6,3.1-5.6,4.5-5.6
		c0.5,0,0.9,0.4,0.9,1.2c0,0.7-0.2,1.6-0.6,2.6c1.6-0.5,4.7-1.7,6.6-1.8c1.2-0.1,1.4,0.3,1.7,1.1c0.3,0.6,0.5,1.7,0.5,2.4
		c0,0.9-0.2,1.3-0.9,2.1c-2,2-5.3,6.2-5.3,8.4c0,0.5,0.3,0.8,0.9,0.8c2.6,0,6.1-3.7,8.6-7c0.3-0.3,0.5-0.3,0.7,0.1
		c0.3,0.8,0.3,1.7-0.3,2.4C317.9,250.8,313.5,256.5,308.7,256.5z"/>
	<path class="st4" d="M356.9,246.8c1.7-2.1,2.8-4.3,3.6-6.6c0.2-0.6,0.5-0.6,0.8-0.1c0.9,1.2,1.2,3.3,0.6,5.1
		c-0.7,2.1-1.8,4.1-3.3,6c1.1,2.4,2.4,4.6,3.9,6.3c0.4,0.5,0.3,0.8-0.1,0.9c-0.8,0.2-1.9,0.3-3.1,0.1c-1.8-0.3-3.1-1.1-4.5-3.5
		c-3.8,3.1-8.6,5.2-13.8,5.2c-5.5,0-9.4-3.2-9.4-8.7c0-8.3,9-14,18.4-17.8c0.5-10.8,6.7-20.8,16.2-20.8c4.5,0,6.7,2.6,6.7,6.4
		c0,7.5-9.1,12.7-18.1,16.7C355.2,239.8,355.9,243.5,356.9,246.8z M350.1,238c-7.7,3.6-12.6,8-12.6,12.4c0,2.8,1.9,4.6,4.9,4.6
		c3.5,0,7.3-1.7,10.5-4.2C351.4,247,350.5,242.4,350.1,238z M367.6,218.7c-0.1-1.4-0.9-2.4-2.4-2.4c-5.1,0-9.6,6.8-10.3,15.4
		C362.5,228.3,367.9,223.2,367.6,218.7z"/>
	<path class="st4" d="M392.1,259c-5.8,5.6-11.6,13.2-15.5,21.2c-0.3,0.6-0.7,0.8-1.3,0.4c-0.5-0.3-1.1-0.8-1.6-1.5
		c-0.9-1.1-0.8-2.8,0.7-5.6c3.3-6.4,12.7-16,17.3-23c-3,3.3-6.9,6.1-10,6.1c-2,0-4-1-4-3.8c0-6.8,10.7-15.7,18.3-15.7
		c2.5,0,3.6,1.4,3.6,3c0,2.1-2.2,4.1-4.1,4.1c-1.1,0-1.8-0.4-1.8-1.2c0-1,0.8-1.8,0.9-2.6c0-0.3-0.2-0.5-0.5-0.5
		c-2.4,0-9.4,6.3-9.4,10.2c0,0.9,0.4,1.4,1.4,1.4c2.3,0,5.4-3,7.3-4.6c0.5-0.4,0.8-0.3,1.4,0.1c0.5,0.3,0.9,0.8,1.2,1.4
		c0.4,0.8,0.1,1.6-0.5,2.7c-0.7,1.2-1.6,2.6-2.6,4c3.5-2.8,6.7-6,9.7-9.9c0.3-0.4,0.5-0.3,0.7,0.1c0.3,0.8,0.3,1.7-0.3,2.4
		C399.6,251.8,395.4,255.8,392.1,259z"/>
	<path class="st4" d="M408.5,256.5c-2,0-3.7-1.4-3.7-3.5c0-3.5,3.7-8.1,7.3-11.1c-1.8,0.4-4.1,1.9-6.8,1.9c-0.7,1.4-1.7,2.8-2.6,4
		c-0.3,0.3-0.5,0.3-0.7-0.1c-0.3-0.8-0.3-1.7,0.3-2.4c0.4-0.6,1-1.3,1.4-2.1c-0.6-0.5-1-1.3-1-2.2c0-2.6,3.1-5.6,4.5-5.6
		c0.5,0,0.9,0.4,0.9,1.2c0,0.7-0.2,1.6-0.6,2.6c1.6-0.5,4.7-1.7,6.6-1.8c1.2-0.1,1.4,0.3,1.7,1.1c0.3,0.6,0.5,1.7,0.5,2.4
		c0,0.9-0.2,1.3-0.9,2.1c-2,2-5.3,6.2-5.3,8.4c0,0.5,0.3,0.8,0.9,0.8c2.6,0,6.1-3.7,8.6-7c0.3-0.3,0.5-0.3,0.7,0.1
		c0.3,0.8,0.3,1.7-0.3,2.4C417.7,250.8,413.3,256.5,408.5,256.5z"/>
	<path class="st4" d="M424,239.6c0.3-0.3,0.6-0.4,1-0.1c0.5,0.4,1,1.1,1.2,1.7c0.3,1,0.1,1.7-0.4,2.8c-1.2,2.1-4,5.3-4,7.3
		c0,0.8,0.4,1.3,1.2,1.3c3.2,0,6.7-4.5,8.8-7.2c0.3-0.3,0.5-0.2,0.6,0.1c0.5,0.9,0.4,1.6-0.2,2.4c-2.1,2.8-7,9-11.9,9
		c-2.6,0-4.2-1.3-4.2-4.1C416,249,420.5,243.1,424,239.6z M433.9,232c0,2.9-2.8,6.1-5.5,6.1c-1.4,0-2.1-0.9-2.1-2.4
		c0-2.4,2.7-6,5.6-6C433.2,229.7,433.9,230.6,433.9,232z"/>
	<path class="st4" d="M435.7,252.6c3.5,0,7.3-4.3,9.6-7.3c0.3-0.3,0.5-0.3,0.6,0.1c0.3,0.9,0.3,1.7-0.2,2.4c-2.3,3-7.1,9.1-12.1,9.1
		c-2.8,0-4.5-1.8-4.5-4.6c0-5.2,4.6-11.1,13.4-23.1c4.8-6.5,13.3-16.9,15.1-19.3c0.3-0.3,0.5-0.3,0.8-0.1c0.5,0.4,1.1,1.2,1.4,1.7
		c0.4,0.8,0.4,1.5,0.1,2.4c-0.5,1.8-2.5,4.7-5.7,8.9c-6.4,8.4-20,23.3-20,28.5C434.1,252.1,434.8,252.6,435.7,252.6z"/>
	<path class="st4" d="M449.2,252.6c3.5,0,7.3-4.3,9.6-7.3c0.3-0.3,0.5-0.3,0.6,0.1c0.3,0.9,0.3,1.7-0.2,2.4c-2.3,3-7.1,9.1-12.1,9.1
		c-2.8,0-4.5-1.8-4.5-4.6c0-5.2,4.6-11.1,13.4-23.1c4.8-6.5,13.3-16.9,15.1-19.3c0.3-0.3,0.5-0.3,0.8-0.1c0.5,0.4,1.1,1.2,1.4,1.7
		c0.4,0.8,0.4,1.5,0.1,2.4c-0.5,1.8-2.5,4.7-5.7,8.9c-6.4,8.4-20,23.3-20,28.5C447.6,252.1,448.3,252.6,449.2,252.6z"/>
</g>
</svg>
