<?xml version="1.0" encoding="utf-8"?>
<!-- Generator: Adobe Illustrator 22.1.0, SVG Export Plug-In . SVG Version: 6.00 Build 0)  -->
<svg version="1.1" id="Layer_1" xmlns="http://www.w3.org/2000/svg" xmlns:xlink="http://www.w3.org/1999/xlink" x="0px" y="0px"
	 viewBox="0 0 600 1747" style="enable-background:new 0 0 600 1747;" xml:space="preserve">
<style type="text/css">
	.st0{fill:#00B0B3;}
	.st1{fill:#FBF2C0;}
	.st2{opacity:0.7;}
	.st3{fill:none;stroke:#404041;stroke-width:1.258;stroke-miterlimit:10;}
	.st4{fill:#404041;}
	.st5{fill:none;stroke:#404041;stroke-miterlimit:10;}
	.st6{fill:#DA5C5C;}
</style>
<rect x="2.5" y="0.5" class="st0" width="596.1" height="3278.5"/>
<polygon class="st1" points="-24.5,-196 622,-72.8 622,1715 -24.7,1485 "/>
<g class="st2">
	<polygon class="st3" points="384.7,462.6 545.8,434.3 521.6,61.6 300.4,84.2 	"/>
	<polygon class="st3" points="311.8,92.8 510.6,88.2 534,403.4 389.6,421.2 	"/>
	<polygon class="st3" points="-9.1,350.1 167.9,409.4 321.1,32.8 92.8,-21 	"/>
	<polygon class="st3" points="12.4,327.8 172.4,371 301.8,47.3 103.7,17.4 	"/>
	<g>
		<g>
			<g>
				<line class="st3" x1="369.8" y1="97.1" x2="249.6" y2="77.4"/>
				<g>
					<path class="st4" d="M370,95.5c0.9,0.1,1.5,1,1.4,1.9s-1,1.5-1.9,1.4c-0.9-0.1-1.5-1-1.4-1.9C368.3,95.9,369.1,95.3,370,95.5z"
						/>
				</g>
				<g>
					<path class="st4" d="M250,75.7c-0.9-0.1-1.8,0.5-1.9,1.4c-0.1,0.9,0.5,1.8,1.4,1.9c0.9,0.1,1.8-0.5,1.9-1.4
						C251.5,76.7,250.9,75.9,250,75.7z"/>
				</g>
			</g>
		</g>
		<g>
			<g>
				<line class="st3" x1="277" y1="120.6" x2="357.3" y2="-4.3"/>
				<g>
					<path class="st4" d="M278.4,121.5c-0.5,0.8-1.5,1-2.3,0.5c-0.8-0.5-1-1.5-0.5-2.3c0.5-0.8,1.5-1,2.3-0.5
						S278.9,120.7,278.4,121.5z"/>
				</g>
				<g>
					<path class="st4" d="M358.6-3.3c0.5-0.8,0.3-1.8-0.5-2.3s-1.8-0.3-2.3,0.5c-0.5,0.8-0.3,1.8,0.5,2.3S358.1-2.6,358.6-3.3z"/>
				</g>
			</g>
		</g>
		<g>
			<g>
				<line class="st3" x1="349.5" y1="52.7" x2="264.7" y2="107.7"/>
				<g>
					<path class="st4" d="M348.5,51.3c0.8-0.5,1.8-0.3,2.3,0.5s0.3,1.8-0.5,2.3c-0.8,0.5-1.8,0.3-2.3-0.5S347.7,51.8,348.5,51.3z"/>
				</g>
				<g>
					<path class="st4" d="M263.9,106.2c-0.8,0.5-1,1.5-0.5,2.3c0.5,0.8,1.5,1,2.3,0.5c0.8-0.5,1-1.5,0.5-2.3
						C265.7,106,264.6,105.7,263.9,106.2z"/>
				</g>
			</g>
		</g>
		<g>
			<g>
				<line class="st3" x1="333.7" y1="125.4" x2="263.5" y2="38.5"/>
				<g>
					<path class="st4" d="M334.9,124.3c0.6,0.7,0.5,1.8-0.2,2.3c-0.7,0.6-1.8,0.5-2.3-0.2c-0.6-0.7-0.5-1.8,0.2-2.3
						C333.3,123.4,334.4,123.6,334.9,124.3z"/>
				</g>
				<g>
					<circle class="st4" cx="263.6" cy="38.6" r="1.7"/>
				</g>
			</g>
		</g>
	</g>
	<path class="st3" d="M518,187.7c0,0-82.3,36.7-196.3-53.1"/>
	<path class="st3" d="M277.8,107.4c0,0-191.3,112.6-208.6,27.3"/>
	<circle class="st3" cx="352" cy="178" r="6.2"/>
	<circle class="st3" cx="373.5" cy="190.9" r="3.7"/>
	<circle class="st3" cx="361.8" cy="180" r="3.5"/>
	<circle class="st3" cx="393.7" cy="277.9" r="4.8"/>
	<circle class="st3" cx="509.7" cy="212.3" r="4.8"/>
	<path class="st3" d="M516.1,162.6c0,0-125.8,36-195.3-31.6"/>
	<path class="st3" d="M279.7,102.8c0,0-111.9,75.7-204.8,12.7"/>
	<circle class="st3" cx="229.1" cy="153.2" r="5"/>
	<circle class="st3" cx="214.4" cy="183.4" r="10.5"/>
	<circle class="st3" cx="237.8" cy="171.2" r="1.1"/>
	<circle class="st3" cx="250.2" cy="140.6" r="7.8"/>
	<circle class="st3" cx="57.5" cy="286.1" r="6"/>
	<circle class="st3" cx="80" cy="205.7" r="1.8"/>
	<circle class="st3" cx="145.6" cy="196.8" r="3.8"/>
</g>
<g class="st2">
	<line class="st5" x1="-110.5" y1="45.7" x2="331.7" y2="983.1"/>
	<g>
		<g>
			<line class="st5" x1="327.2" y1="1103.2" x2="329.4" y2="894.9"/>
			<g>
				<path class="st4" d="M328.5,1103.2c0,0.7-0.6,1.3-1.3,1.3c-0.7,0-1.3-0.6-1.3-1.3c0-0.7,0.6-1.3,1.3-1.3
					S328.5,1102.5,328.5,1103.2z"/>
			</g>
			<g>
				<path class="st4" d="M330.7,895c0-0.7-0.6-1.3-1.3-1.3c-0.7,0-1.3,0.6-1.3,1.3c0,0.7,0.6,1.3,1.3,1.3S330.7,895.7,330.7,895z"/>
			</g>
		</g>
	</g>
	<g>
		<g>
			<line class="st5" x1="456.4" y1="927.9" x2="222.8" y2="1026"/>
			<g>
				<path class="st4" d="M455.8,926.7c0.7-0.3,1.4,0,1.7,0.7c0.3,0.7,0,1.4-0.7,1.7c-0.7,0.3-1.4,0-1.7-0.7
					C454.9,927.8,455.2,927,455.8,926.7z"/>
			</g>
			<g>
				<path class="st4" d="M222.4,1024.8c-0.7,0.3-1,1.1-0.7,1.7c0.3,0.7,1.1,1,1.7,0.7c0.7-0.3,1-1.1,0.7-1.7
					S223.1,1024.5,222.4,1024.8z"/>
			</g>
		</g>
	</g>
	<g>
		<g>
			<line class="st5" x1="258.4" y1="1056" x2="376.3" y2="929.2"/>
			<g>
				<path class="st4" d="M259.4,1056.9c-0.5,0.5-1.3,0.6-1.9,0.1c-0.5-0.5-0.6-1.3-0.1-1.9c0.5-0.5,1.3-0.6,1.9-0.1
					C259.8,1055.5,259.9,1056.4,259.4,1056.9z"/>
			</g>
			<g>
				<path class="st4" d="M377.2,930.1c0.5-0.5,0.5-1.4-0.1-1.9c-0.5-0.5-1.4-0.5-1.9,0.1c-0.5,0.5-0.5,1.4,0.1,1.9
					C375.9,930.7,376.7,930.7,377.2,930.1z"/>
			</g>
		</g>
	</g>
	<g>
		<g>
			<line class="st5" x1="401.8" y1="1057.4" x2="259.9" y2="907.1"/>
			<g>
				<path class="st4" d="M402.7,1056.4c0.5,0.5,0.5,1.4-0.1,1.9c-0.5,0.5-1.4,0.5-1.9-0.1c-0.5-0.5-0.5-1.4,0.1-1.9
					C401.4,1055.9,402.2,1055.9,402.7,1056.4z"/>
			</g>
			<g>
				<path class="st4" d="M260.9,906.2c-0.5-0.5-1.3-0.6-1.9-0.1c-0.5,0.5-0.6,1.3-0.1,1.9c0.5,0.5,1.3,0.6,1.9,0.1
					C261.4,907.6,261.4,906.8,260.9,906.2z"/>
			</g>
		</g>
	</g>
</g>
<path class="st6" d="M380.9,173.2L-194,494.4l16.8,1441.5L444.3,221.2C454.5,184,414,153.3,380.9,173.2z"/>
</svg>
