<?xml version="1.0" encoding="utf-8"?>
<!-- Generator: Adobe Illustrator 22.1.0, SVG Export Plug-In . SVG Version: 6.00 Build 0)  -->
<svg version="1.1" id="Layer_1" xmlns="http://www.w3.org/2000/svg" xmlns:xlink="http://www.w3.org/1999/xlink" x="0px" y="0px"
	 viewBox="0 0 1200 97" style="enable-background:new 0 0 1200 97;" xml:space="preserve">
<style type="text/css">
	.st0{fill:#00B0B3;}
</style>
<g>
	<polygon class="st0" points="204.7,152.9 110.6,296.1 16.5,152.9 110.6,9.9 	"/>
	<polygon class="st0" points="335.6,152.9 241.5,296.1 147.4,152.9 241.5,9.9 	"/>
	<polygon class="st0" points="336.1,153.7 242,296.9 147.9,153.7 242,10.7 	"/>
	<polygon class="st0" points="467,153.7 372.9,296.9 278.8,153.7 372.9,10.7 	"/>
	<polygon class="st0" points="467,153.7 372.9,296.9 278.8,153.7 372.9,10.7 	"/>
	<polygon class="st0" points="597.9,153.7 503.8,296.9 409.7,153.7 503.8,10.7 	"/>
	<polygon class="st0" points="597.9,153.7 503.8,296.9 409.7,153.7 503.8,10.7 	"/>
	<polygon class="st0" points="728.7,153.7 634.7,296.9 540.6,153.7 634.7,10.7 	"/>
	<polygon class="st0" points="728.7,152.9 634.7,296.1 540.6,152.9 634.7,9.9 	"/>
	<polygon class="st0" points="859.6,152.9 765.6,296.1 671.5,152.9 765.6,9.9 	"/>
	<polygon class="st0" points="859.6,152.9 765.6,296.1 671.5,152.9 765.6,9.9 	"/>
	<polygon class="st0" points="990.5,152.9 896.4,296.1 802.4,152.9 896.4,9.9 	"/>
	<polygon class="st0" points="989.7,153.7 895.6,296.9 801.6,153.7 895.6,10.7 	"/>
	<polygon class="st0" points="1120.6,153.7 1026.5,296.9 932.4,153.7 1026.5,10.7 	"/>
	<polygon class="st0" points="1119.9,153.7 1025.8,296.9 931.7,153.7 1025.8,10.7 	"/>
	<polygon class="st0" points="1250.8,153.7 1156.7,296.9 1062.6,153.7 1156.7,10.7 	"/>
</g>
</svg>
