<?xml version="1.0" encoding="utf-8"?>
<!-- Generator: Adobe Illustrator 22.1.0, SVG Export Plug-In . SVG Version: 6.00 Build 0)  -->
<svg version="1.1" id="Layer_1" xmlns="http://www.w3.org/2000/svg" xmlns:xlink="http://www.w3.org/1999/xlink" x="0px" y="0px"
	 viewBox="0 0 1200 97" style="enable-background:new 0 0 1200 97;" xml:space="preserve">
<style type="text/css">
	.st0{fill:#C6943B;}
</style>
<g>
	<g>
		<polygon class="st0" points="270.1,152.9 176.1,296.1 82,152.9 176.1,9.9 		"/>
		<polygon class="st0" points="139.2,153.7 45.1,296.9 -49,153.7 45.1,10.7 		"/>
	</g>
	<g>
		<polygon class="st0" points="401.5,153.7 307.4,296.9 213.4,153.7 307.4,10.7 		"/>
	</g>
	<g>
		<polygon class="st0" points="532.4,153.7 438.3,296.9 344.2,153.7 438.3,10.7 		"/>
	</g>
	<g>
		<polygon class="st0" points="663.3,153.7 569.2,296.9 475.1,153.7 569.2,10.7 		"/>
	</g>
	<g>
		<polygon class="st0" points="794.2,152.9 700.1,296.1 606,152.9 700.1,9.9 		"/>
	</g>
	<g>
		<polygon class="st0" points="925.1,152.9 831,296.1 736.9,152.9 831,9.9 		"/>
	</g>
	<g>
		<polygon class="st0" points="1055.2,153.7 961.1,296.9 867,153.7 961.1,10.7 		"/>
	</g>
	<g>
		<polygon class="st0" points="1185.3,153.7 1091.3,296.9 997.2,153.7 1091.3,10.7 		"/>
	</g>
</g>
</svg>
