<?xml version="1.0" encoding="utf-8"?>
<!-- Generator: Adobe Illustrator 22.1.0, SVG Export Plug-In . SVG Version: 6.00 Build 0)  -->
<svg version="1.1" id="Layer_1" xmlns="http://www.w3.org/2000/svg" xmlns:xlink="http://www.w3.org/1999/xlink" x="0px" y="0px"
	 viewBox="0 0 227 300" style="enable-background:new 0 0 227 300;" xml:space="preserve">
<style type="text/css">
	.st0{fill:#FFFFFF;}
</style>
<g>
	<path class="st0" d="M195.5,112.9c-10.6-1.3-21.1-1.7-31.7-1c-20.4,1.2-40.3,5.5-60.4,9.2c-11.3,2.1-22.7,3.7-34.1,5.3
		c-11.6,1.7-23.2,1.9-34.9,1c-2.7-0.2-5.3-0.7-8.1-1.1c-0.1-0.7-0.1-1.2-0.1-1.7c0-18,0.1-36,0-53.9c-0.1-10.9,8.3-22.4,20.1-25
		c4.8-1.1,9.7-1.1,14.6-1.6c15.4-1.7,30.4-4.7,43.5-13.8c2.1-1.5,4.1-3.3,6.2-5c10.1,9.7,22.7,14.3,36.2,16.6
		c8.1,1.4,16.3,2,24.5,2.6c10.7,0.8,21.4,10.1,23.7,21c0.4,1.6,0.5,3.4,0.5,5c0,13.5,0,26.9,0,40.4
		C195.6,111.5,195.6,112.2,195.5,112.9z M97.9,63.9c-10.5,0.2-15.3,3.2-17.8,12c-0.8,2.8-0.5,6.1-0.4,9.1
		c0.2,6.8,4.7,12.1,11.2,14.1c3.4,1,6.8,0.8,10.2,0.7c6.4-0.2,11.3-3.3,14.4-8.9c2.1-3.7,1.8-7.7,1.5-11.8c-0.3-3.6-1.6-6.5-3.7-9.2
		C109.2,64.7,103.6,63.7,97.9,63.9z M69,85c1-0.6,1.9-1.2,2.8-1.8c3-2.1,2.7-5.2,2.7-8.3c-0.1-5.6-3.7-9.4-9.4-9.5
		c-1.7,0-3.4-0.4-5-0.4c-4.4-0.1-8.7,0-13.7,0c0,3.4,0,6.1,0,8.8c0,1.2,0.4,2.4,0.4,3.5c-0.1,5.1-0.7,10.2-0.3,15.2
		c0.5,7.3-0.4,5.9,6.2,6.1c0.8,0,1.5-0.1,2.3,0c2.4,0.4,2.9-0.8,2.8-2.9c-0.2-2.8,0-5.6,0-8.4c2.3,3.1,4,6.3,5.9,9.4
		c0.4,0.7,1.2,1.8,1.9,1.8c3.8,0.2,7.7,0.1,11.8,0.1c-0.3-0.6-0.4-1-0.5-1.2C74.1,93.3,71.6,89.2,69,85z M148.5,69
		c-2.3-3.3-5.3-4.6-8.9-4.8c-4.1-0.2-8.2-0.8-12.2,1.2c-4.9,2.5-6,6.6-6,11.6c0,4,2.5,5.9,5.5,7.5c0.9,0.5,1.9,0.6,2.8,1
		c2.1,1,4.8,1.1,6,3.6c-4,3.3-6.8,0.3-9.4-1.4c-1.9,1.8-3.8,3.4-5.5,5.1c-2,2-2,2.7,0.5,4.3c5.9,3.7,12.3,3.8,18.8,2.2
		c8.4-2.1,9.7-15.4,4-18.9c-1.8-1.1-3.8-1.8-5.7-2.6c-1.9-0.8-3.9-1.7-6-2.6c2.2-2.6,4.2-2.8,7-0.6c1.7,1.3,2.8,1.4,4.2-0.3
		C145.2,72.4,146.9,70.7,148.5,69z M163.6,77.3c-0.2-2.8,0-3.1,2.2-3.1c2.4,0,4.7,0.3,7.1,0.3c0.9,0,2.4-0.7,2.5-1.3
		c0.4-2,0.4-4,0.4-6c0-1.8-1.1-2.2-2.7-2.2c-5.8,0.1-11.6,0.1-17.4,0c-2.4-0.1-3.1,1-3.1,3.1c0,9.5,0,18.9,0,28.4
		c0,1.7,0.6,2.3,2.2,2.3c6.6,0,13.2,0,19.9,0c0.6,0,1.8-0.8,1.8-1.2c0.2-2.7,0.1-5.5,0.1-8.4c-5,0-9.3,0-13.7,0
		c0.1-1.3,0.1-2.1,0.2-3.1c3.4,0,6.5-0.1,9.7,0c1.7,0.1,2.6-0.4,2.4-2.3c-0.2-2.1-0.4-4.2-0.6-6.4C170.9,77.3,167.3,77.3,163.6,77.3
		z"/>
	<path class="st0" d="M111.3,279.3c-11.3-10.7-25.2-15.1-39.9-17.4c-7-1.1-14.2-1.3-21.2-2.1c-11.7-1.3-20.2-9.4-23.2-20.5
		c-0.5-1.8-0.6-3.9-0.6-5.8c-0.1-11.6,0-23.2,0-34.8c0-0.5,0-1,0.1-1.7c2.1,0.2,4.1,0.4,6.1,0.5c5.5,0.3,11.1,1.2,16.5,0.8
		c11.6-0.8,23.2-1.7,34.6-3.5c17-2.6,33.9-6.1,50.8-9.1c16.2-2.8,32.5-4.3,48.9-3.6c3.6,0.1,7.1,0.7,10.6,1c1.8,0.2,1.6,1.4,1.6,2.6
		c0,8.6,0,17.2,0,25.8c0,7.6,0,15.2,0,22.7c-0.1,11.9-9.8,23.3-21.7,25c-5.4,0.8-10.8,0.9-16.2,1.6c-15.5,2-30.5,5.5-43.1,15.5
		C113.6,277.2,112.5,278.2,111.3,279.3z M60.5,221.9c0-3.7,0-7.3,0-11.2c-3.2,0-6.3-0.1-9.3,0.1c-0.6,0-1.7,1-1.8,1.6
		c-0.3,3.2-0.6,6.4-0.5,9.6c0,6,0.3,12,0.4,18.1c0.1,4.5,0,4.4,4.6,4.4c1.4,0,2.7-0.1,4.1,0c1.9,0.1,2.7-0.6,2.6-2.6
		c-0.2-3.4,0-6.7,0-10c3.3,0,6.1,0,9.2,0c0,3.4,0.1,6.7,0,10c-0.1,1.9,0.6,2.7,2.4,2.6c2-0.1,3.9-0.1,5.9,0c2.4,0.2,3.1-0.9,3-3.2
		c-0.1-7,0-14.1,0-21.1c0-2.4,0.1-4.8-0.1-7.1c-0.1-0.8-0.7-2.2-1.2-2.2c-3.4-0.2-6.8-0.1-10.3-0.1c0,3.9,0,7.5,0,11.1
		C66.5,221.9,63.7,221.9,60.5,221.9z M122.8,244.4c-0.7-1.9-1.2-3.5-1.8-5c-3.6-9-7.2-18-10.7-27c-0.8-2-2.2-2-3.8-2.1
		c-1.3,0-2.5,0-3.8,0.2c-4.9,0.7-4.9-1.3-6.9,4.7c-0.4,1.2-1,2.3-1.5,3.5c-3.3,8.3-6.6,16.6-10.3,25.7c2.9,0,5.1,0,7.4,0
		c5,0,5,0,6.6-4.8c0-0.1,0.3-0.2,0.2-0.1c2.9,0,5.6,0.3,8.3-0.1c2.4-0.4,2.8,0.8,3.4,2.6c0.3,0.9,1.3,2.3,2,2.3
		C115.4,244.5,118.9,244.4,122.8,244.4z M125.9,210.8c0,11.5,0,22.2,0,33.3c7.2,0.6,14.1,0.9,21,0c0.6-0.1,1.5-0.8,1.5-1.3
		c0.1-2.7,0.1-5.4,0.1-7.9c-3,0-5.6,0-8.2,0c-3.1,0-3.5-0.8-3.5-3.9c0.2-6.6,0.1-13.2,0.1-20C133.5,210.8,129.9,210.8,125.9,210.8z
		 M163.9,234.6c0-8,0-15.9,0-24.2c-3.8,0.2-7.5,0.4-11.3,0.5c0,11.3,0,22.1,0,33.2c7.1,0,13.9,0,20.7-0.1c0.6,0,1.8-0.9,1.8-1.5
		c0.2-2.7,0.1-5.4,0.1-8C171.3,234.6,167.7,234.6,163.9,234.6z"/>
	<path class="st0" d="M218.1,185.5c-6-1.5-11.6-3.1-17.3-4.2c-12.2-2.4-24.6-3.2-37-1.9c-12.4,1.3-24.7,2.9-37.1,4.8
		c-10.4,1.6-20.8,4-31.2,5.7c-10.4,1.7-20.7,3.4-31.2,4.3c-9.5,0.8-19.2,0.9-28.8,0.5c-10.3-0.4-20.5-2.7-30.3-6.1
		c-0.6-0.2-1.4-1.3-1.4-1.9c-0.1-20.8-0.1-41.6-0.1-62.5c4.4,1.2,8.5,2.4,12.8,3.4c12.8,2.9,25.8,3.8,39,3.1
		c21.1-1.1,41.6-5.5,62.3-9.2c13.5-2.4,27.1-4.7,40.7-6.1c19.2-2,38.3-0.7,56.9,5.4c2,0.7,2.7,1.5,2.7,3.7
		c-0.1,19.5-0.1,39-0.1,58.5C218.1,183.7,218.1,184.6,218.1,185.5z M135.1,150.7c-4-6.1-7.8-11.9-11.6-17.5c-0.4-0.6-1.4-1.2-2-1.1
		c-3.9,0.6-7.8,1.3-11.7,2.1c-0.5,0.1-1,1.1-1.1,1.7c-0.3,4.6-0.5,9.2-0.5,13.8c-0.1,6.6-0.1,13.3,0,19.9c0,2.3,0.4,4.5,0.6,6.9
		c4.8,0.2,9.2-0.7,13-2.4c0-6.7,0-12.9,0-19.5c0.6,0.7,0.9,1,1.2,1.4c3.2,4.8,6.4,9.6,9.4,14.4c0.8,1.2,1.5,1.7,2.8,1.5
		c3.4-0.5,6.7-1,10.1-1.4c2-0.2,2.6-1.3,2.6-3c0.2-4.2,0.5-8.3,0.5-12.5c0-8.4-0.3-16.9-0.4-25.3c0-1.7-0.7-2.5-2.2-2.3
		c-3.1,0.4-6.2,0.9-9.2,1.4c-1.5,0.3-2,1.2-1.9,2.7c0.3,5.1,0.4,10.2,0.5,15.3C135.3,148,135.1,149.1,135.1,150.7z M81.2,138.9
		c-4.7,0.6-9.1,1.1-13.6,1.6c-1.7,0.2-2.4,1.2-2.8,2.8c-2,7.9-4,15.8-5.9,23.7c-1.1-1.9-1.8-3.8-2.3-5.8c-1.6-5.9-3-11.8-4.7-17.6
		c-0.2-0.8-1.6-1.8-2.5-1.8c-3.8-0.3-7.6-0.3-11.5-0.4c-0.7,0-1.4,0.1-2.9,0.2c5.1,14.1,10,27.8,15.1,41.5c0.3,0.8,1.8,1.5,2.8,1.6
		c3,0.1,6.1-0.2,9.2-0.4c3.4-0.2,4.6-1.2,5.7-4.3c1.2-3.6,2.4-7.2,3.6-10.8c3.1-9,6.3-18,9.4-27C81.1,141.2,81,140.3,81.2,138.9z
		 M170.3,152.4c4.4,0,8.6,0,12.8,0c1.4,0,2.4-0.3,2.3-1.9c-0.1-3.1-0.2-6.2-0.4-9.5c-5.1,0-9.8,0-14.4,0c0-1.3,0-2.3,0-3.6
		c5.1,0,10.1,0,15.2,0c0.3-2.7,0.5-5.2,0.7-7.8c0.2-3-0.7-4.3-3.5-4.3c-7.2,0-14.4,0.1-21.6,0.4c-4.6,0.2-4.7,0.6-4.7,5.2
		c0,6.6,0,13.3,0,19.9c0,5.7,0,11.4,0,17.3c1.5,0.2,2.9,0.5,4.3,0.5c4.5-0.1,9-0.4,13.5-0.5c3.6-0.1,7.2,0.1,10.7,0
		c0.7,0,1.9-1,2-1.6c0.1-3.3-0.1-6.7-0.2-10.5c-5.9,0-11.3,0-16.8,0C170.3,154.5,170.3,153.3,170.3,152.4z M85.2,180.8
		c2.6-0.1,4.4-0.1,6.1-0.3c8.3-1.3,8.3-1.3,8.4-8.4c0.2-11.1,0.2-22.2,0.4-33.3c0-2-0.6-3-2.6-2.6c-3.5,0.6-7,1.3-10.4,2.1
		c-0.6,0.1-1.3,1.3-1.3,2c-0.2,3.8-0.1,7.6-0.2,11.4c-0.1,5.8-0.3,11.6-0.4,17.3C85.1,172.7,85.2,176.5,85.2,180.8z"/>
	<path class="st0" d="M110.8,23.9c-11.5,11.3-25.9,15.7-41.2,18c-6.3,0.9-12.6,1.6-19,2c-12.2,0.8-23.5,11.3-24.8,23.4
		c-0.3,2.8-0.5,5.6-0.5,8.4c0,15.8,0,31.5,0,47.3c0,0.9,0,1.9,0,3.1c-2.7-0.5-5.2-0.8-7.6-1.4c-0.5-0.1-1.1-1.4-1.1-2.1
		c-0.1-6.9,0-13.8,0-20.7c0-10,0-19.9,0-29.9c0-20.4,15.4-36.3,35.8-37c12.6-0.5,24.9-2.4,36.6-7.2c6.4-2.6,12.2-6.2,16.4-11.7
		c2.7-3.5,4.3-7.5,4.9-12.3c0.3,0.8,0.5,1.2,0.6,1.7c1.5,8.2,6.3,14,13.2,18.3c8.7,5.5,18.3,8.1,28.3,9.6c6.6,1,13.2,1.4,19.8,2
		c18.1,1.5,32.6,16.5,33,34.6c0.3,14.6,0.1,29.1,0,43.7c0,0.2-0.1,0.5-0.2,1.1c-2.8-0.5-5.5-1.1-8.4-1.6c0-1.2,0-2.2,0-3.2
		c0-13.1,0-26.2-0.1-39.4c-0.1-13.5-11.8-25.6-25.3-26.4c-13.5-0.8-26.8-2.3-39.5-7.1C122.8,33.5,118.1,30.7,110.8,23.9z"/>
	<path class="st0" d="M25.4,196.7c0,1,0,2,0,2.9c0,11.1-0.1,22.2,0,33.2c0.1,12.3,8.3,23.4,19.8,26.6c3,0.8,6.2,1.1,9.3,1.3
		c16.3,0.9,32.1,3.5,46.5,11.8c3.8,2.2,7.2,5.1,10.8,7.8c11.2-11.3,25.9-15.6,41.4-17.9c6.4-1,12.8-1.7,19.2-2
		c12.1-0.5,21.6-10.8,23.7-21c0.5-2.4,0.6-4.9,0.6-7.3c0-15.1,0-30.2,0-45.3c0-1,0-2,0-3.3c3.1,0.6,5.8,1.1,8.6,1.7c0,1,0,1.9,0,2.9
		c0,14.5,0,29,0,43.5c0,19.2-12,33.9-30.9,37.2c-6.1,1.1-12.4,1-18.5,1.8c-9.7,1.3-19.1,3.5-27.8,8.2c-8.6,4.6-15,11-16.9,21.3
		c-0.3-1-0.5-2.1-0.8-3.1c-1.9-7.2-6.6-12.4-12.8-16.3c-8.5-5.4-18-8-27.8-9.5c-6.3-1-12.7-1.5-19-2c-18.6-1.4-32.9-15-34-33.6
		c-0.7-13.3-0.1-26.7-0.1-40.3C19.5,195.6,22.2,196.1,25.4,196.7z"/>
	<path class="st0" d="M98,89c-4.3,0-6.5-2.6-6.4-7.5c0-3.7,2.5-7.1,5.2-7.2c5.8,0,8.8,2.2,8.4,6.8C104.6,86.4,103.1,89.4,98,89z"/>
	<path class="st0" d="M57.5,79.2c0-1.8,0-3.4,0-5c4.4-0.5,6.1,0.1,6.1,2C63.7,78.2,61.5,79.4,57.5,79.2z"/>
	<path class="st0" d="M103.8,223.1c0.8,2.4,1.5,4.9,2.4,7.4c-1.8,0-3.3,0-5.4,0c0.8-2.6,1.6-5,2.4-7.5
		C103.3,223.1,103.5,223.1,103.8,223.1z"/>
</g>
</svg>
