<?xml version="1.0" encoding="utf-8"?>
<!-- Generator: Adobe Illustrator 22.1.0, SVG Export Plug-In . SVG Version: 6.00 Build 0)  -->
<svg version="1.1" id="Layer_1" xmlns="http://www.w3.org/2000/svg" xmlns:xlink="http://www.w3.org/1999/xlink" x="0px" y="0px"
	 viewBox="0 0 524 300" style="enable-background:new 0 0 524 300;" xml:space="preserve">
<style type="text/css">
	.st0{fill:#FFFFFF;}
</style>
<g>
	<path class="st0" d="M195.5,112.9c-10.6-1.3-21.1-1.7-31.7-1c-20.4,1.2-40.3,5.5-60.4,9.2c-11.3,2.1-22.7,3.7-34.1,5.3
		c-11.6,1.7-23.2,1.9-34.9,1c-2.7-0.2-5.3-0.7-8.1-1.1c-0.1-0.7-0.1-1.2-0.1-1.7c0-18,0.1-36,0-53.9c-0.1-10.9,8.3-22.4,20.1-25
		c4.8-1.1,9.7-1.1,14.6-1.6c15.4-1.7,30.4-4.7,43.5-13.8c2.1-1.5,4.1-3.3,6.2-5c10.1,9.7,22.7,14.3,36.2,16.6
		c8.1,1.4,16.3,2,24.5,2.6c10.7,0.8,21.4,10.1,23.7,21c0.4,1.6,0.5,3.4,0.5,5c0,13.5,0,26.9,0,40.4
		C195.6,111.5,195.6,112.2,195.5,112.9z M97.9,63.9c-10.5,0.2-15.3,3.2-17.8,12c-0.8,2.8-0.5,6.1-0.4,9.1
		c0.2,6.8,4.7,12.1,11.2,14.1c3.4,1,6.8,0.8,10.2,0.7c6.4-0.2,11.3-3.3,14.4-8.9c2.1-3.7,1.8-7.7,1.5-11.8c-0.3-3.6-1.6-6.5-3.7-9.2
		C109.2,64.7,103.6,63.7,97.9,63.9z M69,85c1-0.6,1.9-1.2,2.8-1.8c3-2.1,2.7-5.2,2.7-8.3c-0.1-5.6-3.7-9.4-9.4-9.5
		c-1.7,0-3.4-0.4-5-0.4c-4.4-0.1-8.7,0-13.7,0c0,3.4,0,6.1,0,8.8c0,1.2,0.4,2.4,0.4,3.5c-0.1,5.1-0.7,10.2-0.3,15.2
		c0.5,7.3-0.4,5.9,6.2,6.1c0.8,0,1.5-0.1,2.3,0c2.4,0.4,2.9-0.8,2.8-2.9c-0.2-2.8,0-5.6,0-8.4c2.3,3.1,4,6.3,5.9,9.4
		c0.4,0.7,1.2,1.8,1.9,1.8c3.8,0.2,7.7,0.1,11.8,0.1c-0.3-0.6-0.4-1-0.5-1.2C74.1,93.3,71.6,89.2,69,85z M148.5,69
		c-2.3-3.3-5.3-4.6-8.9-4.8c-4.1-0.2-8.2-0.8-12.2,1.2c-4.9,2.5-6,6.6-6,11.6c0,4,2.5,5.9,5.5,7.5c0.9,0.5,1.9,0.6,2.8,1
		c2.1,1,4.8,1.1,6,3.6c-4,3.3-6.8,0.3-9.4-1.4c-1.9,1.8-3.8,3.4-5.5,5.1c-2,2-2,2.7,0.5,4.3c5.9,3.7,12.3,3.8,18.8,2.2
		c8.4-2.1,9.7-15.4,4-18.9c-1.8-1.1-3.8-1.8-5.7-2.6c-1.9-0.8-3.9-1.7-6-2.6c2.2-2.6,4.2-2.8,7-0.6c1.7,1.3,2.8,1.4,4.2-0.3
		C145.2,72.4,146.9,70.7,148.5,69z M163.6,77.3c-0.2-2.8,0-3.1,2.2-3.1c2.4,0,4.7,0.3,7.1,0.3c0.9,0,2.4-0.7,2.5-1.3
		c0.4-2,0.4-4,0.4-6c0-1.8-1.1-2.2-2.7-2.2c-5.8,0.1-11.6,0.1-17.4,0c-2.4-0.1-3.1,1-3.1,3.1c0,9.5,0,18.9,0,28.4
		c0,1.7,0.6,2.3,2.2,2.3c6.6,0,13.2,0,19.9,0c0.6,0,1.8-0.8,1.8-1.2c0.2-2.7,0.1-5.5,0.1-8.4c-5,0-9.3,0-13.7,0
		c0.1-1.3,0.1-2.1,0.2-3.1c3.4,0,6.5-0.1,9.7,0c1.7,0.1,2.6-0.4,2.4-2.3c-0.2-2.1-0.4-4.2-0.6-6.4C170.9,77.3,167.3,77.3,163.6,77.3
		z"/>
	<path class="st0" d="M111.3,279.3c-11.3-10.7-25.2-15.1-39.9-17.4c-7-1.1-14.2-1.3-21.2-2.1c-11.7-1.3-20.2-9.4-23.2-20.5
		c-0.5-1.8-0.6-3.9-0.6-5.8c-0.1-11.6,0-23.2,0-34.8c0-0.5,0-1,0.1-1.7c2.1,0.2,4.1,0.4,6.1,0.5c5.5,0.3,11.1,1.2,16.5,0.8
		c11.6-0.8,23.2-1.7,34.6-3.5c17-2.6,33.9-6.1,50.8-9.1c16.2-2.8,32.5-4.3,48.9-3.6c3.6,0.1,7.1,0.7,10.6,1c1.8,0.2,1.6,1.4,1.6,2.6
		c0,8.6,0,17.2,0,25.8c0,7.6,0,15.2,0,22.7c-0.1,11.9-9.8,23.3-21.7,25c-5.4,0.8-10.8,0.9-16.2,1.6c-15.5,2-30.5,5.5-43.1,15.5
		C113.6,277.2,112.5,278.2,111.3,279.3z M60.5,221.9c0-3.7,0-7.3,0-11.2c-3.2,0-6.3-0.1-9.3,0.1c-0.6,0-1.7,1-1.8,1.6
		c-0.3,3.2-0.6,6.4-0.5,9.6c0,6,0.3,12,0.4,18.1c0.1,4.5,0,4.4,4.6,4.4c1.4,0,2.7-0.1,4.1,0c1.9,0.1,2.7-0.6,2.6-2.6
		c-0.2-3.4,0-6.7,0-10c3.3,0,6.1,0,9.2,0c0,3.4,0.1,6.7,0,10c-0.1,1.9,0.6,2.7,2.4,2.6c2-0.1,3.9-0.1,5.9,0c2.4,0.2,3.1-0.9,3-3.2
		c-0.1-7,0-14.1,0-21.1c0-2.4,0.1-4.8-0.1-7.1c-0.1-0.8-0.7-2.2-1.2-2.2c-3.4-0.2-6.8-0.1-10.3-0.1c0,3.9,0,7.5,0,11.1
		C66.5,221.9,63.7,221.9,60.5,221.9z M122.8,244.4c-0.7-1.9-1.2-3.5-1.8-5c-3.6-9-7.2-18-10.7-27c-0.8-2-2.2-2-3.8-2.1
		c-1.3,0-2.5,0-3.8,0.2c-4.9,0.7-4.9-1.3-6.9,4.7c-0.4,1.2-1,2.3-1.5,3.5c-3.3,8.3-6.6,16.6-10.3,25.7c2.9,0,5.1,0,7.4,0
		c5,0,5,0,6.6-4.8c0-0.1,0.3-0.2,0.2-0.1c2.9,0,5.6,0.3,8.3-0.1c2.4-0.4,2.8,0.8,3.4,2.6c0.3,0.9,1.3,2.3,2,2.3
		C115.4,244.5,118.9,244.4,122.8,244.4z M125.9,210.8c0,11.5,0,22.2,0,33.3c7.2,0.6,14.1,0.9,21,0c0.6-0.1,1.5-0.8,1.5-1.3
		c0.1-2.7,0.1-5.4,0.1-7.9c-3,0-5.6,0-8.2,0c-3.1,0-3.5-0.8-3.5-3.9c0.2-6.6,0.1-13.2,0.1-20C133.5,210.8,129.9,210.8,125.9,210.8z
		 M163.9,234.6c0-8,0-15.9,0-24.2c-3.8,0.2-7.5,0.4-11.3,0.5c0,11.3,0,22.1,0,33.2c7.1,0,13.9,0,20.7-0.1c0.6,0,1.8-0.9,1.8-1.5
		c0.2-2.7,0.1-5.4,0.1-8C171.3,234.6,167.7,234.6,163.9,234.6z"/>
	<path class="st0" d="M218.1,185.5c-6-1.5-11.6-3.1-17.3-4.2c-12.2-2.4-24.6-3.2-37-1.9c-12.4,1.3-24.7,2.9-37.1,4.8
		c-10.4,1.6-20.8,4-31.2,5.7c-10.4,1.7-20.7,3.4-31.2,4.3c-9.5,0.8-19.2,0.9-28.8,0.5c-10.3-0.4-20.5-2.7-30.3-6.1
		c-0.6-0.2-1.4-1.3-1.4-1.9c-0.1-20.8-0.1-41.6-0.1-62.5c4.4,1.2,8.5,2.4,12.8,3.4c12.8,2.9,25.8,3.8,39,3.1
		c21.1-1.1,41.6-5.5,62.3-9.2c13.5-2.4,27.1-4.7,40.7-6.1c19.2-2,38.3-0.7,56.9,5.4c2,0.7,2.7,1.5,2.7,3.7
		c-0.1,19.5-0.1,39-0.1,58.5C218.1,183.7,218.1,184.6,218.1,185.5z M135.1,150.7c-4-6.1-7.8-11.9-11.6-17.5c-0.4-0.6-1.4-1.2-2-1.1
		c-3.9,0.6-7.8,1.3-11.7,2.1c-0.5,0.1-1,1.1-1.1,1.7c-0.3,4.6-0.5,9.2-0.5,13.8c-0.1,6.6-0.1,13.3,0,19.9c0,2.3,0.4,4.5,0.6,6.9
		c4.8,0.2,9.2-0.7,13-2.4c0-6.7,0-12.9,0-19.5c0.6,0.7,0.9,1,1.2,1.4c3.2,4.8,6.4,9.6,9.4,14.4c0.8,1.2,1.5,1.7,2.8,1.5
		c3.4-0.5,6.7-1,10.1-1.4c2-0.2,2.6-1.3,2.6-3c0.2-4.2,0.5-8.3,0.5-12.5c0-8.4-0.3-16.9-0.4-25.3c0-1.7-0.7-2.5-2.2-2.3
		c-3.1,0.4-6.2,0.9-9.2,1.4c-1.5,0.3-2,1.2-1.9,2.7c0.3,5.1,0.4,10.2,0.5,15.3C135.3,148,135.1,149.1,135.1,150.7z M81.2,138.9
		c-4.7,0.6-9.1,1.1-13.6,1.6c-1.7,0.2-2.4,1.2-2.8,2.8c-2,7.9-4,15.8-5.9,23.7c-1.1-1.9-1.8-3.8-2.3-5.8c-1.6-5.9-3-11.8-4.7-17.6
		c-0.2-0.8-1.6-1.8-2.5-1.8c-3.8-0.3-7.6-0.3-11.5-0.4c-0.7,0-1.4,0.1-2.9,0.2c5.1,14.1,10,27.8,15.1,41.5c0.3,0.8,1.8,1.5,2.8,1.6
		c3,0.1,6.1-0.2,9.2-0.4c3.4-0.2,4.6-1.2,5.7-4.3c1.2-3.6,2.4-7.2,3.6-10.8c3.1-9,6.3-18,9.4-27C81.1,141.2,81,140.3,81.2,138.9z
		 M170.3,152.4c4.4,0,8.6,0,12.8,0c1.4,0,2.4-0.3,2.3-1.9c-0.1-3.1-0.2-6.2-0.4-9.5c-5.1,0-9.8,0-14.4,0c0-1.3,0-2.3,0-3.6
		c5.1,0,10.1,0,15.2,0c0.3-2.7,0.5-5.2,0.7-7.8c0.2-3-0.7-4.3-3.5-4.3c-7.2,0-14.4,0.1-21.6,0.4c-4.6,0.2-4.7,0.6-4.7,5.2
		c0,6.6,0,13.3,0,19.9c0,5.7,0,11.4,0,17.3c1.5,0.2,2.9,0.5,4.3,0.5c4.5-0.1,9-0.4,13.5-0.5c3.6-0.1,7.2,0.1,10.7,0
		c0.7,0,1.9-1,2-1.6c0.1-3.3-0.1-6.7-0.2-10.5c-5.9,0-11.3,0-16.8,0C170.3,154.5,170.3,153.3,170.3,152.4z M85.2,180.8
		c2.6-0.1,4.4-0.1,6.1-0.3c8.3-1.3,8.3-1.3,8.4-8.4c0.2-11.1,0.2-22.2,0.4-33.3c0-2-0.6-3-2.6-2.6c-3.5,0.6-7,1.3-10.4,2.1
		c-0.6,0.1-1.3,1.3-1.3,2c-0.2,3.8-0.1,7.6-0.2,11.4c-0.1,5.8-0.3,11.6-0.4,17.3C85.1,172.7,85.2,176.5,85.2,180.8z"/>
	<path class="st0" d="M110.8,23.9c-11.5,11.3-25.9,15.7-41.2,18c-6.3,0.9-12.6,1.6-19,2c-12.2,0.8-23.5,11.3-24.8,23.4
		c-0.3,2.8-0.5,5.6-0.5,8.4c0,15.8,0,31.5,0,47.3c0,0.9,0,1.9,0,3.1c-2.7-0.5-5.2-0.8-7.6-1.4c-0.5-0.1-1.1-1.4-1.1-2.1
		c-0.1-6.9,0-13.8,0-20.7c0-10,0-19.9,0-29.9c0-20.4,15.4-36.3,35.8-37c12.6-0.5,24.9-2.4,36.6-7.2c6.4-2.6,12.2-6.2,16.4-11.7
		c2.7-3.5,4.3-7.5,4.9-12.3c0.3,0.8,0.5,1.2,0.6,1.7c1.5,8.2,6.3,14,13.2,18.3c8.7,5.5,18.3,8.1,28.3,9.6c6.6,1,13.2,1.4,19.8,2
		c18.1,1.5,32.6,16.5,33,34.6c0.3,14.6,0.1,29.1,0,43.7c0,0.2-0.1,0.5-0.2,1.1c-2.8-0.5-5.5-1.1-8.4-1.6c0-1.2,0-2.2,0-3.2
		c0-13.1,0-26.2-0.1-39.4c-0.1-13.5-11.8-25.6-25.3-26.4c-13.5-0.8-26.8-2.3-39.5-7.1C122.8,33.5,118.1,30.7,110.8,23.9z"/>
	<path class="st0" d="M25.4,196.7c0,1,0,2,0,2.9c0,11.1-0.1,22.2,0,33.2c0.1,12.3,8.3,23.4,19.8,26.6c3,0.8,6.2,1.1,9.3,1.3
		c16.3,0.9,32.1,3.5,46.5,11.8c3.8,2.2,7.2,5.1,10.8,7.8c11.2-11.3,25.9-15.6,41.4-17.9c6.4-1,12.8-1.7,19.2-2
		c12.1-0.5,21.6-10.8,23.7-21c0.5-2.4,0.6-4.9,0.6-7.3c0-15.1,0-30.2,0-45.3c0-1,0-2,0-3.3c3.1,0.6,5.8,1.1,8.6,1.7c0,1,0,1.9,0,2.9
		c0,14.5,0,29,0,43.5c0,19.2-12,33.9-30.9,37.2c-6.1,1.1-12.4,1-18.5,1.8c-9.7,1.3-19.1,3.5-27.8,8.2c-8.6,4.6-15,11-16.9,21.3
		c-0.3-1-0.5-2.1-0.8-3.1c-1.9-7.2-6.6-12.4-12.8-16.3c-8.5-5.4-18-8-27.8-9.5c-6.3-1-12.7-1.5-19-2c-18.6-1.4-32.9-15-34-33.6
		c-0.7-13.3-0.1-26.7-0.1-40.3C19.5,195.6,22.2,196.1,25.4,196.7z"/>
	<path class="st0" d="M98,89c-4.3,0-6.5-2.6-6.4-7.5c0-3.7,2.5-7.1,5.2-7.2c5.8,0,8.8,2.2,8.4,6.8C104.6,86.4,103.1,89.4,98,89z"/>
	<path class="st0" d="M57.5,79.2c0-1.8,0-3.4,0-5c4.4-0.5,6.1,0.1,6.1,2C63.7,78.2,61.5,79.4,57.5,79.2z"/>
	<path class="st0" d="M103.8,223.1c0.8,2.4,1.5,4.9,2.4,7.4c-1.8,0-3.3,0-5.4,0c0.8-2.6,1.6-5,2.4-7.5
		C103.3,223.1,103.5,223.1,103.8,223.1z"/>
</g>
<g>
	<path class="st0" d="M248.7,81.8c-0.3-0.3-0.4-0.6-0.4-1V50.6c0-0.4,0.1-0.8,0.4-1c0.3-0.3,0.7-0.4,1.1-0.4h17.8
		c0.4,0,0.7,0.1,1,0.3c0.2,0.2,0.4,0.5,0.4,0.9c0,0.4-0.1,0.7-0.4,0.9c-0.2,0.2-0.6,0.3-1,0.3h-16.5v12.5h15.6c0.4,0,0.7,0.1,1,0.3
		c0.2,0.2,0.4,0.5,0.4,0.9c0,0.4-0.1,0.7-0.4,0.9c-0.2,0.2-0.6,0.3-1,0.3h-15.6v13h16.5c0.4,0,0.7,0.1,1,0.3
		c0.2,0.2,0.4,0.5,0.4,0.9c0,0.4-0.1,0.7-0.4,0.9s-0.6,0.3-1,0.3h-17.8C249.4,82.2,249,82.1,248.7,81.8z"/>
	<path class="st0" d="M300.6,48.9c0.4,0,0.7,0.1,1,0.4c0.3,0.2,0.4,0.5,0.4,0.9c0,0.2,0,0.4-0.1,0.6l-13.7,30.8
		c-0.1,0.3-0.3,0.6-0.6,0.8c-0.3,0.2-0.6,0.3-1,0.3c-0.3,0-0.6-0.1-0.9-0.3s-0.5-0.4-0.7-0.8l-13.6-30.8c-0.1-0.2-0.1-0.4-0.1-0.5
		c0-0.4,0.1-0.7,0.4-0.9c0.3-0.2,0.6-0.4,1-0.4c0.6,0,1,0.3,1.2,0.8l12.7,28.8l12.7-28.8C299.6,49.1,300,48.9,300.6,48.9z"/>
	<path class="st0" d="M307.4,81.8c-0.3-0.3-0.4-0.6-0.4-1V50.6c0-0.4,0.1-0.8,0.4-1c0.3-0.3,0.7-0.4,1.1-0.4h17.8
		c0.4,0,0.7,0.1,1,0.3c0.2,0.2,0.4,0.5,0.4,0.9c0,0.4-0.1,0.7-0.4,0.9c-0.2,0.2-0.6,0.3-1,0.3h-16.5v12.5h15.6c0.4,0,0.7,0.1,1,0.3
		c0.2,0.2,0.4,0.5,0.4,0.9c0,0.4-0.1,0.7-0.4,0.9c-0.2,0.2-0.6,0.3-1,0.3h-15.6v13h16.5c0.4,0,0.7,0.1,1,0.3
		c0.2,0.2,0.4,0.5,0.4,0.9c0,0.4-0.1,0.7-0.4,0.9s-0.6,0.3-1,0.3h-17.8C308,82.2,307.7,82.1,307.4,81.8z"/>
	<path class="st0" d="M359.7,49.3c0.2,0.3,0.4,0.6,0.4,1.1V81c0,0.4-0.1,0.8-0.4,1.1c-0.3,0.3-0.6,0.4-1,0.4c-0.5,0-0.9-0.2-1.3-0.7
		L336.8,54V81c0,0.4-0.1,0.8-0.4,1.1c-0.3,0.3-0.6,0.4-1,0.4c-0.5,0-0.8-0.1-1-0.4c-0.2-0.3-0.3-0.6-0.3-1.1V50.4
		c0-0.4,0.1-0.8,0.4-1.1c0.3-0.3,0.6-0.4,1.1-0.4c0.5,0,0.9,0.2,1.2,0.7l20.5,27.7V50.4c0-0.4,0.1-0.8,0.4-1.1
		c0.3-0.3,0.6-0.4,1-0.4C359.1,48.9,359.4,49.1,359.7,49.3z"/>
	<path class="st0" d="M377.1,82c-0.3-0.3-0.4-0.6-0.4-1.1V51.7h-10.8c-0.4,0-0.7-0.1-1-0.3c-0.2-0.2-0.4-0.5-0.4-0.9
		c0-0.4,0.1-0.7,0.4-0.9c0.2-0.2,0.6-0.3,1-0.3h24.5c0.4,0,0.7,0.1,0.9,0.4c0.2,0.2,0.4,0.5,0.4,0.9c0,0.4-0.1,0.7-0.4,0.9
		c-0.3,0.2-0.6,0.4-0.9,0.4h-10.8V81c0,0.4-0.1,0.8-0.4,1.1c-0.3,0.3-0.6,0.4-1.1,0.4C377.7,82.5,377.3,82.3,377.1,82z"/>
	<path class="st0" d="M398.5,81.5c-2.1-0.7-3.8-1.7-5-3c-0.4-0.3-0.6-0.8-0.6-1.4c0-0.3,0.1-0.6,0.3-0.9c0.2-0.3,0.4-0.4,0.7-0.4
		c0.3,0,0.7,0.2,1.1,0.5c2.9,2.4,6.4,3.7,10.3,3.7c2.8,0,5-0.6,6.6-1.7c1.5-1.1,2.3-2.8,2.3-4.9c0-1.2-0.4-2.2-1.1-3
		c-0.8-0.8-1.7-1.3-2.9-1.8c-1.2-0.4-2.7-0.9-4.6-1.3c-2.6-0.6-4.6-1.1-6.2-1.7c-1.6-0.6-2.9-1.5-4-2.7c-1.1-1.2-1.6-2.8-1.6-4.9
		c0-1.8,0.5-3.5,1.5-4.9c1-1.4,2.4-2.5,4.2-3.3c1.8-0.8,3.8-1.2,6.1-1.2c2.2,0,4.2,0.4,6.1,1.1c1.9,0.7,3.5,1.7,4.7,3
		c0.4,0.4,0.6,0.9,0.6,1.4c0,0.3-0.1,0.6-0.3,0.9c-0.2,0.3-0.4,0.4-0.7,0.4c-0.3,0-0.7-0.2-1.1-0.5c-1.7-1.4-3.2-2.3-4.6-2.9
		c-1.4-0.5-3-0.8-4.8-0.8c-2.8,0-5,0.6-6.5,1.8c-1.6,1.2-2.3,2.8-2.3,5c0,1.3,0.3,2.3,1,3.1c0.7,0.8,1.6,1.4,2.7,1.9
		s2.5,0.9,4.3,1.4l1.2,0.3c2.5,0.6,4.5,1.2,6,1.7c1.5,0.5,2.7,1.4,3.7,2.5c1,1.1,1.5,2.6,1.5,4.5c0,1.8-0.5,3.4-1.5,4.8
		c-1,1.4-2.4,2.5-4.2,3.2c-1.8,0.8-3.9,1.1-6.2,1.1C402.9,82.6,400.7,82.2,398.5,81.5z"/>
	<path class="st0" d="M292.2,105.2c0.4,0,0.7,0.1,1,0.4c0.3,0.3,0.4,0.6,0.4,0.9c0,0.1,0,0.2-0.1,0.5l-10.9,30.8
		c-0.1,0.3-0.3,0.6-0.6,0.8c-0.3,0.2-0.6,0.3-1,0.3c-0.3,0-0.6-0.1-0.9-0.3c-0.3-0.2-0.5-0.5-0.6-0.8l-9.8-27.8l-9.9,27.8
		c-0.1,0.3-0.3,0.6-0.6,0.8c-0.3,0.2-0.6,0.3-0.9,0.3c-0.3,0-0.6-0.1-0.9-0.3s-0.5-0.5-0.6-0.8l-10.9-30.8c-0.1-0.3-0.1-0.4-0.1-0.5
		c0-0.4,0.1-0.7,0.4-0.9c0.3-0.2,0.6-0.4,1-0.4c0.3,0,0.5,0.1,0.8,0.2c0.2,0.2,0.4,0.4,0.5,0.7l9.9,28.4l9.9-28.1
		c0.1-0.4,0.3-0.7,0.6-0.8c0.3-0.2,0.6-0.3,0.9-0.3c0.3,0,0.7,0.1,0.9,0.3c0.3,0.2,0.5,0.5,0.6,0.9l9.8,28l9.9-28.4
		C291.2,105.5,291.6,105.2,292.2,105.2z"/>
	<path class="st0" d="M300.1,138.1c-0.3-0.3-0.4-0.6-0.4-1v-30.2c0-0.4,0.1-0.8,0.4-1c0.3-0.3,0.7-0.4,1.1-0.4h17.8
		c0.4,0,0.7,0.1,1,0.3c0.2,0.2,0.4,0.5,0.4,0.9c0,0.4-0.1,0.7-0.4,0.9c-0.2,0.2-0.6,0.3-1,0.3h-16.5v12.5h15.6c0.4,0,0.7,0.1,1,0.3
		c0.2,0.2,0.4,0.5,0.4,0.9c0,0.4-0.1,0.7-0.4,0.9c-0.2,0.2-0.6,0.3-1,0.3h-15.6v13h16.5c0.4,0,0.7,0.1,1,0.3
		c0.2,0.2,0.4,0.5,0.4,0.9c0,0.4-0.1,0.7-0.4,0.9s-0.6,0.3-1,0.3h-17.8C300.8,138.5,300.4,138.4,300.1,138.1z"/>
	<path class="st0" d="M327.3,138.1c-0.3-0.3-0.4-0.6-0.4-1v-30.2c0-0.4,0.1-0.8,0.4-1c0.3-0.3,0.7-0.4,1.1-0.4h9.1
		c5.2,0,9.3,1.4,12.1,4.3c2.9,2.8,4.3,6.9,4.3,12.2c0,5.3-1.4,9.4-4.3,12.3c-2.9,2.9-6.9,4.3-12.1,4.3h-9.1
		C328,138.5,327.6,138.4,327.3,138.1z M337.4,136c9,0,13.5-4.7,13.5-14c0-9.3-4.5-14-13.5-14h-7.6v28H337.4z"/>
	<path class="st0" d="M361.6,138.1c-0.3-0.3-0.4-0.6-0.4-1v-30.2c0-0.4,0.1-0.8,0.4-1c0.3-0.3,0.7-0.4,1.1-0.4h9.1
		c5.2,0,9.3,1.4,12.1,4.3c2.9,2.8,4.3,6.9,4.3,12.2c0,5.3-1.4,9.4-4.3,12.3c-2.9,2.9-6.9,4.3-12.1,4.3h-9.1
		C362.2,138.5,361.9,138.4,361.6,138.1z M371.6,136c9,0,13.5-4.7,13.5-14c0-9.3-4.5-14-13.5-14H364v28H371.6z"/>
	<path class="st0" d="M395.8,138.3c-0.3-0.3-0.4-0.6-0.4-1.1v-30.5c0-0.4,0.1-0.8,0.4-1.1c0.3-0.3,0.6-0.4,1.1-0.4s0.8,0.1,1.1,0.4
		s0.4,0.6,0.4,1.1v30.5c0,0.4-0.1,0.8-0.4,1.1c-0.3,0.3-0.6,0.4-1.1,0.4S396.1,138.6,395.8,138.3z"/>
	<path class="st0" d="M432.5,105.6c0.2,0.3,0.4,0.6,0.4,1.1v30.5c0,0.4-0.1,0.8-0.4,1.1c-0.3,0.3-0.6,0.4-1,0.4
		c-0.5,0-0.9-0.2-1.3-0.7l-20.5-27.7v26.9c0,0.4-0.1,0.8-0.4,1.1c-0.3,0.3-0.6,0.4-1,0.4c-0.5,0-0.8-0.1-1-0.4
		c-0.2-0.3-0.3-0.6-0.3-1.1v-30.5c0-0.4,0.1-0.8,0.4-1.1c0.3-0.3,0.6-0.4,1.1-0.4c0.5,0,0.9,0.2,1.2,0.7l20.5,27.7v-26.9
		c0-0.4,0.1-0.8,0.4-1.1c0.3-0.3,0.6-0.4,1-0.4C431.9,105.2,432.2,105.3,432.5,105.6z"/>
	<path class="st0" d="M466.6,121.9c0.2,0.2,0.4,0.5,0.4,0.9v12.4c0,0.8-0.4,1.4-1.1,1.7c-1.3,0.6-2.8,1.1-4.7,1.4
		c-1.8,0.3-3.7,0.5-5.6,0.5c-3.2,0-6-0.7-8.3-2c-2.3-1.3-4.1-3.3-5.3-5.8c-1.2-2.5-1.9-5.6-1.9-9.1c0-3.5,0.6-6.5,1.8-9
		s3-4.5,5.3-5.8c2.3-1.4,5-2,8.1-2c2.2,0,4.2,0.4,6.1,1.1c1.9,0.7,3.5,1.7,4.7,3c0.4,0.4,0.6,0.9,0.6,1.4c0,0.3-0.1,0.6-0.3,0.9
		c-0.2,0.3-0.4,0.4-0.7,0.4c-0.3,0-0.6-0.2-1-0.5c-1.7-1.4-3.2-2.3-4.6-2.9c-1.4-0.5-3-0.8-4.8-0.8c-3.9,0-6.9,1.2-9,3.7
		s-3.2,6-3.2,10.6c0,4.7,1.1,8.2,3.2,10.7c2.1,2.5,5.2,3.7,9.3,3.7c1.6,0,3.1-0.1,4.6-0.4c1.5-0.3,2.9-0.6,4.1-1.1V124h-7.6
		c-0.4,0-0.8-0.1-1-0.3c-0.2-0.2-0.4-0.5-0.4-0.9c0-0.4,0.1-0.7,0.4-0.9c0.2-0.2,0.6-0.3,1-0.3h9C466,121.6,466.3,121.7,466.6,121.9
		z"/>
	<path class="st0" d="M478.6,137.8c-2.1-0.7-3.8-1.7-5-3c-0.4-0.3-0.6-0.8-0.6-1.4c0-0.3,0.1-0.6,0.3-0.9c0.2-0.3,0.4-0.4,0.7-0.4
		c0.3,0,0.7,0.2,1.1,0.5c2.9,2.4,6.4,3.7,10.3,3.7c2.8,0,5-0.6,6.6-1.7c1.5-1.1,2.3-2.8,2.3-4.9c0-1.2-0.4-2.2-1.1-3
		c-0.8-0.8-1.7-1.3-2.9-1.8c-1.2-0.4-2.7-0.9-4.6-1.3c-2.6-0.6-4.6-1.1-6.2-1.7c-1.6-0.6-2.9-1.5-4-2.7c-1.1-1.2-1.6-2.8-1.6-4.9
		c0-1.8,0.5-3.5,1.5-4.9c1-1.4,2.4-2.5,4.2-3.3c1.8-0.8,3.8-1.2,6.1-1.2c2.2,0,4.2,0.4,6.1,1.1c1.9,0.7,3.5,1.7,4.7,3
		c0.4,0.4,0.6,0.9,0.6,1.4c0,0.3-0.1,0.6-0.3,0.9c-0.2,0.3-0.4,0.4-0.7,0.4c-0.3,0-0.7-0.2-1.1-0.5c-1.7-1.4-3.2-2.3-4.6-2.9
		c-1.4-0.5-3-0.8-4.8-0.8c-2.8,0-5,0.6-6.5,1.8c-1.6,1.2-2.3,2.8-2.3,5c0,1.3,0.3,2.3,1,3.1c0.7,0.8,1.6,1.4,2.7,1.9
		s2.5,0.9,4.3,1.4l1.2,0.3c2.5,0.6,4.5,1.2,6,1.7c1.5,0.5,2.7,1.4,3.7,2.5c1,1.1,1.5,2.6,1.5,4.5c0,1.8-0.5,3.4-1.5,4.8
		c-1,1.4-2.4,2.5-4.2,3.2c-1.8,0.8-3.9,1.1-6.2,1.1C482.9,138.9,480.7,138.5,478.6,137.8z"/>
	<path class="st0" d="M248.7,194.6c-0.3-0.3-0.4-0.6-0.4-1.1v-30.4c0-0.4,0.1-0.8,0.4-1c0.3-0.3,0.7-0.4,1.1-0.4h11
		c3.4,0,6.1,0.8,8,2.5c1.9,1.7,2.8,4,2.8,7c0,3.1-1,5.4-2.9,7.1c-1.9,1.7-4.6,2.5-8,2.5h-9.6v12.7c0,0.5-0.1,0.8-0.4,1.1
		s-0.6,0.4-1.1,0.4S248.9,194.9,248.7,194.6z M260.6,178.4c5.4,0,8.1-2.4,8.1-7.1c0-4.7-2.7-7-8.1-7h-9.4v14.2H260.6z"/>
	<path class="st0" d="M302.7,193.8c0,0.3-0.1,0.6-0.4,0.9s-0.6,0.4-1,0.4c-0.3,0-0.5-0.1-0.7-0.2s-0.4-0.4-0.5-0.7l-3.6-8.2h-18.2
		l-3.6,8.2c-0.3,0.6-0.7,0.9-1.3,0.9c-0.4,0-0.7-0.1-1-0.4s-0.4-0.5-0.4-0.9c0-0.2,0-0.4,0.1-0.5l13.7-30.8c0.3-0.7,0.8-1,1.5-1
		c0.3,0,0.7,0.1,1,0.3c0.3,0.2,0.5,0.4,0.6,0.8l13.7,30.8C302.6,193.4,302.7,193.6,302.7,193.8z M279.3,183.5h16l-8-18.2
		L279.3,183.5z"/>
	<path class="st0" d="M333.5,193.9c0,0.3-0.1,0.6-0.4,0.9c-0.3,0.2-0.6,0.4-0.9,0.4c-0.5,0-1-0.3-1.3-0.8l-6.3-10.1
		c-0.9-1.4-1.8-2.4-2.8-3c-1-0.5-2.3-0.8-4-0.8h-6.4v13.1c0,0.5-0.1,0.8-0.4,1.1s-0.6,0.4-1.1,0.4s-0.8-0.1-1.1-0.4
		c-0.3-0.3-0.4-0.6-0.4-1.1v-30.4c0-0.4,0.1-0.8,0.4-1c0.3-0.3,0.7-0.4,1.1-0.4h11.7c3.5,0,6.1,0.8,8,2.4c1.9,1.6,2.8,3.9,2.8,6.9
		c0,2.7-0.8,4.8-2.4,6.3s-3.8,2.5-6.8,2.7c0.8,0.3,1.4,0.7,2.1,1.2c0.6,0.6,1.3,1.4,1.9,2.4l5.8,9.3
		C333.4,193.4,333.5,193.6,333.5,193.9z M321.5,178c5.4,0,8.2-2.3,8.2-7c0-2.3-0.7-4-2-5.1c-1.3-1.1-3.4-1.7-6.1-1.7h-10.2V178
		H321.5z"/>
	<path class="st0" d="M348,194.6c-0.3-0.3-0.4-0.6-0.4-1.1v-29.3h-10.8c-0.4,0-0.7-0.1-1-0.3c-0.2-0.2-0.4-0.5-0.4-0.9
		s0.1-0.7,0.4-0.9c0.2-0.2,0.6-0.3,1-0.3h24.5c0.4,0,0.7,0.1,0.9,0.4c0.2,0.2,0.4,0.5,0.4,0.9s-0.1,0.7-0.4,0.9
		c-0.3,0.2-0.6,0.4-0.9,0.4h-10.8v29.3c0,0.4-0.1,0.8-0.4,1.1s-0.6,0.4-1.1,0.4C348.6,195,348.3,194.9,348,194.6z"/>
	<path class="st0" d="M367.6,194.6c-0.3-0.3-0.4-0.6-0.4-1.1V163c0-0.4,0.1-0.8,0.4-1.1c0.3-0.3,0.6-0.4,1.1-0.4s0.8,0.1,1.1,0.4
		s0.4,0.6,0.4,1.1v30.5c0,0.4-0.1,0.8-0.4,1.1s-0.6,0.4-1.1,0.4S367.8,194.9,367.6,194.6z"/>
	<path class="st0" d="M379.1,194.4c-0.3-0.3-0.4-0.6-0.4-1v-30.2c0-0.4,0.1-0.8,0.4-1c0.3-0.3,0.7-0.4,1.1-0.4H398
		c0.4,0,0.7,0.1,1,0.3c0.2,0.2,0.4,0.5,0.4,0.9c0,0.4-0.1,0.7-0.4,0.9s-0.6,0.3-1,0.3h-16.5v12.5h15.6c0.4,0,0.7,0.1,1,0.3
		s0.4,0.5,0.4,0.9c0,0.4-0.1,0.7-0.4,0.9s-0.6,0.3-1,0.3h-15.6v13H398c0.4,0,0.7,0.1,1,0.3c0.2,0.2,0.4,0.5,0.4,0.9
		c0,0.4-0.1,0.7-0.4,0.9s-0.6,0.3-1,0.3h-17.8C379.7,194.8,379.4,194.7,379.1,194.4z"/>
	<path class="st0" d="M408.8,194.1c-2.1-0.7-3.8-1.7-5-3c-0.4-0.3-0.6-0.8-0.6-1.4c0-0.3,0.1-0.6,0.3-0.9c0.2-0.2,0.4-0.4,0.7-0.4
		c0.3,0,0.7,0.2,1.1,0.5c2.9,2.4,6.4,3.7,10.3,3.7c2.8,0,5-0.6,6.6-1.7s2.3-2.8,2.3-4.9c0-1.2-0.4-2.2-1.1-3
		c-0.8-0.8-1.7-1.3-2.9-1.8c-1.2-0.4-2.7-0.9-4.6-1.3c-2.6-0.6-4.6-1.1-6.2-1.7c-1.6-0.6-2.9-1.5-4-2.7c-1.1-1.2-1.6-2.8-1.6-4.9
		c0-1.8,0.5-3.5,1.5-4.9c1-1.4,2.4-2.5,4.2-3.3c1.8-0.8,3.8-1.2,6.1-1.2c2.2,0,4.2,0.4,6.1,1.1c1.9,0.7,3.5,1.7,4.7,3
		c0.4,0.4,0.6,0.9,0.6,1.4c0,0.3-0.1,0.6-0.3,0.9c-0.2,0.3-0.4,0.4-0.7,0.4c-0.3,0-0.7-0.2-1.1-0.5c-1.7-1.4-3.2-2.3-4.6-2.9
		c-1.4-0.5-3-0.8-4.8-0.8c-2.8,0-5,0.6-6.5,1.8c-1.6,1.2-2.3,2.8-2.3,5c0,1.3,0.3,2.3,1,3.1c0.7,0.8,1.6,1.4,2.7,1.9
		c1.1,0.5,2.5,0.9,4.3,1.4l1.2,0.3c2.5,0.6,4.5,1.2,6,1.7c1.5,0.5,2.7,1.4,3.7,2.5c1,1.1,1.5,2.6,1.5,4.5c0,1.8-0.5,3.4-1.5,4.8
		s-2.4,2.5-4.2,3.2c-1.8,0.8-3.9,1.1-6.2,1.1C413.2,195.2,411,194.8,408.8,194.1z"/>
	<path class="st0" d="M278.7,218.2c0.3,0.3,0.4,0.6,0.4,1.1v30.5c0,0.4-0.1,0.8-0.4,1.1s-0.6,0.4-1,0.4c-0.4,0-0.8-0.1-1-0.4
		c-0.2-0.3-0.3-0.6-0.3-1.1v-26l-11.1,21.5c-0.4,0.7-0.9,1.1-1.5,1.1c-0.7,0-1.2-0.4-1.5-1.1L251,224v25.8c0,0.5-0.1,0.8-0.3,1.1
		s-0.5,0.4-1,0.4c-0.5,0-0.8-0.1-1.1-0.4c-0.2-0.3-0.4-0.6-0.4-1.1v-30.5c0-0.4,0.1-0.8,0.4-1.1c0.3-0.3,0.6-0.4,1.1-0.4
		c0.6,0,1,0.4,1.4,1.1l12.6,24.2l12.4-24.2c0.4-0.7,0.8-1.1,1.4-1.1C278.1,217.8,278.5,217.9,278.7,218.2z"/>
	<path class="st0" d="M288.1,250.7c-0.3-0.3-0.4-0.6-0.4-1v-30.2c0-0.4,0.1-0.8,0.4-1c0.3-0.3,0.7-0.4,1.1-0.4H307
		c0.4,0,0.7,0.1,1,0.3c0.2,0.2,0.4,0.5,0.4,0.9c0,0.4-0.1,0.7-0.4,0.9s-0.6,0.3-1,0.3h-16.5V233h15.6c0.4,0,0.7,0.1,1,0.3
		s0.4,0.5,0.4,0.9c0,0.4-0.1,0.7-0.4,0.9s-0.6,0.3-1,0.3h-15.6v13H307c0.4,0,0.7,0.1,1,0.3c0.2,0.2,0.4,0.5,0.4,0.9
		c0,0.4-0.1,0.7-0.4,0.9s-0.6,0.3-1,0.3h-17.8C288.8,251.1,288.4,251,288.1,250.7z"/>
	<path class="st0" d="M315.3,250.7c-0.3-0.3-0.4-0.6-0.4-1v-30.2c0-0.4,0.1-0.8,0.4-1c0.3-0.3,0.7-0.4,1.1-0.4h17.8
		c0.4,0,0.7,0.1,1,0.3c0.2,0.2,0.4,0.5,0.4,0.9c0,0.4-0.1,0.7-0.4,0.9s-0.6,0.3-1,0.3h-16.5V233h15.6c0.4,0,0.7,0.1,1,0.3
		s0.4,0.5,0.4,0.9c0,0.4-0.1,0.7-0.4,0.9s-0.6,0.3-1,0.3h-15.6v13h16.5c0.4,0,0.7,0.1,1,0.3c0.2,0.2,0.4,0.5,0.4,0.9
		c0,0.4-0.1,0.7-0.4,0.9s-0.6,0.3-1,0.3h-17.8C315.9,251.1,315.6,251,315.3,250.7z"/>
	<path class="st0" d="M349.7,250.9c-0.3-0.3-0.4-0.6-0.4-1.1v-29.3h-10.8c-0.4,0-0.7-0.1-1-0.3c-0.2-0.2-0.4-0.5-0.4-0.9
		s0.1-0.7,0.4-0.9c0.2-0.2,0.6-0.3,1-0.3H363c0.4,0,0.7,0.1,0.9,0.4c0.2,0.2,0.4,0.5,0.4,0.9s-0.1,0.7-0.4,0.9
		c-0.3,0.2-0.6,0.4-0.9,0.4h-10.8v29.3c0,0.4-0.1,0.8-0.4,1.1s-0.6,0.4-1.1,0.4C350.3,251.3,349.9,251.2,349.7,250.9z"/>
	<path class="st0" d="M369.2,250.9c-0.3-0.3-0.4-0.6-0.4-1.1v-30.5c0-0.4,0.1-0.8,0.4-1.1c0.3-0.3,0.6-0.4,1.1-0.4s0.8,0.1,1.1,0.4
		s0.4,0.6,0.4,1.1v30.5c0,0.4-0.1,0.8-0.4,1.1s-0.6,0.4-1.1,0.4S369.5,251.2,369.2,250.9z"/>
	<path class="st0" d="M405.9,218.2c0.2,0.3,0.4,0.6,0.4,1.1v30.5c0,0.4-0.1,0.8-0.4,1.1c-0.3,0.3-0.6,0.4-1,0.4
		c-0.5,0-0.9-0.2-1.3-0.7L383,222.9v26.9c0,0.4-0.1,0.8-0.4,1.1c-0.3,0.3-0.6,0.4-1,0.4c-0.5,0-0.8-0.1-1-0.4s-0.3-0.6-0.3-1.1
		v-30.5c0-0.4,0.1-0.8,0.4-1.1c0.3-0.3,0.6-0.4,1.1-0.4c0.5,0,0.9,0.2,1.2,0.7l20.5,27.7v-26.9c0-0.4,0.1-0.8,0.4-1.1
		c0.3-0.3,0.6-0.4,1-0.4C405.3,217.8,405.6,217.9,405.9,218.2z"/>
	<path class="st0" d="M440,234.5c0.2,0.2,0.4,0.5,0.4,0.9v12.4c0,0.8-0.4,1.4-1.1,1.7c-1.3,0.6-2.8,1.1-4.7,1.4
		c-1.8,0.3-3.7,0.5-5.6,0.5c-3.2,0-6-0.7-8.3-2c-2.3-1.3-4.1-3.3-5.3-5.8c-1.2-2.5-1.9-5.6-1.9-9.1c0-3.5,0.6-6.5,1.8-9
		c1.2-2.5,3-4.5,5.3-5.8c2.3-1.4,5-2,8.1-2c2.2,0,4.2,0.4,6.1,1.1c1.9,0.7,3.5,1.7,4.7,3c0.4,0.4,0.6,0.9,0.6,1.4
		c0,0.3-0.1,0.6-0.3,0.9c-0.2,0.3-0.4,0.4-0.7,0.4c-0.3,0-0.6-0.2-1-0.5c-1.7-1.4-3.2-2.3-4.6-2.9c-1.4-0.5-3-0.8-4.8-0.8
		c-3.9,0-6.9,1.2-9,3.7s-3.2,6-3.2,10.6c0,4.7,1.1,8.2,3.2,10.7c2.1,2.5,5.2,3.7,9.3,3.7c1.6,0,3.1-0.1,4.6-0.4
		c1.5-0.3,2.9-0.6,4.1-1.1v-10.8h-7.6c-0.4,0-0.8-0.1-1-0.3s-0.4-0.5-0.4-0.9s0.1-0.7,0.4-0.9c0.2-0.2,0.6-0.3,1-0.3h9
		C439.4,234.2,439.7,234.3,440,234.5z"/>
	<path class="st0" d="M452,250.4c-2.1-0.7-3.8-1.7-5-3c-0.4-0.3-0.6-0.8-0.6-1.4c0-0.3,0.1-0.6,0.3-0.9c0.2-0.2,0.4-0.4,0.7-0.4
		c0.3,0,0.7,0.2,1.1,0.5c2.9,2.4,6.4,3.7,10.3,3.7c2.8,0,5-0.6,6.6-1.7s2.3-2.8,2.3-4.9c0-1.2-0.4-2.2-1.1-3
		c-0.8-0.8-1.7-1.3-2.9-1.8c-1.2-0.4-2.7-0.9-4.6-1.3c-2.6-0.6-4.6-1.1-6.2-1.7c-1.6-0.6-2.9-1.5-4-2.7c-1.1-1.2-1.6-2.8-1.6-4.9
		c0-1.8,0.5-3.5,1.5-4.9c1-1.4,2.4-2.5,4.2-3.3c1.8-0.8,3.8-1.2,6.1-1.2c2.2,0,4.2,0.4,6.1,1.1c1.9,0.7,3.5,1.7,4.7,3
		c0.4,0.4,0.6,0.9,0.6,1.4c0,0.3-0.1,0.6-0.3,0.9c-0.2,0.3-0.4,0.4-0.7,0.4c-0.3,0-0.7-0.2-1.1-0.5c-1.7-1.4-3.2-2.3-4.6-2.9
		c-1.4-0.5-3-0.8-4.8-0.8c-2.8,0-5,0.6-6.5,1.8c-1.6,1.2-2.3,2.8-2.3,5c0,1.3,0.3,2.3,1,3.1c0.7,0.8,1.6,1.4,2.7,1.9
		c1.1,0.5,2.5,0.9,4.3,1.4l1.2,0.3c2.5,0.6,4.5,1.2,6,1.7c1.5,0.5,2.7,1.4,3.7,2.5c1,1.1,1.5,2.6,1.5,4.5c0,1.8-0.5,3.4-1.5,4.8
		s-2.4,2.5-4.2,3.2c-1.8,0.8-3.9,1.1-6.2,1.1C456.3,251.5,454.1,251.1,452,250.4z"/>
</g>
</svg>
