<?xml version="1.0" encoding="utf-8"?>
<!-- Generator: Adobe Illustrator 22.1.0, SVG Export Plug-In . SVG Version: 6.00 Build 0)  -->
<svg version="1.1" id="Layer_2" xmlns="http://www.w3.org/2000/svg" xmlns:xlink="http://www.w3.org/1999/xlink" x="0px" y="0px"
	 viewBox="0 0 524 234.6" style="enable-background:new 0 0 524 234.6;" xml:space="preserve">
<style type="text/css">
	.st0{fill:#FFFFFF;}
</style>
<g>
	<path class="st0" d="M44.9,139.6c5.8,0,10.3-1.6,13.4-4.8c3.2-3.2,4.7-7.6,4.7-13c0-2.9-0.5-5.5-1.4-7.7s-2.2-4.3-3.8-6.1
		c-1.6-1.8-3.4-3.5-5.4-5c-2-1.5-4.1-3-6.3-4.5c-2.5-1.7-5-3.5-7.7-5.5c-2.7-1.9-5.1-4.2-7.3-6.8c-2.2-2.6-4-5.6-5.4-9
		c-1.4-3.4-2.1-7.5-2.1-12.1c0-4.5,0.8-8.6,2.3-12.2c1.6-3.6,3.7-6.8,6.4-9.3c2.7-2.6,6-4.6,9.8-6c3.8-1.4,7.9-2.1,12.3-2.1
		c4.3,0,8.3,0.5,11.9,1.6c3.6,1.1,6.7,2.4,9.2,3.9l-4.5,11.4c-2.3-1.5-4.7-2.7-7.3-3.5c-2.6-0.8-5.4-1.2-8.3-1.2
		c-5.3,0-9.5,1.4-12.6,4.3c-3.2,2.8-4.7,7-4.7,12.5c0,3,0.5,5.6,1.5,7.9c1,2.3,2.4,4.3,4,6.1c1.7,1.8,3.6,3.5,5.8,5
		c2.2,1.5,4.5,3.1,7,4.7c2.5,1.6,5,3.4,7.6,5.3c2.6,1.9,4.9,4.2,7,6.7c2.1,2.5,3.8,5.5,5.1,8.8c1.3,3.4,2,7.4,2,12
		c0,4.2-0.6,8.1-1.9,11.9c-1.3,3.8-3.3,7.1-6,9.9c-2.7,2.8-6.2,5.1-10.3,6.8c-4.1,1.7-9,2.5-14.6,2.5c-5.1,0-9.6-0.6-13.5-1.8
		c-3.9-1.2-7.3-2.7-10.3-4.7l4.5-11.6c2.8,1.7,5.7,3.1,8.6,4.1C37.6,139.1,41,139.6,44.9,139.6z"/>
	<path class="st0" d="M146.5,38.1H161v111.4h-14.5V97.8h-36.7v51.8H95.4V38.1h14.5v47.1h36.7V38.1z"/>
	<path class="st0" d="M262.8,93.9c0,8.7-0.8,16.6-2.3,23.7c-1.6,7.1-4,13.2-7.2,18.3c-3.3,5.1-7.4,9-12.4,11.8S230,152,223.2,152
		s-12.6-1.4-17.6-4.2c-5-2.8-9.1-6.7-12.4-11.8c-3.3-5.1-5.7-11.2-7.3-18.3c-1.6-7.1-2.4-15-2.4-23.7c0-8.7,0.8-16.6,2.4-23.8
		c1.6-7.2,4-13.3,7.3-18.4c3.3-5.1,7.4-9.1,12.4-11.9c5-2.8,10.9-4.3,17.6-4.3s12.6,1.4,17.6,4.3c5,2.8,9.1,6.8,12.4,11.9
		c3.3,5.1,5.7,11.2,7.2,18.4C262,77.3,262.8,85.2,262.8,93.9z M247.4,93.9c0-6.8-0.4-12.9-1.3-18.5c-0.9-5.6-2.3-10.4-4.2-14.4
		s-4.4-7.2-7.5-9.4s-6.8-3.4-11.2-3.4c-4.4,0-8.1,1.1-11.2,3.4c-3.1,2.3-5.5,5.4-7.5,9.4s-3.4,8.8-4.3,14.4
		c-0.9,5.6-1.4,11.7-1.4,18.5c0,6.8,0.5,12.9,1.4,18.5c0.9,5.6,2.3,10.3,4.3,14.3c1.9,4,4.4,7.1,7.5,9.2c3.1,2.2,6.8,3.3,11.2,3.3
		c4.4,0,8.1-1.1,11.2-3.3c3.1-2.2,5.5-5.3,7.5-9.2c1.9-4,3.3-8.7,4.2-14.3C246.9,106.8,247.4,100.7,247.4,93.9z"/>
	<path class="st0" d="M307,77.6l19.1-39.5h14.5l-26.4,54.2c2.3,4.6,4.8,9.4,7.4,14.4c2.6,5,5.2,9.9,7.7,14.9c2.5,5,4.9,9.8,7.1,14.5
		c2.2,4.7,4.2,9.2,5.8,13.5H328c-1.2-3.2-2.6-6.7-4.2-10.5s-3.3-7.7-5.1-11.6c-1.9-4-3.8-8-5.8-12.1c-2-4.1-3.9-8.1-5.8-12
		c-1.9,3.9-3.9,7.9-5.9,12c-2,4.1-4,8.2-5.8,12.1c-1.8,4-3.5,7.9-5,11.7c-1.5,3.8-2.9,7.3-3.9,10.5h-14.1c1.5-4.2,3.4-8.7,5.5-13.5
		c2.1-4.8,4.4-9.8,6.7-14.9c2.4-5.1,4.7-10.2,7.2-15.4c2.4-5.2,4.7-10.1,7-14.8l-25.8-52.9h14.8L307,77.6z"/>
	<path class="st0" d="M431,93.9c0,8.7-0.8,16.6-2.3,23.7c-1.6,7.1-4,13.2-7.2,18.3c-3.3,5.1-7.4,9-12.4,11.8s-10.9,4.2-17.6,4.2
		s-12.6-1.4-17.6-4.2c-5-2.8-9.1-6.7-12.4-11.8c-3.3-5.1-5.7-11.2-7.3-18.3c-1.6-7.1-2.4-15-2.4-23.7c0-8.7,0.8-16.6,2.4-23.8
		c1.6-7.2,4-13.3,7.3-18.4c3.3-5.1,7.4-9.1,12.4-11.9c5-2.8,10.9-4.3,17.6-4.3s12.6,1.4,17.6,4.3c5,2.8,9.1,6.8,12.4,11.9
		c3.3,5.1,5.7,11.2,7.2,18.4C430.2,77.3,431,85.2,431,93.9z M415.6,93.9c0-6.8-0.4-12.9-1.3-18.5c-0.9-5.6-2.3-10.4-4.2-14.4
		s-4.4-7.2-7.5-9.4s-6.8-3.4-11.2-3.4c-4.4,0-8.1,1.1-11.2,3.4c-3.1,2.3-5.5,5.4-7.5,9.4s-3.4,8.8-4.3,14.4
		c-0.9,5.6-1.4,11.7-1.4,18.5c0,6.8,0.5,12.9,1.4,18.5c0.9,5.6,2.3,10.3,4.3,14.3c1.9,4,4.4,7.1,7.5,9.2c3.1,2.2,6.8,3.3,11.2,3.3
		c4.4,0,8.1-1.1,11.2-3.3c3.1-2.2,5.5-5.3,7.5-9.2c1.9-4,3.3-8.7,4.2-14.3C415.1,106.8,415.6,100.7,415.6,93.9z"/>
	<path class="st0" d="M453.5,39.7c7.5-1.8,14.8-2.7,22-2.7c5.6,0,10.6,0.7,15.2,2c4.6,1.3,8.5,3.4,11.7,6.3c3.3,2.8,5.8,6.5,7.6,11
		c1.8,4.5,2.7,9.9,2.7,16.2c0,6.4-0.9,11.9-2.7,16.5c-1.8,4.6-4.4,8.3-7.7,11.1c-3.3,2.8-7.3,4.9-12,6.2c-4.7,1.3-9.8,1.9-15.5,1.9
		H468v41.3h-14.5V39.7z M468,95.5h5.8c3.6,0,6.9-0.4,9.9-1.2c2.9-0.8,5.4-2.1,7.5-3.9c2-1.8,3.6-4.2,4.7-7.1
		c1.1-2.9,1.6-6.5,1.6-10.8c0-4.3-0.5-7.9-1.6-10.9c-1.1-2.9-2.5-5.3-4.4-7.1c-1.9-1.8-4.2-3-6.8-3.8c-2.7-0.7-5.6-1.1-8.8-1.1
		c-2.8,0-5.4,0.2-7.7,0.5V95.5z"/>
</g>
<g>
	<path class="st0" d="M21.1,181.7c2-0.5,3.9-0.7,5.7-0.7c1.5,0,2.8,0.2,4,0.5c1.2,0.3,2.2,0.9,3.1,1.6s1.5,1.7,2,2.8
		c0.5,1.2,0.7,2.6,0.7,4.2c0,2-0.4,3.7-1.2,4.9c-0.8,1.3-1.8,2.2-3.2,2.9c0.3,0.6,0.8,1.3,1.3,2.3c0.5,1,1.1,2.1,1.6,3.2
		c0.6,1.2,1.1,2.4,1.6,3.6c0.5,1.2,1,2.4,1.3,3.6h-3.9c-0.3-0.8-0.7-1.8-1.2-2.9c-0.5-1.1-1-2.1-1.5-3.2s-1-2.1-1.5-3.1
		s-1-1.8-1.4-2.5c-0.5,0.1-0.9,0.1-1.4,0.1c-0.5,0-1,0-1.4,0h-1.1v11.5h-3.7V181.7z M24.9,196.1h1.6c2,0,3.5-0.4,4.5-1.3
		c1-0.9,1.6-2.4,1.6-4.6c0-1.1-0.1-2-0.4-2.8c-0.3-0.7-0.7-1.3-1.1-1.8c-0.5-0.4-1.1-0.8-1.8-1c-0.7-0.2-1.5-0.3-2.3-0.3
		c-0.7,0-1.4,0-2,0.1V196.1z"/>
	<path class="st0" d="M42.9,210.7v-29.4h13.2v3.3h-9.4v9.1h8.5v3.2h-8.5v10.6h10.1v3.3H42.9z"/>
	<path class="st0" d="M71.1,211.4c-3.5,0-6.1-1.3-7.9-3.9c-1.8-2.6-2.8-6.6-2.8-11.9c0-2.7,0.3-5.1,0.8-7c0.5-1.9,1.3-3.4,2.2-4.6
		c0.9-1.2,2-2,3.3-2.6c1.3-0.5,2.7-0.8,4.2-0.8c1.2,0,2.4,0.2,3.5,0.5c1.1,0.3,2,0.7,2.6,1.2l-1.1,3.2c-0.7-0.5-1.4-0.8-2.2-1.1
		c-0.8-0.3-1.7-0.4-2.7-0.4c-2.3,0-3.9,0.9-4.9,2.8s-1.5,4.8-1.5,8.8c0,4,0.5,7.1,1.6,9.2c1.1,2.2,2.8,3.2,5.3,3.2
		c1.2,0,2.1-0.1,2.8-0.4c0.7-0.3,1.4-0.7,2.1-1.1l1.1,3c-0.7,0.5-1.5,0.9-2.6,1.3S72.5,211.4,71.1,211.4z"/>
	<path class="st0" d="M100.9,196.1c0,2.3-0.2,4.4-0.6,6.3c-0.4,1.9-1,3.5-1.9,4.8c-0.9,1.3-2,2.4-3.3,3.1c-1.3,0.7-2.9,1.1-4.6,1.1
		c-1.8,0-3.3-0.4-4.6-1.1c-1.3-0.7-2.4-1.8-3.3-3.1c-0.9-1.3-1.5-3-1.9-4.8c-0.4-1.9-0.6-4-0.6-6.3s0.2-4.4,0.6-6.3
		c0.4-1.9,1.1-3.5,1.9-4.9c0.9-1.3,2-2.4,3.3-3.1c1.3-0.8,2.9-1.1,4.6-1.1c1.8,0,3.3,0.4,4.6,1.1c1.3,0.8,2.4,1.8,3.3,3.1
		c0.9,1.3,1.5,3,1.9,4.9C100.7,191.7,100.9,193.8,100.9,196.1z M96.8,196.1c0-1.8-0.1-3.4-0.3-4.9c-0.2-1.5-0.6-2.7-1.1-3.8
		c-0.5-1.1-1.2-1.9-2-2.5c-0.8-0.6-1.8-0.9-3-0.9s-2.1,0.3-3,0.9c-0.8,0.6-1.5,1.4-2,2.5c-0.5,1.1-0.9,2.3-1.1,3.8
		c-0.2,1.5-0.4,3.1-0.4,4.9s0.1,3.4,0.4,4.9c0.2,1.5,0.6,2.7,1.1,3.8c0.5,1,1.2,1.9,2,2.4s1.8,0.9,3,0.9s2.1-0.3,3-0.9
		s1.5-1.4,2-2.4c0.5-1,0.9-2.3,1.1-3.8C96.7,199.5,96.8,197.8,96.8,196.1z"/>
	<path class="st0" d="M106.8,181.7c2-0.5,3.9-0.7,5.7-0.7c1.5,0,2.8,0.2,4,0.5c1.2,0.3,2.2,0.9,3.1,1.6s1.5,1.7,2,2.8
		c0.5,1.2,0.7,2.6,0.7,4.2c0,2-0.4,3.7-1.2,4.9c-0.8,1.3-1.8,2.2-3.2,2.9c0.3,0.6,0.8,1.3,1.3,2.3c0.5,1,1.1,2.1,1.6,3.2
		c0.6,1.2,1.1,2.4,1.6,3.6c0.5,1.2,1,2.4,1.3,3.6h-3.9c-0.3-0.8-0.7-1.8-1.2-2.9c-0.5-1.1-1-2.1-1.5-3.2s-1-2.1-1.5-3.1
		s-1-1.8-1.4-2.5c-0.5,0.1-0.9,0.1-1.4,0.1c-0.5,0-1,0-1.4,0h-1.1v11.5h-3.7V181.7z M110.5,196.1h1.6c2,0,3.5-0.4,4.5-1.3
		c1-0.9,1.6-2.4,1.6-4.6c0-1.1-0.1-2-0.4-2.8c-0.3-0.7-0.7-1.3-1.1-1.8c-0.5-0.4-1.1-0.8-1.8-1c-0.7-0.2-1.5-0.3-2.3-0.3
		c-0.7,0-1.4,0-2,0.1V196.1z"/>
	<path class="st0" d="M147.2,196c0,2.7-0.3,5.1-0.9,7c-0.6,1.9-1.4,3.5-2.5,4.6c-1.1,1.2-2.4,2.1-3.9,2.6c-1.5,0.5-3.3,0.8-5.2,0.8
		c-1.9,0-4-0.3-6.1-0.8v-28.5c1.1-0.2,2.1-0.4,3.1-0.6s2-0.2,2.9-0.2c1.9,0,3.7,0.3,5.2,0.8c1.5,0.5,2.9,1.4,3.9,2.6
		c1.1,1.2,1.9,2.7,2.5,4.6C146.9,190.9,147.2,193.3,147.2,196z M143.1,196c0-2.1-0.2-3.9-0.5-5.4c-0.3-1.5-0.8-2.7-1.4-3.6
		c-0.7-0.9-1.5-1.6-2.6-2c-1.1-0.4-2.3-0.6-3.8-0.6c-0.4,0-0.8,0-1.2,0c-0.4,0-0.8,0.1-1.2,0.1v22.9c0.4,0.1,0.8,0.1,1.2,0.1
		c0.4,0,0.8,0,1.1,0c1.5,0,2.8-0.2,3.8-0.6c1-0.4,1.9-1.1,2.6-2c0.7-0.9,1.2-2.1,1.5-3.6C143,199.9,143.1,198.1,143.1,196z"/>
	<path class="st0" d="M156.7,208.1c1.5,0,2.7-0.4,3.5-1.3c0.8-0.8,1.3-2,1.3-3.4c0-0.8-0.1-1.4-0.4-2c-0.3-0.6-0.6-1.1-1-1.6
		s-0.9-0.9-1.4-1.3c-0.5-0.4-1.1-0.8-1.7-1.2c-0.7-0.5-1.3-0.9-2-1.4c-0.7-0.5-1.4-1.1-1.9-1.8c-0.6-0.7-1.1-1.5-1.4-2.4
		c-0.4-0.9-0.6-2-0.6-3.2c0-1.2,0.2-2.3,0.6-3.2c0.4-1,1-1.8,1.7-2.5c0.7-0.7,1.6-1.2,2.6-1.6c1-0.4,2.1-0.6,3.2-0.6
		c1.1,0,2.2,0.1,3.1,0.4c1,0.3,1.8,0.6,2.4,1l-1.2,3c-0.6-0.4-1.2-0.7-1.9-0.9c-0.7-0.2-1.4-0.3-2.2-0.3c-1.4,0-2.5,0.4-3.3,1.1
		c-0.8,0.8-1.3,1.8-1.3,3.3c0,0.8,0.1,1.5,0.4,2.1c0.3,0.6,0.6,1.1,1.1,1.6c0.4,0.5,0.9,0.9,1.5,1.3c0.6,0.4,1.2,0.8,1.8,1.2
		s1.3,0.9,2,1.4s1.3,1.1,1.8,1.8c0.6,0.7,1,1.4,1.4,2.3c0.4,0.9,0.5,1.9,0.5,3.2c0,1.1-0.2,2.2-0.5,3.1c-0.3,1-0.9,1.9-1.6,2.6
		s-1.6,1.3-2.7,1.8c-1.1,0.4-2.4,0.7-3.8,0.7c-1.4,0-2.5-0.2-3.6-0.5s-1.9-0.7-2.7-1.2l1.2-3.1c0.7,0.5,1.5,0.8,2.3,1.1
		C154.8,208,155.7,208.1,156.7,208.1z"/>
	<path class="st0" d="M184.1,196.3h7.9v3.4h-7.9V196.3z"/>
	<path class="st0" d="M213.1,181.7c2-0.5,3.9-0.7,5.8-0.7c1.5,0,2.8,0.2,4,0.5c1.2,0.4,2.2,0.9,3.1,1.7c0.9,0.8,1.5,1.7,2,2.9
		c0.5,1.2,0.7,2.6,0.7,4.3c0,1.7-0.2,3.1-0.7,4.4s-1.2,2.2-2,2.9c-0.9,0.8-1.9,1.3-3.2,1.6s-2.6,0.5-4.1,0.5h-1.8v10.9h-3.8V181.7z
		 M216.9,196.5h1.5c1,0,1.8-0.1,2.6-0.3c0.8-0.2,1.4-0.6,2-1s0.9-1.1,1.2-1.9c0.3-0.8,0.4-1.7,0.4-2.8s-0.1-2.1-0.4-2.9
		s-0.7-1.4-1.2-1.9c-0.5-0.5-1.1-0.8-1.8-1c-0.7-0.2-1.5-0.3-2.3-0.3c-0.7,0-1.4,0-2,0.1V196.5z"/>
	<path class="st0" d="M253.4,196.1c0,2.3-0.2,4.4-0.6,6.3c-0.4,1.9-1,3.5-1.9,4.8c-0.9,1.3-2,2.4-3.3,3.1c-1.3,0.7-2.9,1.1-4.6,1.1
		s-3.3-0.4-4.6-1.1c-1.3-0.7-2.4-1.8-3.3-3.1c-0.9-1.3-1.5-3-1.9-4.8c-0.4-1.9-0.6-4-0.6-6.3s0.2-4.4,0.6-6.3
		c0.4-1.9,1.1-3.5,1.9-4.9c0.9-1.3,2-2.4,3.3-3.1s2.9-1.1,4.6-1.1s3.3,0.4,4.6,1.1s2.4,1.8,3.3,3.1c0.9,1.3,1.5,3,1.9,4.9
		C253.2,191.7,253.4,193.8,253.4,196.1z M249.3,196.1c0-1.8-0.1-3.4-0.3-4.9c-0.2-1.5-0.6-2.7-1.1-3.8c-0.5-1.1-1.2-1.9-2-2.5
		c-0.8-0.6-1.8-0.9-3-0.9c-1.2,0-2.1,0.3-3,0.9c-0.8,0.6-1.5,1.4-2,2.5c-0.5,1.1-0.9,2.3-1.1,3.8c-0.2,1.5-0.4,3.1-0.4,4.9
		s0.1,3.4,0.4,4.9c0.2,1.5,0.6,2.7,1.1,3.8c0.5,1,1.2,1.9,2,2.4s1.8,0.9,3,0.9c1.2,0,2.1-0.3,3-0.9s1.5-1.4,2-2.4
		c0.5-1,0.9-2.3,1.1-3.8C249.2,199.5,249.3,197.8,249.3,196.1z"/>
	<path class="st0" d="M263,208.1c1.5,0,2.7-0.4,3.5-1.3s1.3-2,1.3-3.4c0-0.8-0.1-1.4-0.4-2s-0.6-1.1-1-1.6c-0.4-0.5-0.9-0.9-1.4-1.3
		c-0.5-0.4-1.1-0.8-1.7-1.2c-0.7-0.5-1.3-0.9-2-1.4c-0.7-0.5-1.4-1.1-1.9-1.8c-0.6-0.7-1.1-1.5-1.4-2.4c-0.4-0.9-0.6-2-0.6-3.2
		c0-1.2,0.2-2.3,0.6-3.2c0.4-1,1-1.8,1.7-2.5c0.7-0.7,1.6-1.2,2.6-1.6s2.1-0.6,3.2-0.6c1.1,0,2.2,0.1,3.1,0.4c1,0.3,1.8,0.6,2.4,1
		l-1.2,3c-0.6-0.4-1.2-0.7-1.9-0.9c-0.7-0.2-1.4-0.3-2.2-0.3c-1.4,0-2.5,0.4-3.3,1.1s-1.3,1.8-1.3,3.3c0,0.8,0.1,1.5,0.4,2.1
		c0.3,0.6,0.6,1.1,1.1,1.6c0.4,0.5,0.9,0.9,1.5,1.3c0.6,0.4,1.2,0.8,1.8,1.2c0.7,0.4,1.3,0.9,2,1.4c0.7,0.5,1.3,1.1,1.8,1.8
		c0.6,0.7,1,1.4,1.4,2.3c0.4,0.9,0.5,1.9,0.5,3.2c0,1.1-0.2,2.2-0.5,3.1c-0.3,1-0.9,1.9-1.6,2.6c-0.7,0.8-1.6,1.3-2.7,1.8
		c-1.1,0.4-2.4,0.7-3.8,0.7c-1.4,0-2.5-0.2-3.6-0.5c-1-0.3-1.9-0.7-2.7-1.2l1.2-3.1c0.7,0.5,1.5,0.8,2.3,1.1
		C261.1,208,262,208.1,263,208.1z"/>
	<path class="st0" d="M290.3,181.3v3.3h-6.5v26.2h-3.8v-26.2h-6.5v-3.3H290.3z"/>
	<path class="st0" d="M294.4,210.7v-29.4h13.2v3.3h-9.4v9.1h8.5v3.2h-8.5v10.6h10.1v3.3H294.4z"/>
	<path class="st0" d="M313.8,181.7c2-0.5,3.9-0.7,5.7-0.7c1.5,0,2.8,0.2,4,0.5c1.2,0.3,2.2,0.9,3.1,1.6c0.8,0.7,1.5,1.7,2,2.8
		c0.5,1.2,0.7,2.6,0.7,4.2c0,2-0.4,3.7-1.2,4.9c-0.8,1.3-1.8,2.2-3.2,2.9c0.3,0.6,0.8,1.3,1.3,2.3c0.5,1,1.1,2.1,1.6,3.2
		c0.6,1.2,1.1,2.4,1.6,3.6c0.5,1.2,1,2.4,1.3,3.6h-3.8c-0.3-0.8-0.7-1.8-1.2-2.9c-0.5-1.1-1-2.1-1.5-3.2s-1-2.1-1.5-3.1
		s-1-1.8-1.4-2.5c-0.5,0.1-0.9,0.1-1.4,0.1c-0.5,0-1,0-1.4,0h-1.1v11.5h-3.7V181.7z M317.5,196.1h1.6c2,0,3.5-0.4,4.5-1.3
		s1.6-2.4,1.6-4.6c0-1.1-0.1-2-0.4-2.8c-0.3-0.7-0.7-1.3-1.1-1.8c-0.5-0.4-1.1-0.8-1.8-1c-0.7-0.2-1.5-0.3-2.3-0.3
		c-0.7,0-1.4,0-2,0.1V196.1z"/>
	<path class="st0" d="M339.3,208.1c1.5,0,2.7-0.4,3.5-1.3s1.3-2,1.3-3.4c0-0.8-0.1-1.4-0.4-2s-0.6-1.1-1-1.6
		c-0.4-0.5-0.9-0.9-1.4-1.3c-0.5-0.4-1.1-0.8-1.7-1.2c-0.7-0.5-1.3-0.9-2-1.4c-0.7-0.5-1.4-1.1-1.9-1.8c-0.6-0.7-1.1-1.5-1.4-2.4
		c-0.4-0.9-0.6-2-0.6-3.2c0-1.2,0.2-2.3,0.6-3.2c0.4-1,1-1.8,1.7-2.5c0.7-0.7,1.6-1.2,2.6-1.6s2.1-0.6,3.2-0.6
		c1.1,0,2.2,0.1,3.1,0.4c1,0.3,1.8,0.6,2.4,1l-1.2,3c-0.6-0.4-1.2-0.7-1.9-0.9c-0.7-0.2-1.4-0.3-2.2-0.3c-1.4,0-2.5,0.4-3.3,1.1
		s-1.3,1.8-1.3,3.3c0,0.8,0.1,1.5,0.4,2.1c0.3,0.6,0.6,1.1,1.1,1.6c0.4,0.5,0.9,0.9,1.5,1.3c0.6,0.4,1.2,0.8,1.8,1.2
		c0.7,0.4,1.3,0.9,2,1.4c0.7,0.5,1.3,1.1,1.8,1.8c0.6,0.7,1,1.4,1.4,2.3c0.4,0.9,0.5,1.9,0.5,3.2c0,1.1-0.2,2.2-0.5,3.1
		c-0.3,1-0.9,1.9-1.6,2.6c-0.7,0.8-1.6,1.3-2.7,1.8c-1.1,0.4-2.4,0.7-3.8,0.7c-1.4,0-2.5-0.2-3.6-0.5c-1-0.3-1.9-0.7-2.7-1.2
		l1.2-3.1c0.7,0.5,1.5,0.8,2.3,1.1C337.3,208,338.2,208.1,339.3,208.1z"/>
	<path class="st0" d="M366.6,196.3h7.9v3.4h-7.9V196.3z"/>
	<path class="st0" d="M405.8,206.7c-0.6-2-1.1-4-1.7-5.9s-1.2-3.6-1.7-5.3c-0.6-1.7-1.1-3.2-1.6-4.5c-0.5-1.4-1-2.5-1.4-3.6
		c-0.1,1.6-0.2,3.4-0.3,5.3s-0.1,3.9-0.2,6c-0.1,2-0.1,4.1-0.2,6.1c0,2.1-0.1,4-0.1,5.9H395c0.1-2.5,0.2-5.1,0.3-7.7
		c0.1-2.6,0.2-5.1,0.3-7.6c0.1-2.5,0.3-4.9,0.4-7.3c0.2-2.4,0.3-4.6,0.5-6.8h3.8c0.5,1.2,1.1,2.7,1.7,4.4s1.3,3.4,2,5.3
		c0.7,1.8,1.3,3.7,1.9,5.5c0.6,1.8,1.2,3.5,1.6,5.1c0.5-1.5,1-3.2,1.6-5.1c0.6-1.8,1.2-3.7,1.9-5.5s1.3-3.6,1.9-5.3s1.2-3.1,1.7-4.4
		h3.8c0.2,2.1,0.4,4.4,0.5,6.8c0.2,2.4,0.3,4.8,0.4,7.3c0.1,2.5,0.2,5.1,0.3,7.6c0.1,2.6,0.2,5.2,0.3,7.7h-3.7
		c-0.1-1.9-0.1-3.8-0.1-5.9c0-2.1-0.1-4.1-0.2-6.2c-0.1-2.1-0.1-4.1-0.2-6.1c-0.1-2-0.2-3.8-0.3-5.4c-0.3,0.7-0.6,1.6-1,2.7
		c-0.4,1.1-0.8,2.2-1.2,3.5c-0.4,1.2-0.8,2.5-1.3,3.8c-0.4,1.3-0.8,2.6-1.2,3.8s-0.7,2.3-1,3.3c-0.3,1-0.5,1.8-0.7,2.4H405.8z"/>
	<path class="st0" d="M426.4,210.7v-29.4h13.2v3.3h-9.4v9.1h8.5v3.2h-8.5v10.6h10.1v3.3H426.4z"/>
	<path class="st0" d="M445.8,181.7c2-0.5,3.9-0.7,5.7-0.7c1.5,0,2.8,0.2,4,0.5c1.2,0.3,2.2,0.9,3.1,1.6c0.8,0.7,1.5,1.7,2,2.8
		c0.5,1.2,0.7,2.6,0.7,4.2c0,2-0.4,3.7-1.2,4.9c-0.8,1.3-1.8,2.2-3.2,2.9c0.3,0.6,0.8,1.3,1.3,2.3c0.5,1,1.1,2.1,1.6,3.2
		c0.6,1.2,1.1,2.4,1.6,3.6c0.5,1.2,1,2.4,1.3,3.6h-3.8c-0.3-0.8-0.7-1.8-1.2-2.9c-0.5-1.1-1-2.1-1.5-3.2s-1-2.1-1.5-3.1
		s-1-1.8-1.4-2.5c-0.5,0.1-0.9,0.1-1.4,0.1c-0.5,0-1,0-1.4,0h-1.1v11.5h-3.7V181.7z M449.5,196.1h1.6c2,0,3.5-0.4,4.5-1.3
		s1.6-2.4,1.6-4.6c0-1.1-0.1-2-0.4-2.8c-0.3-0.7-0.7-1.3-1.1-1.8c-0.5-0.4-1.1-0.8-1.8-1c-0.7-0.2-1.5-0.3-2.3-0.3
		c-0.7,0-1.4,0-2,0.1V196.1z"/>
	<path class="st0" d="M476.7,211.4c-3.5,0-6.1-1.3-7.9-3.9s-2.8-6.6-2.8-11.9c0-2.7,0.3-5.1,0.8-7c0.5-1.9,1.3-3.4,2.2-4.6
		c0.9-1.2,2-2,3.3-2.6c1.3-0.5,2.7-0.8,4.2-0.8c1.2,0,2.4,0.2,3.5,0.5c1.1,0.3,2,0.7,2.6,1.2l-1.1,3.2c-0.7-0.5-1.4-0.8-2.2-1.1
		c-0.8-0.3-1.7-0.4-2.7-0.4c-2.3,0-3.9,0.9-4.9,2.8c-1,1.9-1.5,4.8-1.5,8.8c0,4,0.5,7.1,1.6,9.2c1.1,2.2,2.8,3.2,5.3,3.2
		c1.2,0,2.1-0.1,2.8-0.4s1.4-0.7,2.1-1.1l1.1,3c-0.7,0.5-1.5,0.9-2.6,1.3S478.1,211.4,476.7,211.4z"/>
	<path class="st0" d="M500.6,181.3h3.8v29.4h-3.8v-13.7h-9.7v13.7h-3.8v-29.4h3.8v12.4h9.7V181.3z"/>
</g>
</svg>
