<?xml version="1.0" encoding="utf-8"?>
<!-- Generator: Adobe Illustrator 22.1.0, SVG Export Plug-In . SVG Version: 6.00 Build 0)  -->
<svg version="1.1" id="Layer_3" xmlns="http://www.w3.org/2000/svg" xmlns:xlink="http://www.w3.org/1999/xlink" x="0px" y="0px"
	 viewBox="0 0 32 32" style="enable-background:new 0 0 32 32;" xml:space="preserve">
<style type="text/css">
	.st0{fill:#C6943B;}
</style>
<path class="st0" d="M0.8,25.2c2.7,1.8,6,2.8,9.5,2.8c11.5,0,18-9.7,17.6-18.4c1.2-0.9,2.3-2,3.1-3.2c-1.1,0.5-2.3,0.8-3.6,1
	c1.3-0.8,2.3-2,2.7-3.4c-1.2,0.7-2.5,1.2-3.9,1.5c-1.1-1.2-2.7-2-4.5-2c-4,0-6.9,3.7-6,7.6c-5.2-0.3-9.7-2.7-12.8-6.5
	C1.3,7.4,2,11,4.8,12.8c-1,0-2-0.3-2.8-0.8c-0.1,2.9,2,5.6,5,6.2c-0.9,0.2-1.8,0.3-2.8,0.1c0.8,2.5,3.1,4.3,5.8,4.3
	C7.3,24.7,4.1,25.6,0.8,25.2z"/>
</svg>
